<svg xmlns="http://www.w3.org/2000/svg" width="764" height="988" viewBox="0 0 764 988" font-family="Georgia, 'Palatino Linotype', 'Times New Roman', serif">
<defs>
<filter id="grain" x="0" y="0" width="100%" height="100%"><feTurbulence type="fractalNoise" baseFrequency="0.8" numOctaves="2" seed="11" stitchTiles="stitch"/><feColorMatrix type="matrix" values="0 0 0 0 0.36 0 0 0 0 0.28 0 0 0 0 0.16 0 0 0 0.18 0"/><feComposite operator="over" in2="SourceGraphic"/></filter>
<filter id="rough" x="-5%" y="-5%" width="110%" height="110%"><feTurbulence type="fractalNoise" baseFrequency="0.045" numOctaves="2" seed="7" result="n"/><feDisplacementMap in="SourceGraphic" in2="n" scale="2.6"/></filter>
<filter id="softblur" x="-20%" y="-20%" width="140%" height="140%"><feGaussianBlur stdDeviation="1.6"/></filter>
<filter id="aoblur" x="-30%" y="-30%" width="160%" height="160%"><feGaussianBlur stdDeviation="3.2"/></filter>
<filter id="mottle" x="0" y="0" width="100%" height="100%"><feTurbulence type="fractalNoise" baseFrequency="0.012" numOctaves="3" seed="4" stitchTiles="stitch"/><feColorMatrix type="matrix" values="0 0 0 0 0.24 0 0 0 0 0.18 0 0 0 0 0.10 0 0 0 0.5 0"/></filter>
<radialGradient id="vign" cx="0.5" cy="0.45" r="0.75"><stop offset="0.62" stop-color="#3b2e1e" stop-opacity="0"/><stop offset="1" stop-color="#3b2e1e" stop-opacity="0.16"/></radialGradient>
<clipPath id="clipgrid"><rect x="46" y="80" width="672" height="420"/></clipPath>
<clipPath id="clipheavy"><path d="M46 95.19L49.81 85.99L51.99 83.81L61.19 80L702.81 80L712.01 83.81L714.19 85.99L718 95.19L718 484.81L714.19 494.01L712.01 496.19L702.81 500L61.19 500L51.99 496.19L49.81 494.01L46 484.81ZM89.19 108L79.99 111.81L77.81 113.99L74 123.19L74 456.81L77.81 466.01L79.99 468.19L89.19 472L674.81 472L684.01 468.19L686.19 466.01L690 456.81L690 123.19L686.19 113.99L684.01 111.81L674.81 108Z" clip-rule="evenodd"/></clipPath>
<pattern id="t_earth" width="28" height="28" patternUnits="userSpaceOnUse"><rect width="28" height="28" fill="#b08d68"/><circle cx="6" cy="6" r="1.1" fill="#93714e"/><circle cx="18" cy="11" r="0.9" fill="#93714e"/><circle cx="24" cy="22" r="1.2" fill="#93714e"/><circle cx="9" cy="20" r="1" fill="#c8a87f"/><circle cx="22" cy="4" r="0.8" fill="#c8a87f"/><path d="M3 15q4-1.5 8 0" stroke="#a17d59" stroke-width="0.8" fill="none"/></pattern>
<pattern id="t_wall" width="28" height="28" patternUnits="userSpaceOnUse"><rect width="28" height="28" fill="#3f3931"/><path d="M-2 6l8-8M-2 14l16-16M-2 22l24-24M-2 30l32-32M6 30l24-24M14 30l16-16M22 30l8-8" stroke="#2b2620" stroke-width="1"/><circle cx="8" cy="18" r="1" fill="#554d42"/><circle cx="21" cy="7" r="0.9" fill="#554d42"/></pattern>
<symbol id="pr_bell" viewBox="0 0 28 28"><path d="M14 5c4 0 6 3 6 7 0 3 .8 4.6 2 5.6H6c1.2-1 2-2.6 2-5.6 0-4 2-7 6-7z" fill="#c9a13b" stroke="#6e5312" stroke-width="1.1"/><circle cx="14" cy="20.4" r="1.7" fill="#6e5312"/><circle cx="14" cy="4.6" r="1.3" fill="#6e5312"/><path d="M10.5 8.5q-1.3 2-1.3 4.5" stroke="#e8cd7e" stroke-width="0.9" fill="none"/></symbol>
<symbol id="pr_crane" viewBox="0 0 28 28"><path d="M7 23L12 6l5 17" stroke="#6e4b26" stroke-width="1.8" fill="none" stroke-linecap="round"/><path d="M9 16h6" stroke="#6e4b26" stroke-width="1.4"/><path d="M12 6l10 2.5" stroke="#6e4b26" stroke-width="1.6" stroke-linecap="round"/><path d="M21 8.3v8" stroke="#2f2415" stroke-width="0.8"/><path d="M19.8 16.3a1.2 1.2 0 1 0 2.4 0" stroke="#2f2415" stroke-width="1" fill="none"/></symbol>
<symbol id="pr_door" viewBox="0 0 28 28"><rect x="5" y="9.5" width="18" height="9" rx="1.4" fill="#8a6032" stroke="#2f2415" stroke-width="1.2"/><path d="M9.5 9.5v9M14 9.5v9M18.5 9.5v9" stroke="#6e4b26" stroke-width="1"/><circle cx="7.2" cy="14" r="0.9" fill="#2f2415"/><circle cx="20.8" cy="14" r="0.9" fill="#2f2415"/></symbol>
<symbol id="pr_fountain" viewBox="0 0 28 28"><circle cx="14" cy="14" r="10" fill="#b5ab98" stroke="#2f2415" stroke-width="1.2"/><circle cx="14" cy="14" r="7.5" fill="#7fb0c4"/><path d="M9 14q2.5-1.6 5 0t5 0" stroke="#d3e8ef" stroke-width="0.9" fill="none"/><circle cx="14" cy="14" r="2" fill="#b5ab98" stroke="#2f2415" stroke-width="0.8"/></symbol>
<symbol id="pr_rocks" viewBox="0 0 28 28"><path d="M5 16l3-5.5 5.5-1.5 3.5 4-1 5.5-7 2.5z" fill="#9b917f" stroke="#2f2415" stroke-width="1.1"/><path d="M8 10.5l5.5-1.5 1 4.5-6.5 2z" fill="#b0a692"/><path d="M16 19l2-4.5 5-1 2.5 4-3 4.5h-4.5z" fill="#8a8071" stroke="#2f2415" stroke-width="1"/><path d="M18 14.5l5-1 1.5 2.5-5.5 1z" fill="#a29885"/><circle cx="12" cy="21.5" r="1" fill="#6f6552"/><circle cx="20" cy="9" r="1.2" fill="#776b58"/></symbol>
<symbol id="pr_rocks_b" viewBox="0 0 28 28"><path d="M11 8l5.5 1 2.5 5-2.5 5-6 .5-2.5-5z" fill="#948a77" stroke="#2f2415" stroke-width="1.1"/><path d="M11 8l5.5 1 1 3.5-6 1z" fill="#aca28e"/><path d="M6 18.5l1.5-3.5 4-.5 1.5 3-1.5 3.5h-4z" fill="#8a8071" stroke="#2f2415" stroke-width="1"/><path d="M7.5 15l4-.5 1 2-4.5 1z" fill="#a29885"/><circle cx="19.5" cy="20.5" r="1.6" fill="#8a8071" stroke="#2f2415" stroke-width="0.8"/><circle cx="6.5" cy="9.5" r="1" fill="#776b58"/></symbol>
<symbol id="pr_statue" viewBox="0 0 28 28"><path d="M14 4l10 10-10 10L4 14z" fill="#8d8577" stroke="#2f2415" stroke-width="1.1"/><circle cx="14" cy="14" r="5.6" fill="#a99f8d" stroke="#6f675c" stroke-width="0.8"/><circle cx="14" cy="12.6" r="2" fill="#6f675c"/><path d="M10.8 16.8q3.2-2.4 6.4 0" stroke="#6f675c" stroke-width="1.6" fill="none"/></symbol>
<symbol id="pr_swords" viewBox="0 0 28 28"><path d="M7 5.8L21.4 20.2M21 5.8L6.6 20.2" stroke="#2f2415" stroke-width="3.8" stroke-linecap="round"/><path d="M7 5.8L21.4 20.2M21 5.8L6.6 20.2" stroke="#b9bfc4" stroke-width="2.2" stroke-linecap="round"/><path d="M6.2 10.4l4.2-4.2M17.6 6.2l4.2 4.2" stroke="#6e4b26" stroke-width="2"/><circle cx="6.4" cy="5.2" r="1.4" fill="#6e4b26"/><circle cx="21.6" cy="5.2" r="1.4" fill="#6e4b26"/></symbol>
<symbol id="pr_tower" viewBox="0 0 28 28"><circle cx="14" cy="14" r="10" fill="#8a8172" stroke="#2f2415" stroke-width="1.2"/><circle cx="14" cy="14" r="8.4" fill="none" stroke="#5f574a" stroke-width="2.4" stroke-dasharray="3.3 2.4"/><circle cx="14" cy="14" r="5.2" fill="#6f675a"/><circle cx="14" cy="14" r="2" fill="#3a332a"/></symbol>
<radialGradient id="g_1d6fd8" cx="0.35" cy="0.3" r="0.8"><stop offset="0" stop-color="#83b0ea"/><stop offset="0.55" stop-color="#1d6fd8"/><stop offset="1" stop-color="#13488c"/></radialGradient>
<radialGradient id="g_212529" cx="0.35" cy="0.3" r="0.8"><stop offset="0" stop-color="#858789"/><stop offset="0.55" stop-color="#212529"/><stop offset="1" stop-color="#15181b"/></radialGradient>
</defs>
<rect width="764" height="988" fill="#efe4c9" filter="url(#grain)"/>
<rect width="764" height="988" fill="url(#vign)"/>
<rect x="5" y="5" width="754" height="978" fill="none" stroke="#3b2e1e" stroke-width="0.8" opacity="0.8"/>
<rect x="9" y="9" width="746" height="970" fill="none" stroke="#3b2e1e" stroke-width="2" opacity="0.85"/>
<text x="46" y="34" font-size="19" font-weight="bold" fill="#3b2e1e" letter-spacing="0.5">CORTILE INTERNO — 36 m × 22,5 m (24 col × 15 righe · 1,5 m) · cielo aperto</text>
<text x="46" y="51" font-size="11" font-style="italic" fill="#7a6a50">24×15 quadretti · scala 1,5 m/quadretto</text>
<rect x="41" y="75" width="682" height="430" fill="#e6d9b8" stroke="#3b2e1e" stroke-width="1.6"/>
<g clip-path="url(#clipgrid)">
<path d="M74 123.19L77.81 113.99L79.99 111.81L89.19 108L674.81 108L684.01 111.81L686.19 113.99L690 123.19L690 456.81L686.19 466.01L684.01 468.19L674.81 472L89.19 472L79.99 468.19L77.81 466.01L74 456.81Z" fill="url(#t_earth)" fill-rule="evenodd" stroke="url(#t_earth)" stroke-width="2.4" stroke-linejoin="round"/>
<path d="M46 95.19L49.81 85.99L51.99 83.81L61.19 80L702.81 80L712.01 83.81L714.19 85.99L718 95.19L718 484.81L714.19 494.01L712.01 496.19L702.81 500L61.19 500L51.99 496.19L49.81 494.01L46 484.81ZM89.19 108L79.99 111.81L77.81 113.99L74 123.19L74 456.81L77.81 466.01L79.99 468.19L89.19 472L674.81 472L684.01 468.19L686.19 466.01L690 456.81L690 123.19L686.19 113.99L684.01 111.81L674.81 108Z" fill="none" stroke="#241c10" stroke-width="9" opacity="0.22" filter="url(#aoblur)"/>
<path d="M46 95.19L49.81 85.99L51.99 83.81L61.19 80L702.81 80L712.01 83.81L714.19 85.99L718 95.19L718 484.81L714.19 494.01L712.01 496.19L702.81 500L61.19 500L51.99 496.19L49.81 494.01L46 484.81ZM89.19 108L79.99 111.81L77.81 113.99L74 123.19L74 456.81L77.81 466.01L79.99 468.19L89.19 472L674.81 472L684.01 468.19L686.19 466.01L690 456.81L690 123.19L686.19 113.99L684.01 111.81L674.81 108Z" fill="#241c10" fill-rule="evenodd" opacity="0.28" filter="url(#softblur)" transform="translate(2.6,3.4)"/>
<path d="M46 95.19L49.81 85.99L51.99 83.81L61.19 80L702.81 80L712.01 83.81L714.19 85.99L718 95.19L718 484.81L714.19 494.01L712.01 496.19L702.81 500L61.19 500L51.99 496.19L49.81 494.01L46 484.81ZM89.19 108L79.99 111.81L77.81 113.99L74 123.19L74 456.81L77.81 466.01L79.99 468.19L89.19 472L674.81 472L684.01 468.19L686.19 466.01L690 456.81L690 123.19L686.19 113.99L684.01 111.81L674.81 108Z" fill="url(#t_wall)" fill-rule="evenodd" stroke="url(#t_wall)" stroke-width="2.4" stroke-linejoin="round"/>
<rect x="46" y="80" width="672" height="420" filter="url(#mottle)" opacity="0.35"/>
<path d="M74 123.19L77.81 113.99L79.99 111.81L89.19 108L674.81 108L684.01 111.81L686.19 113.99L690 123.19L690 456.81L686.19 466.01L684.01 468.19L674.81 472L89.19 472L79.99 468.19L77.81 466.01L74 456.81Z" fill="none" stroke="#7a6a50" stroke-width="0.9" opacity="0.5" stroke-linejoin="round" filter="url(#rough)"/>
<path d="M46 95.19L49.81 85.99L51.99 83.81L61.19 80L702.81 80L712.01 83.81L714.19 85.99L718 95.19L718 484.81L714.19 494.01L712.01 496.19L702.81 500L61.19 500L51.99 496.19L49.81 494.01L46 484.81ZM89.19 108L79.99 111.81L77.81 113.99L74 123.19L74 456.81L77.81 466.01L79.99 468.19L89.19 472L674.81 472L684.01 468.19L686.19 466.01L690 456.81L690 123.19L686.19 113.99L684.01 111.81L674.81 108Z" fill="none" stroke="#241c10" stroke-width="1.8" opacity="0.9" stroke-linejoin="round" filter="url(#rough)"/>
</g>
<path d="M74 80v420M102 80v420M130 80v420M158 80v420M214 80v420M242 80v420M270 80v420M298 80v420M354 80v420M382 80v420M410 80v420M438 80v420M494 80v420M522 80v420M550 80v420M578 80v420M634 80v420M662 80v420M690 80v420M718 80v420M46 108h672M46 136h672M46 164h672M46 192h672M46 248h672M46 276h672M46 304h672M46 332h672M46 388h672M46 416h672M46 444h672M46 472h672" stroke="#2e2313" stroke-width="0.6" opacity="0.3" fill="none"/>
<path d="M46 80v420M186 80v420M326 80v420M466 80v420M606 80v420M46 80h672M46 220h672M46 360h672M46 500h672" stroke="#2e2313" stroke-width="1.4" opacity="0.48" fill="none"/>
<g clip-path="url(#clipheavy)"><path d="M74 80v420M102 80v420M130 80v420M158 80v420M214 80v420M242 80v420M270 80v420M298 80v420M354 80v420M382 80v420M410 80v420M438 80v420M494 80v420M522 80v420M550 80v420M578 80v420M634 80v420M662 80v420M690 80v420M718 80v420M46 108h672M46 136h672M46 164h672M46 192h672M46 248h672M46 276h672M46 304h672M46 332h672M46 388h672M46 416h672M46 444h672M46 472h672" stroke="#efe4c9" stroke-width="0.6" opacity="0.16" fill="none"/><path d="M46 80v420M186 80v420M326 80v420M466 80v420M606 80v420M46 80h672M46 220h672M46 360h672M46 500h672" stroke="#efe4c9" stroke-width="1.4" opacity="0.26" fill="none"/></g>
<ellipse cx="117.0" cy="97.0" rx="9" ry="4.5" fill="#241c10" opacity="0.2"/>
<use href="#pr_door" x="102" y="80" width="28" height="28"/>
<ellipse cx="145.0" cy="97.0" rx="9" ry="4.5" fill="#241c10" opacity="0.2"/>
<use href="#pr_door" x="130" y="80" width="28" height="28"/>
<ellipse cx="173.0" cy="97.0" rx="9" ry="4.5" fill="#241c10" opacity="0.2"/>
<use href="#pr_door" x="158" y="80" width="28" height="28"/>
<ellipse cx="257.0" cy="97.0" rx="9" ry="4.5" fill="#241c10" opacity="0.2"/>
<use href="#pr_crane" x="242" y="80" width="28" height="28"/>
<ellipse cx="341.0" cy="97.0" rx="9" ry="4.5" fill="#241c10" opacity="0.2"/>
<use href="#pr_door" x="326" y="80" width="28" height="28"/>
<ellipse cx="453.0" cy="97.0" rx="9" ry="4.5" fill="#241c10" opacity="0.2"/>
<use href="#pr_tower" x="438" y="80" width="28" height="28"/>
<ellipse cx="565.0" cy="97.0" rx="9" ry="4.5" fill="#241c10" opacity="0.2"/>
<use href="#pr_crane" x="550" y="80" width="28" height="28"/>
<ellipse cx="453.0" cy="125.0" rx="9" ry="4.5" fill="#241c10" opacity="0.2"/>
<use href="#pr_bell" x="438" y="108" width="28" height="28"/>
<ellipse cx="537.0" cy="125.0" rx="9" ry="4.5" fill="#241c10" opacity="0.2"/>
<use href="#pr_statue" x="522" y="108" width="28" height="28"/>
<ellipse cx="649.4" cy="124.2" rx="10.36" ry="8.495199999999999" fill="#241c10" opacity="0.3"/>
<circle cx="648.0" cy="122.0" r="10.36" fill="url(#g_212529)" stroke="#241c10" stroke-width="1.6"/>
<circle cx="648.0" cy="122.0" r="7.959999999999999" fill="none" stroke="#ffffff" stroke-width="0.9" opacity="0.55"/>
<ellipse cx="173.0" cy="153.0" rx="9" ry="4.5" fill="#241c10" opacity="0.2"/>
<use href="#pr_rocks" x="158" y="136" width="28" height="28"/>
<ellipse cx="201.0" cy="153.0" rx="9" ry="4.5" fill="#241c10" opacity="0.2"/>
<use href="#pr_rocks_b" x="186" y="136" width="28" height="28"/>
<ellipse cx="537.0" cy="153.0" rx="9" ry="4.5" fill="#241c10" opacity="0.2"/>
<use href="#pr_rocks_b" x="522" y="136" width="28" height="28"/>
<ellipse cx="565.0" cy="153.0" rx="9" ry="4.5" fill="#241c10" opacity="0.2"/>
<use href="#pr_rocks" x="550" y="136" width="28" height="28"/>
<ellipse cx="341.0" cy="237.0" rx="9" ry="4.5" fill="#241c10" opacity="0.2"/>
<use href="#pr_swords" x="326" y="220" width="28" height="28"/>
<ellipse cx="369.0" cy="237.0" rx="9" ry="4.5" fill="#241c10" opacity="0.2"/>
<use href="#pr_swords" x="354" y="220" width="28" height="28"/>
<ellipse cx="397.0" cy="237.0" rx="9" ry="4.5" fill="#241c10" opacity="0.2"/>
<use href="#pr_swords" x="382" y="220" width="28" height="28"/>
<ellipse cx="593.0" cy="237.0" rx="9" ry="4.5" fill="#241c10" opacity="0.2"/>
<use href="#pr_fountain" x="578" y="220" width="28" height="28"/>
<ellipse cx="341.0" cy="265.0" rx="9" ry="4.5" fill="#241c10" opacity="0.2"/>
<use href="#pr_swords" x="326" y="248" width="28" height="28"/>
<ellipse cx="369.0" cy="265.0" rx="9" ry="4.5" fill="#241c10" opacity="0.2"/>
<use href="#pr_swords" x="354" y="248" width="28" height="28"/>
<ellipse cx="397.0" cy="265.0" rx="9" ry="4.5" fill="#241c10" opacity="0.2"/>
<use href="#pr_swords" x="382" y="248" width="28" height="28"/>
<ellipse cx="341.0" cy="293.0" rx="9" ry="4.5" fill="#241c10" opacity="0.2"/>
<use href="#pr_swords" x="326" y="276" width="28" height="28"/>
<ellipse cx="369.0" cy="293.0" rx="9" ry="4.5" fill="#241c10" opacity="0.2"/>
<use href="#pr_swords" x="354" y="276" width="28" height="28"/>
<ellipse cx="397.0" cy="293.0" rx="9" ry="4.5" fill="#241c10" opacity="0.2"/>
<use href="#pr_swords" x="382" y="276" width="28" height="28"/>
<ellipse cx="173.0" cy="321.0" rx="9" ry="4.5" fill="#241c10" opacity="0.2"/>
<use href="#pr_rocks" x="158" y="304" width="28" height="28"/>
<ellipse cx="201.0" cy="321.0" rx="9" ry="4.5" fill="#241c10" opacity="0.2"/>
<use href="#pr_rocks_b" x="186" y="304" width="28" height="28"/>
<ellipse cx="537.0" cy="321.0" rx="9" ry="4.5" fill="#241c10" opacity="0.2"/>
<use href="#pr_rocks_b" x="522" y="304" width="28" height="28"/>
<ellipse cx="565.0" cy="321.0" rx="9" ry="4.5" fill="#241c10" opacity="0.2"/>
<use href="#pr_rocks" x="550" y="304" width="28" height="28"/>
<ellipse cx="145.4" cy="432.2" rx="10.36" ry="8.495199999999999" fill="#241c10" opacity="0.3"/>
<circle cx="144.0" cy="430.0" r="10.36" fill="url(#g_1d6fd8)" stroke="#241c10" stroke-width="1.6"/>
<circle cx="144.0" cy="430.0" r="7.959999999999999" fill="none" stroke="#ffffff" stroke-width="0.9" opacity="0.55"/>
<ellipse cx="229.4" cy="432.2" rx="10.36" ry="8.495199999999999" fill="#241c10" opacity="0.3"/>
<circle cx="228.0" cy="430.0" r="10.36" fill="url(#g_1d6fd8)" stroke="#241c10" stroke-width="1.6"/>
<circle cx="228.0" cy="430.0" r="7.959999999999999" fill="none" stroke="#ffffff" stroke-width="0.9" opacity="0.55"/>
<ellipse cx="369.4" cy="432.2" rx="10.36" ry="8.495199999999999" fill="#241c10" opacity="0.3"/>
<circle cx="368.0" cy="430.0" r="10.36" fill="url(#g_1d6fd8)" stroke="#241c10" stroke-width="1.6"/>
<circle cx="368.0" cy="430.0" r="7.959999999999999" fill="none" stroke="#ffffff" stroke-width="0.9" opacity="0.55"/>
<ellipse cx="509.4" cy="432.2" rx="10.36" ry="8.495199999999999" fill="#241c10" opacity="0.3"/>
<circle cx="508.0" cy="430.0" r="10.36" fill="url(#g_1d6fd8)" stroke="#241c10" stroke-width="1.6"/>
<circle cx="508.0" cy="430.0" r="7.959999999999999" fill="none" stroke="#ffffff" stroke-width="0.9" opacity="0.55"/>
<ellipse cx="593.4" cy="432.2" rx="10.36" ry="8.495199999999999" fill="#241c10" opacity="0.3"/>
<circle cx="592.0" cy="430.0" r="10.36" fill="url(#g_1d6fd8)" stroke="#241c10" stroke-width="1.6"/>
<circle cx="592.0" cy="430.0" r="7.959999999999999" fill="none" stroke="#ffffff" stroke-width="0.9" opacity="0.55"/>
<ellipse cx="201.0" cy="489.0" rx="9" ry="4.5" fill="#241c10" opacity="0.2"/>
<use href="#pr_crane" x="186" y="472" width="28" height="28"/>
<ellipse cx="369.0" cy="489.0" rx="9" ry="4.5" fill="#241c10" opacity="0.2"/>
<use href="#pr_door" x="354" y="472" width="28" height="28"/>
<ellipse cx="397.0" cy="489.0" rx="9" ry="4.5" fill="#241c10" opacity="0.2"/>
<use href="#pr_door" x="382" y="472" width="28" height="28"/>
<ellipse cx="565.0" cy="489.0" rx="9" ry="4.5" fill="#241c10" opacity="0.2"/>
<use href="#pr_crane" x="550" y="472" width="28" height="28"/>
<text x="60.0" y="72" font-size="10" text-anchor="middle" fill="#7a6a50">A</text>
<text x="88.0" y="72" font-size="10" text-anchor="middle" fill="#7a6a50">B</text>
<text x="116.0" y="72" font-size="10" text-anchor="middle" fill="#7a6a50">C</text>
<text x="144.0" y="72" font-size="10" text-anchor="middle" fill="#7a6a50">D</text>
<text x="172.0" y="72" font-size="10" text-anchor="middle" fill="#7a6a50">E</text>
<text x="200.0" y="72" font-size="10" text-anchor="middle" fill="#7a6a50">F</text>
<text x="228.0" y="72" font-size="10" text-anchor="middle" fill="#7a6a50">G</text>
<text x="256.0" y="72" font-size="10" text-anchor="middle" fill="#7a6a50">H</text>
<text x="284.0" y="72" font-size="10" text-anchor="middle" fill="#7a6a50">I</text>
<text x="312.0" y="72" font-size="10" text-anchor="middle" fill="#7a6a50">J</text>
<text x="340.0" y="72" font-size="10" text-anchor="middle" fill="#7a6a50">K</text>
<text x="368.0" y="72" font-size="10" text-anchor="middle" fill="#7a6a50">L</text>
<text x="396.0" y="72" font-size="10" text-anchor="middle" fill="#7a6a50">M</text>
<text x="424.0" y="72" font-size="10" text-anchor="middle" fill="#7a6a50">N</text>
<text x="452.0" y="72" font-size="10" text-anchor="middle" fill="#7a6a50">O</text>
<text x="480.0" y="72" font-size="10" text-anchor="middle" fill="#7a6a50">P</text>
<text x="508.0" y="72" font-size="10" text-anchor="middle" fill="#7a6a50">Q</text>
<text x="536.0" y="72" font-size="10" text-anchor="middle" fill="#7a6a50">R</text>
<text x="564.0" y="72" font-size="10" text-anchor="middle" fill="#7a6a50">S</text>
<text x="592.0" y="72" font-size="10" text-anchor="middle" fill="#7a6a50">T</text>
<text x="620.0" y="72" font-size="10" text-anchor="middle" fill="#7a6a50">U</text>
<text x="648.0" y="72" font-size="10" text-anchor="middle" fill="#7a6a50">V</text>
<text x="676.0" y="72" font-size="10" text-anchor="middle" fill="#7a6a50">W</text>
<text x="704.0" y="72" font-size="10" text-anchor="middle" fill="#7a6a50">X</text>
<text x="37" y="97.0" font-size="10" text-anchor="end" fill="#7a6a50">04</text>
<text x="37" y="125.0" font-size="10" text-anchor="end" fill="#7a6a50">05</text>
<text x="37" y="153.0" font-size="10" text-anchor="end" fill="#7a6a50">06</text>
<text x="37" y="181.0" font-size="10" text-anchor="end" fill="#7a6a50">07</text>
<text x="37" y="209.0" font-size="10" text-anchor="end" fill="#7a6a50">08</text>
<text x="37" y="237.0" font-size="10" text-anchor="end" fill="#7a6a50">09</text>
<text x="37" y="265.0" font-size="10" text-anchor="end" fill="#7a6a50">10</text>
<text x="37" y="293.0" font-size="10" text-anchor="end" fill="#7a6a50">11</text>
<text x="37" y="321.0" font-size="10" text-anchor="end" fill="#7a6a50">12</text>
<text x="37" y="349.0" font-size="10" text-anchor="end" fill="#7a6a50">13</text>
<text x="37" y="377.0" font-size="10" text-anchor="end" fill="#7a6a50">14</text>
<text x="37" y="405.0" font-size="10" text-anchor="end" fill="#7a6a50">15</text>
<text x="37" y="433.0" font-size="10" text-anchor="end" fill="#7a6a50">16</text>
<text x="37" y="461.0" font-size="10" text-anchor="end" fill="#7a6a50">17</text>
<text x="37" y="489.0" font-size="10" text-anchor="end" fill="#7a6a50">18</text>
<circle cx="656.4" cy="113.6" r="7" fill="#1a140a" stroke="#ffffff" stroke-width="1.1"/>
<text x="656.4" y="117" font-size="9.5" font-weight="bold" text-anchor="middle" fill="#fff">1</text>
<circle cx="152.4" cy="421.6" r="7" fill="#1a140a" stroke="#ffffff" stroke-width="1.1"/>
<text x="152.4" y="425" font-size="9.5" font-weight="bold" text-anchor="middle" fill="#fff">2</text>
<circle cx="236.4" cy="421.6" r="7" fill="#1a140a" stroke="#ffffff" stroke-width="1.1"/>
<text x="236.4" y="425" font-size="9.5" font-weight="bold" text-anchor="middle" fill="#fff">3</text>
<circle cx="376.4" cy="421.6" r="7" fill="#1a140a" stroke="#ffffff" stroke-width="1.1"/>
<text x="376.4" y="425" font-size="9.5" font-weight="bold" text-anchor="middle" fill="#fff">4</text>
<circle cx="516.4" cy="421.6" r="7" fill="#1a140a" stroke="#ffffff" stroke-width="1.1"/>
<text x="516.4" y="425" font-size="9.5" font-weight="bold" text-anchor="middle" fill="#fff">5</text>
<circle cx="600.4" cy="421.6" r="7" fill="#1a140a" stroke="#ffffff" stroke-width="1.1"/>
<text x="600.4" y="425" font-size="9.5" font-weight="bold" text-anchor="middle" fill="#fff">6</text>
<g transform="translate(696,102) rotate(0)"><circle r="20" fill="#efe4c9" fill-opacity="0.82" stroke="#3b2e1e" stroke-width="1"/><path d="M0 -15L2.4 -2.4L15 0L2.4 2.4L0 15L-2.4 2.4L-15 0L-2.4 -2.4Z" fill="#7a6a50" opacity="0.5"/><path d="M0 -15L3.6 0L0 -3.3L-3.6 0Z" fill="#3b2e1e"/><text x="0" y="-21" font-size="11" font-weight="bold" text-anchor="middle" fill="#3b2e1e">N</text></g>
<rect x="46" y="519" width="28" height="7" fill="#3b2e1e" stroke="#3b2e1e" stroke-width="1"/>
<rect x="74" y="519" width="28" height="7" fill="#efe4c9" stroke="#3b2e1e" stroke-width="1"/>
<rect x="102" y="519" width="28" height="7" fill="#3b2e1e" stroke="#3b2e1e" stroke-width="1"/>
<rect x="130" y="519" width="28" height="7" fill="#efe4c9" stroke="#3b2e1e" stroke-width="1"/>
<rect x="158" y="519" width="28" height="7" fill="#3b2e1e" stroke="#3b2e1e" stroke-width="1"/>
<text x="196" y="527" font-size="11" fill="#3b2e1e">7,5 m (5 quadretti)</text>
<text x="46" y="554" font-size="12" font-weight="bold" fill="#3b2e1e" letter-spacing="2">INDICAZIONI</text>
<path d="M142 550H718" stroke="#7a6a50" stroke-width="0.7" opacity="0.7"/>
<circle cx="54" cy="567" r="7" fill="#1a140a" stroke="#fff" stroke-width="1"/>
<text x="54" y="570.4" font-size="9.5" font-weight="bold" text-anchor="middle" fill="#fff">1</text>
<text x="68" y="571" font-size="11" fill="#3b2e1e">V5 — Skullcrusher (quota ~45 m)</text>
<circle cx="54" cy="582" r="7" fill="#1a140a" stroke="#fff" stroke-width="1"/>
<text x="54" y="585.4" font-size="9.5" font-weight="bold" text-anchor="middle" fill="#fff">2</text>
<text x="68" y="586" font-size="11" fill="#3b2e1e">D16 — Thorik</text>
<circle cx="54" cy="597" r="7" fill="#1a140a" stroke="#fff" stroke-width="1"/>
<text x="54" y="600.4" font-size="9.5" font-weight="bold" text-anchor="middle" fill="#fff">3</text>
<text x="68" y="601" font-size="11" fill="#3b2e1e">G16 — Tordek</text>
<circle cx="54" cy="612" r="7" fill="#1a140a" stroke="#fff" stroke-width="1"/>
<text x="54" y="615.4" font-size="9.5" font-weight="bold" text-anchor="middle" fill="#fff">4</text>
<text x="68" y="616" font-size="11" fill="#3b2e1e">L16 — Re Thorek I (8 pf se la Scena 10 è andata male)</text>
<circle cx="54" cy="627" r="7" fill="#1a140a" stroke="#fff" stroke-width="1"/>
<text x="54" y="630.4" font-size="9.5" font-weight="bold" text-anchor="middle" fill="#fff">5</text>
<text x="68" y="631" font-size="11" fill="#3b2e1e">Q16 — Artemis</text>
<circle cx="54" cy="642" r="7" fill="#1a140a" stroke="#fff" stroke-width="1"/>
<text x="54" y="645.4" font-size="9.5" font-weight="bold" text-anchor="middle" fill="#fff">6</text>
<text x="68" y="646" font-size="11" fill="#3b2e1e">T16 — Hella, con Durik accanto</text>
<text x="46" y="680" font-size="12" font-weight="bold" fill="#3b2e1e" letter-spacing="2">LEGENDA</text>
<path d="M120 676H718" stroke="#7a6a50" stroke-width="0.7" opacity="0.7"/>
<rect x="46" y="686" width="19" height="15" fill="url(#t_wall)" stroke="#7a6a50" stroke-width="0.7"/>
<text x="73" y="698" font-size="11" fill="#3b2e1e">🏰 — Muro / roccia solida</text>
<rect x="46" y="708" width="19" height="15" fill="url(#t_earth)" stroke="#7a6a50" stroke-width="0.7"/>
<text x="73" y="720" font-size="11" fill="#3b2e1e">🟫 — Terra battuta / sentiero</text>
<circle cx="55" cy="738" r="7.5" fill="url(#g_212529)" stroke="#241c10" stroke-width="1.2"/>
<text x="73" y="742" font-size="11" fill="#3b2e1e">⚫ — Boss / comandante</text>
<circle cx="55" cy="760" r="7.5" fill="url(#g_1d6fd8)" stroke="#241c10" stroke-width="1.2"/>
<text x="73" y="764" font-size="11" fill="#3b2e1e">🔵 — PG / alleati</text>
<use href="#pr_bell" x="46" y="773" width="18" height="18"/>
<text x="73" y="786" font-size="11" fill="#3b2e1e">🔔 — Allarme / trappola sonora</text>
<use href="#pr_fountain" x="46" y="795" width="18" height="18"/>
<text x="73" y="808" font-size="11" fill="#3b2e1e">⛲ — Fontana o cisterna</text>
<use href="#pr_crane" x="46" y="817" width="18" height="18"/>
<text x="73" y="830" font-size="11" fill="#3b2e1e">🏗 — Gru o argano</text>
<use href="#pr_door" x="46" y="839" width="18" height="18"/>
<text x="73" y="852" font-size="11" fill="#3b2e1e">🚪 — Porta / ingresso</text>
<use href="#pr_rocks" x="46" y="861" width="18" height="18"/>
<text x="73" y="874" font-size="11" fill="#3b2e1e">🪨 — Rocce/macerie (copertura +4 CA, terreno difficile)</text>
<use href="#pr_statue" x="46" y="883" width="18" height="18"/>
<text x="73" y="896" font-size="11" fill="#3b2e1e">🗿 — Statua</text>
<use href="#pr_tower" x="46" y="905" width="18" height="18"/>
<text x="73" y="918" font-size="11" fill="#3b2e1e">🗼 — Torre / struttura alta</text>
<use href="#pr_swords" x="46" y="927" width="18" height="18"/>
<text x="73" y="940" font-size="11" fill="#3b2e1e">⚔ — Zona di scontro</text>
<!-- fonte: ARC07-MAPPE-DEFINITIVO.md · SVG generato da scripts/render_map_svg.py (stile pergamena) · non modificare a mano -->
</svg>