<svg xmlns="http://www.w3.org/2000/svg" width="820" height="1261" viewBox="0 0 820 1261" font-family="Georgia, 'Palatino Linotype', 'Times New Roman', serif">
<defs>
<filter id="grain" x="0" y="0" width="100%" height="100%"><feTurbulence type="fractalNoise" baseFrequency="0.8" numOctaves="2" seed="11" stitchTiles="stitch"/><feColorMatrix type="matrix" values="0 0 0 0 0.36 0 0 0 0 0.28 0 0 0 0 0.16 0 0 0 0.18 0"/><feComposite operator="over" in2="SourceGraphic"/></filter>
<filter id="rough" x="-5%" y="-5%" width="110%" height="110%"><feTurbulence type="fractalNoise" baseFrequency="0.045" numOctaves="2" seed="7" result="n"/><feDisplacementMap in="SourceGraphic" in2="n" scale="2.6"/></filter>
<filter id="softblur" x="-20%" y="-20%" width="140%" height="140%"><feGaussianBlur stdDeviation="1.6"/></filter>
<filter id="aoblur" x="-30%" y="-30%" width="160%" height="160%"><feGaussianBlur stdDeviation="3.2"/></filter>
<filter id="mottle" x="0" y="0" width="100%" height="100%"><feTurbulence type="fractalNoise" baseFrequency="0.012" numOctaves="3" seed="4" stitchTiles="stitch"/><feColorMatrix type="matrix" values="0 0 0 0 0.24 0 0 0 0 0.18 0 0 0 0 0.10 0 0 0 0.5 0"/></filter>
<radialGradient id="vign" cx="0.5" cy="0.45" r="0.75"><stop offset="0.62" stop-color="#3b2e1e" stop-opacity="0"/><stop offset="1" stop-color="#3b2e1e" stop-opacity="0.16"/></radialGradient>
<clipPath id="clipgrid"><rect x="46" y="80" width="728" height="560"/></clipPath>
<clipPath id="clipheavy"><path d="M382 317.58L385.81 309.99L387.99 307.81L395.58 304L396.42 304L404.01 307.81L406.19 309.99L410 317.58L410 318.42L406.19 326.01L404.01 328.19L396.42 332L395.58 332L387.99 328.19L385.81 326.01L382 318.42Z" clip-rule="evenodd"/></clipPath>
<pattern id="t_earth" width="28" height="28" patternUnits="userSpaceOnUse"><rect width="28" height="28" fill="#b08d68"/><circle cx="6" cy="6" r="1.1" fill="#93714e"/><circle cx="18" cy="11" r="0.9" fill="#93714e"/><circle cx="24" cy="22" r="1.2" fill="#93714e"/><circle cx="9" cy="20" r="1" fill="#c8a87f"/><circle cx="22" cy="4" r="0.8" fill="#c8a87f"/><path d="M3 15q4-1.5 8 0" stroke="#a17d59" stroke-width="0.8" fill="none"/></pattern>
<pattern id="t_grass" width="28" height="28" patternUnits="userSpaceOnUse"><rect width="28" height="28" fill="#b3c489"/><path d="M5 21q1.5-4 3-5M8 21q0-3 2-5M20 8q1.5-2.5 3-3.5" stroke="#94a76a" stroke-width="0.9" stroke-opacity="0.6" fill="none" stroke-linecap="round"/><circle cx="14" cy="16" r="0.9" fill="#c5d29b"/><circle cx="24" cy="24" r="0.8" fill="#c5d29b"/><circle cx="4" cy="7" r="0.8" fill="#a3b573"/><circle cx="25" cy="13" r="0.7" fill="#a3b573"/></pattern>
<pattern id="t_pillar" width="28" height="28" patternUnits="userSpaceOnUse"><rect width="28" height="28" fill="#8a67b5"/><path d="M9 0v28" stroke="#b697dd" stroke-width="3" stroke-opacity="0.7"/><path d="M20 0v28" stroke="#6d4c96" stroke-width="3" stroke-opacity="0.5"/></pattern>
<symbol id="pr_bones" viewBox="0 0 28 28"><path d="M8.5 8.5L19.5 19.5M19.5 8.5L8.5 19.5" stroke="#2f2415" stroke-width="4" stroke-linecap="round"/><path d="M8.5 8.5L19.5 19.5M19.5 8.5L8.5 19.5" stroke="#e8e2d2" stroke-width="2.4" stroke-linecap="round"/><g fill="#e8e2d2" stroke="#2f2415" stroke-width="0.6"><circle cx="7.2" cy="9.4" r="1.5"/><circle cx="9.4" cy="7.2" r="1.5"/><circle cx="20.8" cy="18.6" r="1.5"/><circle cx="18.6" cy="20.8" r="1.5"/><circle cx="18.6" cy="7.2" r="1.5"/><circle cx="20.8" cy="9.4" r="1.5"/><circle cx="9.4" cy="20.8" r="1.5"/><circle cx="7.2" cy="18.6" r="1.5"/></g></symbol>
<symbol id="pr_brazier" viewBox="0 0 28 28"><circle cx="14" cy="14" r="9" fill="#5a4a38" stroke="#2f2415" stroke-width="1.2"/><circle cx="14" cy="14" r="6.4" fill="#33291d"/><circle cx="14" cy="14" r="4.6" fill="#e2762d"/><circle cx="13.2" cy="13.4" r="2.8" fill="#f2a93b"/><circle cx="12.8" cy="13" r="1.4" fill="#f8d778"/></symbol>
<symbol id="pr_crown" viewBox="0 0 28 28"><path d="M6 19v-9l4 3.4L14 7l4 6.4 4-3.4v9z" fill="#e8b73a" stroke="#7e5b14" stroke-width="1.1"/><rect x="6" y="19" width="16" height="3" fill="#d3a127" stroke="#7e5b14" stroke-width="1"/><circle cx="10" cy="20.5" r="0.9" fill="#a33434"/><circle cx="14" cy="20.5" r="0.9" fill="#3d6a9e"/><circle cx="18" cy="20.5" r="0.9" fill="#a33434"/></symbol>
<symbol id="pr_door" viewBox="0 0 28 28"><rect x="5" y="9.5" width="18" height="9" rx="1.4" fill="#8a6032" stroke="#2f2415" stroke-width="1.2"/><path d="M9.5 9.5v9M14 9.5v9M18.5 9.5v9" stroke="#6e4b26" stroke-width="1"/><circle cx="7.2" cy="14" r="0.9" fill="#2f2415"/><circle cx="20.8" cy="14" r="0.9" fill="#2f2415"/></symbol>
<symbol id="pr_fire" viewBox="0 0 28 28"><path d="M14 4c4 5 7 8 7 13a7 7 0 0 1-14 0c0-5 3-8 7-13z" fill="#e2762d" stroke="#8a3c14" stroke-width="1"/><path d="M14 9c2.5 3.5 4.5 5.5 4.5 8.5a4.5 4.5 0 0 1-9 0c0-3 2-5 4.5-8.5z" fill="#f2a93b"/><path d="M14 14c1.3 1.8 2.3 2.8 2.3 4.4a2.3 2.3 0 0 1-4.6 0c0-1.6 1-2.6 2.3-4.4z" fill="#f8d778"/></symbol>
<symbol id="pr_rack" viewBox="0 0 28 28"><path d="M7 6v16M21 6v16" stroke="#6e4b26" stroke-width="2"/><path d="M6 9.5h16" stroke="#8a6032" stroke-width="2.2"/><path d="M11 8.5v13" stroke="#8f8574" stroke-width="1.4"/><path d="M11 5.6l1.6 3.2h-3.2z" fill="#9aa0a6" stroke="#4c5257" stroke-width="0.7"/><path d="M17 8.5v13" stroke="#8f8574" stroke-width="1.4"/><path d="M17 9c3 .4 3.6 3 2.6 4.6L17 12.4z" fill="#9aa0a6" stroke="#4c5257" stroke-width="0.7"/></symbol>
<symbol id="pr_table" viewBox="0 0 28 28"><rect x="11.5" y="4.5" width="5" height="3" rx="1" fill="#6e4b26" stroke="#2f2415" stroke-width="0.8"/><rect x="11.5" y="20.5" width="5" height="3" rx="1" fill="#6e4b26" stroke="#2f2415" stroke-width="0.8"/><rect x="8" y="8.5" width="12" height="11" rx="1" fill="#8a6a42" stroke="#2f2415" stroke-width="1.1"/><path d="M10 11h8M10 14h8M10 17h8" stroke="#6e4b26" stroke-width="0.7"/></symbol>
<symbol id="pr_tent" viewBox="0 0 28 28"><path d="M6 7l8-2 8 2v14l-8 2-8-2z" fill="#a8965f"/><path d="M14 5l8 2v14l-8 2z" fill="#8a7a50"/><path d="M14 5v18" stroke="#6f6144" stroke-width="1.4"/><path d="M6 7l8-2 8 2v14l-8 2-8-2z" fill="none" stroke="#2f2415" stroke-width="1.1"/><path d="M6 7L3.5 4.5M22 7l2.5-2.5M6 21l-2.5 2.5M22 21l2.5 2.5" stroke="#6f6144" stroke-width="0.8"/></symbol>
<radialGradient id="g_1d6fd8" cx="0.35" cy="0.3" r="0.8"><stop offset="0" stop-color="#83b0ea"/><stop offset="0.55" stop-color="#1d6fd8"/><stop offset="1" stop-color="#13488c"/></radialGradient>
<radialGradient id="g_212529" cx="0.35" cy="0.3" r="0.8"><stop offset="0" stop-color="#858789"/><stop offset="0.55" stop-color="#212529"/><stop offset="1" stop-color="#15181b"/></radialGradient>
<radialGradient id="g_2b9348" cx="0.35" cy="0.3" r="0.8"><stop offset="0" stop-color="#8ac49a"/><stop offset="0.55" stop-color="#2b9348"/><stop offset="1" stop-color="#1c602f"/></radialGradient>
<radialGradient id="g_d62828" cx="0.35" cy="0.3" r="0.8"><stop offset="0" stop-color="#e88989"/><stop offset="0.55" stop-color="#d62828"/><stop offset="1" stop-color="#8b1a1a"/></radialGradient>
<radialGradient id="g_f4b400" cx="0.35" cy="0.3" r="0.8"><stop offset="0" stop-color="#f9d673"/><stop offset="0.55" stop-color="#f4b400"/><stop offset="1" stop-color="#9f7500"/></radialGradient>
</defs>
<rect width="820" height="1261" fill="#efe4c9" filter="url(#grain)"/>
<rect width="820" height="1261" fill="url(#vign)"/>
<rect x="5" y="5" width="810" height="1251" fill="none" stroke="#3b2e1e" stroke-width="0.8" opacity="0.8"/>
<rect x="9" y="9" width="802" height="1243" fill="none" stroke="#3b2e1e" stroke-width="2" opacity="0.85"/>
<text x="46" y="34" font-size="19" font-weight="bold" fill="#3b2e1e" letter-spacing="0.5">M7-C — La tenda del comando di Zog'tar (notte, ≈372 DR)</text>
<text x="46" y="51" font-size="11" font-style="italic" fill="#7a6a50">26×20 quadretti · scala 1,5 m/quadretto</text>
<rect x="41" y="75" width="738" height="570" fill="#e6d9b8" stroke="#3b2e1e" stroke-width="1.6"/>
<g clip-path="url(#clipgrid)">
<path d="M46 95.19L49.81 85.99L51.99 83.81L61.19 80L758.81 80L768.01 83.81L770.19 85.99L774 95.19L774 624.81L770.19 634.01L768.01 636.19L758.81 640L61.19 640L51.99 636.19L49.81 634.01L46 624.81ZM283.58 220L275.99 223.81L273.81 225.99L270 235.19L270 428.81L273.81 438.01L275.99 440.19L285.19 444L562.81 444L572.01 440.19L574.19 438.01L578 428.81L578 207.19L574.19 197.99L572.01 195.81L562.81 192L313.19 192L303.99 195.81L301.81 197.99L298 205.58L298 206.42L294.19 214.01L292.01 216.19L284.42 220Z" fill="url(#t_grass)" fill-rule="evenodd" stroke="url(#t_grass)" stroke-width="2.4" stroke-linejoin="round"/>
<path d="M270 235.19L273.81 225.99L275.99 223.81L283.58 220L284.42 220L292.01 216.19L294.19 214.01L298 206.42L298 205.58L301.81 197.99L303.99 195.81L313.19 192L562.81 192L572.01 195.81L574.19 197.99L578 207.19L578 428.81L574.19 438.01L572.01 440.19L562.81 444L285.19 444L275.99 440.19L273.81 438.01L270 428.81ZM395.58 304L387.99 307.81L385.81 309.99L382 317.58L382 318.42L385.81 326.01L387.99 328.19L395.58 332L396.42 332L404.01 328.19L406.19 326.01L410 318.42L410 317.58L406.19 309.99L404.01 307.81L396.42 304Z" fill="url(#t_earth)" fill-rule="evenodd" stroke="url(#t_earth)" stroke-width="2.4" stroke-linejoin="round"/>
<path d="M382 317.58L385.81 309.99L387.99 307.81L395.58 304L396.42 304L404.01 307.81L406.19 309.99L410 317.58L410 318.42L406.19 326.01L404.01 328.19L396.42 332L395.58 332L387.99 328.19L385.81 326.01L382 318.42Z" fill="none" stroke="#241c10" stroke-width="9" opacity="0.22" filter="url(#aoblur)"/>
<path d="M382 317.58L385.81 309.99L387.99 307.81L395.58 304L396.42 304L404.01 307.81L406.19 309.99L410 317.58L410 318.42L406.19 326.01L404.01 328.19L396.42 332L395.58 332L387.99 328.19L385.81 326.01L382 318.42Z" fill="#241c10" fill-rule="evenodd" opacity="0.28" filter="url(#softblur)" transform="translate(2.6,3.4)"/>
<path d="M382 317.58L385.81 309.99L387.99 307.81L395.58 304L396.42 304L404.01 307.81L406.19 309.99L410 317.58L410 318.42L406.19 326.01L404.01 328.19L396.42 332L395.58 332L387.99 328.19L385.81 326.01L382 318.42Z" fill="url(#t_pillar)" fill-rule="evenodd" stroke="url(#t_pillar)" stroke-width="2.4" stroke-linejoin="round"/>
<rect x="46" y="80" width="728" height="560" filter="url(#mottle)" opacity="0.35"/>
<path d="M46 95.19L49.81 85.99L51.99 83.81L61.19 80L758.81 80L768.01 83.81L770.19 85.99L774 95.19L774 624.81L770.19 634.01L768.01 636.19L758.81 640L61.19 640L51.99 636.19L49.81 634.01L46 624.81ZM283.58 220L275.99 223.81L273.81 225.99L270 235.19L270 428.81L273.81 438.01L275.99 440.19L285.19 444L562.81 444L572.01 440.19L574.19 438.01L578 428.81L578 207.19L574.19 197.99L572.01 195.81L562.81 192L313.19 192L303.99 195.81L301.81 197.99L298 205.58L298 206.42L294.19 214.01L292.01 216.19L284.42 220Z" fill="none" stroke="#7a6a50" stroke-width="0.9" opacity="0.5" stroke-linejoin="round" filter="url(#rough)"/>
<path d="M270 235.19L273.81 225.99L275.99 223.81L283.58 220L284.42 220L292.01 216.19L294.19 214.01L298 206.42L298 205.58L301.81 197.99L303.99 195.81L313.19 192L562.81 192L572.01 195.81L574.19 197.99L578 207.19L578 428.81L574.19 438.01L572.01 440.19L562.81 444L285.19 444L275.99 440.19L273.81 438.01L270 428.81ZM395.58 304L387.99 307.81L385.81 309.99L382 317.58L382 318.42L385.81 326.01L387.99 328.19L395.58 332L396.42 332L404.01 328.19L406.19 326.01L410 318.42L410 317.58L406.19 309.99L404.01 307.81L396.42 304Z" fill="none" stroke="#7a6a50" stroke-width="0.9" opacity="0.5" stroke-linejoin="round" filter="url(#rough)"/>
<path d="M382 317.58L385.81 309.99L387.99 307.81L395.58 304L396.42 304L404.01 307.81L406.19 309.99L410 317.58L410 318.42L406.19 326.01L404.01 328.19L396.42 332L395.58 332L387.99 328.19L385.81 326.01L382 318.42Z" fill="none" stroke="#241c10" stroke-width="1.8" opacity="0.9" stroke-linejoin="round" filter="url(#rough)"/>
</g>
<path d="M74 80v560M102 80v560M130 80v560M158 80v560M214 80v560M242 80v560M270 80v560M298 80v560M354 80v560M382 80v560M410 80v560M438 80v560M494 80v560M522 80v560M550 80v560M578 80v560M634 80v560M662 80v560M690 80v560M718 80v560M774 80v560M46 108h728M46 136h728M46 164h728M46 192h728M46 248h728M46 276h728M46 304h728M46 332h728M46 388h728M46 416h728M46 444h728M46 472h728M46 528h728M46 556h728M46 584h728M46 612h728" stroke="#2e2313" stroke-width="0.6" opacity="0.3" fill="none"/>
<path d="M46 80v560M186 80v560M326 80v560M466 80v560M606 80v560M746 80v560M46 80h728M46 220h728M46 360h728M46 500h728M46 640h728" stroke="#2e2313" stroke-width="1.4" opacity="0.48" fill="none"/>
<g clip-path="url(#clipheavy)"><path d="M74 80v560M102 80v560M130 80v560M158 80v560M214 80v560M242 80v560M270 80v560M298 80v560M354 80v560M382 80v560M410 80v560M438 80v560M494 80v560M522 80v560M550 80v560M578 80v560M634 80v560M662 80v560M690 80v560M718 80v560M774 80v560M46 108h728M46 136h728M46 164h728M46 192h728M46 248h728M46 276h728M46 304h728M46 332h728M46 388h728M46 416h728M46 444h728M46 472h728M46 528h728M46 556h728M46 584h728M46 612h728" stroke="#efe4c9" stroke-width="0.6" opacity="0.16" fill="none"/><path d="M46 80v560M186 80v560M326 80v560M466 80v560M606 80v560M746 80v560M46 80h728M46 220h728M46 360h728M46 500h728M46 640h728" stroke="#efe4c9" stroke-width="1.4" opacity="0.26" fill="none"/></g>
<ellipse cx="341.4" cy="124.2" rx="10.36" ry="8.495199999999999" fill="#241c10" opacity="0.3"/>
<circle cx="340.0" cy="122.0" r="10.36" fill="url(#g_2b9348)" stroke="#241c10" stroke-width="1.6"/>
<circle cx="340.0" cy="122.0" r="7.959999999999999" fill="none" stroke="#ffffff" stroke-width="0.9" opacity="0.55"/>
<ellipse cx="369.4" cy="124.2" rx="10.36" ry="8.495199999999999" fill="#241c10" opacity="0.3"/>
<circle cx="368.0" cy="122.0" r="10.36" fill="url(#g_1d6fd8)" stroke="#241c10" stroke-width="1.6"/>
<circle cx="368.0" cy="122.0" r="7.959999999999999" fill="none" stroke="#ffffff" stroke-width="0.9" opacity="0.55"/>
<ellipse cx="397.4" cy="124.2" rx="10.36" ry="8.495199999999999" fill="#241c10" opacity="0.3"/>
<circle cx="396.0" cy="122.0" r="10.36" fill="url(#g_1d6fd8)" stroke="#241c10" stroke-width="1.6"/>
<circle cx="396.0" cy="122.0" r="7.959999999999999" fill="none" stroke="#ffffff" stroke-width="0.9" opacity="0.55"/>
<ellipse cx="425.4" cy="124.2" rx="10.36" ry="8.495199999999999" fill="#241c10" opacity="0.3"/>
<circle cx="424.0" cy="122.0" r="10.36" fill="url(#g_1d6fd8)" stroke="#241c10" stroke-width="1.6"/>
<circle cx="424.0" cy="122.0" r="7.959999999999999" fill="none" stroke="#ffffff" stroke-width="0.9" opacity="0.55"/>
<ellipse cx="453.4" cy="124.2" rx="10.36" ry="8.495199999999999" fill="#241c10" opacity="0.3"/>
<circle cx="452.0" cy="122.0" r="10.36" fill="url(#g_1d6fd8)" stroke="#241c10" stroke-width="1.6"/>
<circle cx="452.0" cy="122.0" r="7.959999999999999" fill="none" stroke="#ffffff" stroke-width="0.9" opacity="0.55"/>
<ellipse cx="145.0" cy="153.0" rx="9" ry="4.5" fill="#241c10" opacity="0.2"/>
<use href="#pr_tent" x="130" y="136" width="28" height="28"/>
<ellipse cx="117.0" cy="181.0" rx="9" ry="4.5" fill="#241c10" opacity="0.2"/>
<use href="#pr_tent" x="102" y="164" width="28" height="28"/>
<ellipse cx="145.0" cy="181.0" rx="9" ry="4.5" fill="#241c10" opacity="0.2"/>
<use href="#pr_tent" x="130" y="164" width="28" height="28"/>
<ellipse cx="173.0" cy="181.0" rx="9" ry="4.5" fill="#241c10" opacity="0.2"/>
<use href="#pr_tent" x="158" y="164" width="28" height="28"/>
<ellipse cx="257.0" cy="181.0" rx="9" ry="4.5" fill="#241c10" opacity="0.2"/>
<use href="#pr_tent" x="242" y="164" width="28" height="28"/>
<ellipse cx="285.0" cy="181.0" rx="9" ry="4.5" fill="#241c10" opacity="0.2"/>
<use href="#pr_tent" x="270" y="164" width="28" height="28"/>
<ellipse cx="313.0" cy="181.0" rx="9" ry="4.5" fill="#241c10" opacity="0.2"/>
<use href="#pr_tent" x="298" y="164" width="28" height="28"/>
<ellipse cx="341.0" cy="181.0" rx="9" ry="4.5" fill="#241c10" opacity="0.2"/>
<use href="#pr_tent" x="326" y="164" width="28" height="28"/>
<ellipse cx="369.0" cy="181.0" rx="9" ry="4.5" fill="#241c10" opacity="0.2"/>
<use href="#pr_tent" x="354" y="164" width="28" height="28"/>
<ellipse cx="397.0" cy="181.0" rx="9" ry="4.5" fill="#241c10" opacity="0.2"/>
<use href="#pr_door" x="382" y="164" width="28" height="28"/>
<ellipse cx="425.0" cy="181.0" rx="9" ry="4.5" fill="#241c10" opacity="0.2"/>
<use href="#pr_tent" x="410" y="164" width="28" height="28"/>
<ellipse cx="453.0" cy="181.0" rx="9" ry="4.5" fill="#241c10" opacity="0.2"/>
<use href="#pr_tent" x="438" y="164" width="28" height="28"/>
<ellipse cx="481.0" cy="181.0" rx="9" ry="4.5" fill="#241c10" opacity="0.2"/>
<use href="#pr_tent" x="466" y="164" width="28" height="28"/>
<ellipse cx="509.0" cy="181.0" rx="9" ry="4.5" fill="#241c10" opacity="0.2"/>
<use href="#pr_tent" x="494" y="164" width="28" height="28"/>
<ellipse cx="537.0" cy="181.0" rx="9" ry="4.5" fill="#241c10" opacity="0.2"/>
<use href="#pr_tent" x="522" y="164" width="28" height="28"/>
<ellipse cx="565.0" cy="181.0" rx="9" ry="4.5" fill="#241c10" opacity="0.2"/>
<use href="#pr_tent" x="550" y="164" width="28" height="28"/>
<ellipse cx="145.0" cy="209.0" rx="9" ry="4.5" fill="#241c10" opacity="0.2"/>
<use href="#pr_tent" x="130" y="192" width="28" height="28"/>
<ellipse cx="257.0" cy="209.0" rx="9" ry="4.5" fill="#241c10" opacity="0.2"/>
<use href="#pr_tent" x="242" y="192" width="28" height="28"/>
<ellipse cx="285.0" cy="209.0" rx="9" ry="4.5" fill="#241c10" opacity="0.2"/>
<use href="#pr_bones" x="270" y="192" width="28" height="28"/>
<ellipse cx="369.4" cy="208.2" rx="10.36" ry="8.495199999999999" fill="#241c10" opacity="0.3"/>
<circle cx="368.0" cy="206.0" r="10.36" fill="url(#g_d62828)" stroke="#241c10" stroke-width="1.6"/>
<circle cx="368.0" cy="206.0" r="7.959999999999999" fill="none" stroke="#ffffff" stroke-width="0.9" opacity="0.55"/>
<ellipse cx="425.4" cy="208.2" rx="10.36" ry="8.495199999999999" fill="#241c10" opacity="0.3"/>
<circle cx="424.0" cy="206.0" r="10.36" fill="url(#g_d62828)" stroke="#241c10" stroke-width="1.6"/>
<circle cx="424.0" cy="206.0" r="7.959999999999999" fill="none" stroke="#ffffff" stroke-width="0.9" opacity="0.55"/>
<ellipse cx="537.0" cy="209.0" rx="9" ry="4.5" fill="#241c10" opacity="0.2"/>
<use href="#pr_rack" x="522" y="192" width="28" height="28"/>
<ellipse cx="565.0" cy="209.0" rx="9" ry="4.5" fill="#241c10" opacity="0.2"/>
<use href="#pr_tent" x="550" y="192" width="28" height="28"/>
<ellipse cx="257.0" cy="237.0" rx="9" ry="4.5" fill="#241c10" opacity="0.2"/>
<use href="#pr_tent" x="242" y="220" width="28" height="28"/>
<ellipse cx="453.0" cy="237.0" rx="9" ry="4.5" fill="#241c10" opacity="0.2"/>
<use href="#pr_brazier" x="438" y="220" width="28" height="28"/>
<ellipse cx="565.0" cy="237.0" rx="9" ry="4.5" fill="#241c10" opacity="0.2"/>
<use href="#pr_tent" x="550" y="220" width="28" height="28"/>
<ellipse cx="257.0" cy="265.0" rx="9" ry="4.5" fill="#241c10" opacity="0.2"/>
<use href="#pr_tent" x="242" y="248" width="28" height="28"/>
<ellipse cx="565.0" cy="265.0" rx="9" ry="4.5" fill="#241c10" opacity="0.2"/>
<use href="#pr_tent" x="550" y="248" width="28" height="28"/>
<ellipse cx="257.0" cy="293.0" rx="9" ry="4.5" fill="#241c10" opacity="0.2"/>
<use href="#pr_tent" x="242" y="276" width="28" height="28"/>
<ellipse cx="313.0" cy="293.0" rx="9" ry="4.5" fill="#241c10" opacity="0.2"/>
<use href="#pr_table" x="298" y="276" width="28" height="28"/>
<ellipse cx="565.0" cy="293.0" rx="9" ry="4.5" fill="#241c10" opacity="0.2"/>
<use href="#pr_tent" x="550" y="276" width="28" height="28"/>
<ellipse cx="145.0" cy="321.0" rx="9" ry="4.5" fill="#241c10" opacity="0.2"/>
<use href="#pr_tent" x="130" y="304" width="28" height="28"/>
<ellipse cx="257.0" cy="321.0" rx="9" ry="4.5" fill="#241c10" opacity="0.2"/>
<use href="#pr_tent" x="242" y="304" width="28" height="28"/>
<ellipse cx="537.0" cy="321.0" rx="9" ry="4.5" fill="#241c10" opacity="0.2"/>
<use href="#pr_bones" x="522" y="304" width="28" height="28"/>
<ellipse cx="565.0" cy="321.0" rx="9" ry="4.5" fill="#241c10" opacity="0.2"/>
<use href="#pr_tent" x="550" y="304" width="28" height="28"/>
<ellipse cx="117.0" cy="349.0" rx="9" ry="4.5" fill="#241c10" opacity="0.2"/>
<use href="#pr_tent" x="102" y="332" width="28" height="28"/>
<ellipse cx="145.0" cy="349.0" rx="9" ry="4.5" fill="#241c10" opacity="0.2"/>
<use href="#pr_tent" x="130" y="332" width="28" height="28"/>
<ellipse cx="173.0" cy="349.0" rx="9" ry="4.5" fill="#241c10" opacity="0.2"/>
<use href="#pr_tent" x="158" y="332" width="28" height="28"/>
<ellipse cx="257.0" cy="349.0" rx="9" ry="4.5" fill="#241c10" opacity="0.2"/>
<use href="#pr_tent" x="242" y="332" width="28" height="28"/>
<ellipse cx="565.0" cy="349.0" rx="9" ry="4.5" fill="#241c10" opacity="0.2"/>
<use href="#pr_tent" x="550" y="332" width="28" height="28"/>
<ellipse cx="677.0" cy="349.0" rx="9" ry="4.5" fill="#241c10" opacity="0.2"/>
<use href="#pr_tent" x="662" y="332" width="28" height="28"/>
<ellipse cx="145.0" cy="377.0" rx="9" ry="4.5" fill="#241c10" opacity="0.2"/>
<use href="#pr_tent" x="130" y="360" width="28" height="28"/>
<ellipse cx="257.0" cy="377.0" rx="9" ry="4.5" fill="#241c10" opacity="0.2"/>
<use href="#pr_tent" x="242" y="360" width="28" height="28"/>
<ellipse cx="313.0" cy="377.0" rx="9" ry="4.5" fill="#241c10" opacity="0.2"/>
<use href="#pr_brazier" x="298" y="360" width="28" height="28"/>
<ellipse cx="397.4" cy="376.2" rx="10.36" ry="8.495199999999999" fill="#241c10" opacity="0.3"/>
<circle cx="396.0" cy="374.0" r="10.36" fill="url(#g_212529)" stroke="#241c10" stroke-width="1.6"/>
<circle cx="396.0" cy="374.0" r="7.959999999999999" fill="none" stroke="#ffffff" stroke-width="0.9" opacity="0.55"/>
<ellipse cx="425.4" cy="376.2" rx="10.36" ry="8.495199999999999" fill="#241c10" opacity="0.3"/>
<circle cx="424.0" cy="374.0" r="10.36" fill="url(#g_212529)" stroke="#241c10" stroke-width="1.6"/>
<circle cx="424.0" cy="374.0" r="7.959999999999999" fill="none" stroke="#ffffff" stroke-width="0.9" opacity="0.55"/>
<ellipse cx="565.0" cy="377.0" rx="9" ry="4.5" fill="#241c10" opacity="0.2"/>
<use href="#pr_tent" x="550" y="360" width="28" height="28"/>
<ellipse cx="649.0" cy="377.0" rx="9" ry="4.5" fill="#241c10" opacity="0.2"/>
<use href="#pr_tent" x="634" y="360" width="28" height="28"/>
<ellipse cx="677.0" cy="377.0" rx="9" ry="4.5" fill="#241c10" opacity="0.2"/>
<use href="#pr_tent" x="662" y="360" width="28" height="28"/>
<ellipse cx="705.0" cy="377.0" rx="9" ry="4.5" fill="#241c10" opacity="0.2"/>
<use href="#pr_tent" x="690" y="360" width="28" height="28"/>
<ellipse cx="257.0" cy="405.0" rx="9" ry="4.5" fill="#241c10" opacity="0.2"/>
<use href="#pr_tent" x="242" y="388" width="28" height="28"/>
<ellipse cx="341.4" cy="404.2" rx="10.36" ry="8.495199999999999" fill="#241c10" opacity="0.3"/>
<circle cx="340.0" cy="402.0" r="10.36" fill="url(#g_d62828)" stroke="#241c10" stroke-width="1.6"/>
<circle cx="340.0" cy="402.0" r="7.959999999999999" fill="none" stroke="#ffffff" stroke-width="0.9" opacity="0.55"/>
<ellipse cx="397.4" cy="404.2" rx="10.36" ry="8.495199999999999" fill="#241c10" opacity="0.3"/>
<circle cx="396.0" cy="402.0" r="10.36" fill="url(#g_212529)" stroke="#241c10" stroke-width="1.6"/>
<circle cx="396.0" cy="402.0" r="7.959999999999999" fill="none" stroke="#ffffff" stroke-width="0.9" opacity="0.55"/>
<ellipse cx="425.4" cy="404.2" rx="10.36" ry="8.495199999999999" fill="#241c10" opacity="0.3"/>
<circle cx="424.0" cy="402.0" r="10.36" fill="url(#g_212529)" stroke="#241c10" stroke-width="1.6"/>
<circle cx="424.0" cy="402.0" r="7.959999999999999" fill="none" stroke="#ffffff" stroke-width="0.9" opacity="0.55"/>
<ellipse cx="481.4" cy="404.2" rx="10.36" ry="8.495199999999999" fill="#241c10" opacity="0.3"/>
<circle cx="480.0" cy="402.0" r="10.36" fill="url(#g_d62828)" stroke="#241c10" stroke-width="1.6"/>
<circle cx="480.0" cy="402.0" r="7.959999999999999" fill="none" stroke="#ffffff" stroke-width="0.9" opacity="0.55"/>
<ellipse cx="565.0" cy="405.0" rx="9" ry="4.5" fill="#241c10" opacity="0.2"/>
<use href="#pr_tent" x="550" y="388" width="28" height="28"/>
<ellipse cx="677.0" cy="405.0" rx="9" ry="4.5" fill="#241c10" opacity="0.2"/>
<use href="#pr_tent" x="662" y="388" width="28" height="28"/>
<ellipse cx="257.0" cy="433.0" rx="9" ry="4.5" fill="#241c10" opacity="0.2"/>
<use href="#pr_tent" x="242" y="416" width="28" height="28"/>
<ellipse cx="397.0" cy="433.0" rx="9" ry="4.5" fill="#241c10" opacity="0.2"/>
<use href="#pr_crown" x="382" y="416" width="28" height="28"/>
<ellipse cx="537.4" cy="432.2" rx="10.36" ry="8.495199999999999" fill="#241c10" opacity="0.3"/>
<circle cx="536.0" cy="430.0" r="10.36" fill="url(#g_f4b400)" stroke="#241c10" stroke-width="1.6"/>
<circle cx="536.0" cy="430.0" r="7.959999999999999" fill="none" stroke="#ffffff" stroke-width="0.9" opacity="0.55"/>
<ellipse cx="565.0" cy="433.0" rx="9" ry="4.5" fill="#241c10" opacity="0.2"/>
<use href="#pr_tent" x="550" y="416" width="28" height="28"/>
<ellipse cx="201.0" cy="461.0" rx="9" ry="4.5" fill="#241c10" opacity="0.2"/>
<use href="#pr_fire" x="186" y="444" width="28" height="28"/>
<ellipse cx="257.0" cy="461.0" rx="9" ry="4.5" fill="#241c10" opacity="0.2"/>
<use href="#pr_tent" x="242" y="444" width="28" height="28"/>
<ellipse cx="285.0" cy="461.0" rx="9" ry="4.5" fill="#241c10" opacity="0.2"/>
<use href="#pr_tent" x="270" y="444" width="28" height="28"/>
<ellipse cx="313.0" cy="461.0" rx="9" ry="4.5" fill="#241c10" opacity="0.2"/>
<use href="#pr_tent" x="298" y="444" width="28" height="28"/>
<ellipse cx="341.0" cy="461.0" rx="9" ry="4.5" fill="#241c10" opacity="0.2"/>
<use href="#pr_tent" x="326" y="444" width="28" height="28"/>
<ellipse cx="369.0" cy="461.0" rx="9" ry="4.5" fill="#241c10" opacity="0.2"/>
<use href="#pr_tent" x="354" y="444" width="28" height="28"/>
<ellipse cx="397.0" cy="461.0" rx="9" ry="4.5" fill="#241c10" opacity="0.2"/>
<use href="#pr_tent" x="382" y="444" width="28" height="28"/>
<ellipse cx="425.0" cy="461.0" rx="9" ry="4.5" fill="#241c10" opacity="0.2"/>
<use href="#pr_tent" x="410" y="444" width="28" height="28"/>
<ellipse cx="453.0" cy="461.0" rx="9" ry="4.5" fill="#241c10" opacity="0.2"/>
<use href="#pr_tent" x="438" y="444" width="28" height="28"/>
<ellipse cx="481.0" cy="461.0" rx="9" ry="4.5" fill="#241c10" opacity="0.2"/>
<use href="#pr_tent" x="466" y="444" width="28" height="28"/>
<ellipse cx="509.0" cy="461.0" rx="9" ry="4.5" fill="#241c10" opacity="0.2"/>
<use href="#pr_tent" x="494" y="444" width="28" height="28"/>
<ellipse cx="537.0" cy="461.0" rx="9" ry="4.5" fill="#241c10" opacity="0.2"/>
<use href="#pr_tent" x="522" y="444" width="28" height="28"/>
<ellipse cx="565.0" cy="461.0" rx="9" ry="4.5" fill="#241c10" opacity="0.2"/>
<use href="#pr_tent" x="550" y="444" width="28" height="28"/>
<ellipse cx="649.0" cy="461.0" rx="9" ry="4.5" fill="#241c10" opacity="0.2"/>
<use href="#pr_fire" x="634" y="444" width="28" height="28"/>
<ellipse cx="145.0" cy="517.0" rx="9" ry="4.5" fill="#241c10" opacity="0.2"/>
<use href="#pr_tent" x="130" y="500" width="28" height="28"/>
<ellipse cx="677.0" cy="517.0" rx="9" ry="4.5" fill="#241c10" opacity="0.2"/>
<use href="#pr_tent" x="662" y="500" width="28" height="28"/>
<ellipse cx="117.0" cy="545.0" rx="9" ry="4.5" fill="#241c10" opacity="0.2"/>
<use href="#pr_tent" x="102" y="528" width="28" height="28"/>
<ellipse cx="145.0" cy="545.0" rx="9" ry="4.5" fill="#241c10" opacity="0.2"/>
<use href="#pr_tent" x="130" y="528" width="28" height="28"/>
<ellipse cx="173.0" cy="545.0" rx="9" ry="4.5" fill="#241c10" opacity="0.2"/>
<use href="#pr_tent" x="158" y="528" width="28" height="28"/>
<ellipse cx="313.0" cy="545.0" rx="9" ry="4.5" fill="#241c10" opacity="0.2"/>
<use href="#pr_tent" x="298" y="528" width="28" height="28"/>
<ellipse cx="509.0" cy="545.0" rx="9" ry="4.5" fill="#241c10" opacity="0.2"/>
<use href="#pr_tent" x="494" y="528" width="28" height="28"/>
<ellipse cx="649.0" cy="545.0" rx="9" ry="4.5" fill="#241c10" opacity="0.2"/>
<use href="#pr_tent" x="634" y="528" width="28" height="28"/>
<ellipse cx="677.0" cy="545.0" rx="9" ry="4.5" fill="#241c10" opacity="0.2"/>
<use href="#pr_tent" x="662" y="528" width="28" height="28"/>
<ellipse cx="705.0" cy="545.0" rx="9" ry="4.5" fill="#241c10" opacity="0.2"/>
<use href="#pr_tent" x="690" y="528" width="28" height="28"/>
<ellipse cx="145.0" cy="573.0" rx="9" ry="4.5" fill="#241c10" opacity="0.2"/>
<use href="#pr_tent" x="130" y="556" width="28" height="28"/>
<ellipse cx="285.0" cy="573.0" rx="9" ry="4.5" fill="#241c10" opacity="0.2"/>
<use href="#pr_tent" x="270" y="556" width="28" height="28"/>
<ellipse cx="313.0" cy="573.0" rx="9" ry="4.5" fill="#241c10" opacity="0.2"/>
<use href="#pr_tent" x="298" y="556" width="28" height="28"/>
<ellipse cx="341.0" cy="573.0" rx="9" ry="4.5" fill="#241c10" opacity="0.2"/>
<use href="#pr_tent" x="326" y="556" width="28" height="28"/>
<ellipse cx="481.0" cy="573.0" rx="9" ry="4.5" fill="#241c10" opacity="0.2"/>
<use href="#pr_tent" x="466" y="556" width="28" height="28"/>
<ellipse cx="509.0" cy="573.0" rx="9" ry="4.5" fill="#241c10" opacity="0.2"/>
<use href="#pr_tent" x="494" y="556" width="28" height="28"/>
<ellipse cx="537.0" cy="573.0" rx="9" ry="4.5" fill="#241c10" opacity="0.2"/>
<use href="#pr_tent" x="522" y="556" width="28" height="28"/>
<ellipse cx="677.0" cy="573.0" rx="9" ry="4.5" fill="#241c10" opacity="0.2"/>
<use href="#pr_tent" x="662" y="556" width="28" height="28"/>
<ellipse cx="313.0" cy="601.0" rx="9" ry="4.5" fill="#241c10" opacity="0.2"/>
<use href="#pr_tent" x="298" y="584" width="28" height="28"/>
<ellipse cx="509.0" cy="601.0" rx="9" ry="4.5" fill="#241c10" opacity="0.2"/>
<use href="#pr_tent" x="494" y="584" width="28" height="28"/>
<text x="60.0" y="72" font-size="10" text-anchor="middle" fill="#7a6a50">A</text>
<text x="88.0" y="72" font-size="10" text-anchor="middle" fill="#7a6a50">B</text>
<text x="116.0" y="72" font-size="10" text-anchor="middle" fill="#7a6a50">C</text>
<text x="144.0" y="72" font-size="10" text-anchor="middle" fill="#7a6a50">D</text>
<text x="172.0" y="72" font-size="10" text-anchor="middle" fill="#7a6a50">E</text>
<text x="200.0" y="72" font-size="10" text-anchor="middle" fill="#7a6a50">F</text>
<text x="228.0" y="72" font-size="10" text-anchor="middle" fill="#7a6a50">G</text>
<text x="256.0" y="72" font-size="10" text-anchor="middle" fill="#7a6a50">H</text>
<text x="284.0" y="72" font-size="10" text-anchor="middle" fill="#7a6a50">I</text>
<text x="312.0" y="72" font-size="10" text-anchor="middle" fill="#7a6a50">J</text>
<text x="340.0" y="72" font-size="10" text-anchor="middle" fill="#7a6a50">K</text>
<text x="368.0" y="72" font-size="10" text-anchor="middle" fill="#7a6a50">L</text>
<text x="396.0" y="72" font-size="10" text-anchor="middle" fill="#7a6a50">M</text>
<text x="424.0" y="72" font-size="10" text-anchor="middle" fill="#7a6a50">N</text>
<text x="452.0" y="72" font-size="10" text-anchor="middle" fill="#7a6a50">O</text>
<text x="480.0" y="72" font-size="10" text-anchor="middle" fill="#7a6a50">P</text>
<text x="508.0" y="72" font-size="10" text-anchor="middle" fill="#7a6a50">Q</text>
<text x="536.0" y="72" font-size="10" text-anchor="middle" fill="#7a6a50">R</text>
<text x="564.0" y="72" font-size="10" text-anchor="middle" fill="#7a6a50">S</text>
<text x="592.0" y="72" font-size="10" text-anchor="middle" fill="#7a6a50">T</text>
<text x="620.0" y="72" font-size="10" text-anchor="middle" fill="#7a6a50">U</text>
<text x="648.0" y="72" font-size="10" text-anchor="middle" fill="#7a6a50">V</text>
<text x="676.0" y="72" font-size="10" text-anchor="middle" fill="#7a6a50">W</text>
<text x="704.0" y="72" font-size="10" text-anchor="middle" fill="#7a6a50">X</text>
<text x="732.0" y="72" font-size="10" text-anchor="middle" fill="#7a6a50">Y</text>
<text x="760.0" y="72" font-size="10" text-anchor="middle" fill="#7a6a50">Z</text>
<text x="37" y="97.0" font-size="10" text-anchor="end" fill="#7a6a50">01</text>
<text x="37" y="125.0" font-size="10" text-anchor="end" fill="#7a6a50">02</text>
<text x="37" y="153.0" font-size="10" text-anchor="end" fill="#7a6a50">03</text>
<text x="37" y="181.0" font-size="10" text-anchor="end" fill="#7a6a50">04</text>
<text x="37" y="209.0" font-size="10" text-anchor="end" fill="#7a6a50">05</text>
<text x="37" y="237.0" font-size="10" text-anchor="end" fill="#7a6a50">06</text>
<text x="37" y="265.0" font-size="10" text-anchor="end" fill="#7a6a50">07</text>
<text x="37" y="293.0" font-size="10" text-anchor="end" fill="#7a6a50">08</text>
<text x="37" y="321.0" font-size="10" text-anchor="end" fill="#7a6a50">09</text>
<text x="37" y="349.0" font-size="10" text-anchor="end" fill="#7a6a50">10</text>
<text x="37" y="377.0" font-size="10" text-anchor="end" fill="#7a6a50">11</text>
<text x="37" y="405.0" font-size="10" text-anchor="end" fill="#7a6a50">12</text>
<text x="37" y="433.0" font-size="10" text-anchor="end" fill="#7a6a50">13</text>
<text x="37" y="461.0" font-size="10" text-anchor="end" fill="#7a6a50">14</text>
<text x="37" y="489.0" font-size="10" text-anchor="end" fill="#7a6a50">15</text>
<text x="37" y="517.0" font-size="10" text-anchor="end" fill="#7a6a50">16</text>
<text x="37" y="545.0" font-size="10" text-anchor="end" fill="#7a6a50">17</text>
<text x="37" y="573.0" font-size="10" text-anchor="end" fill="#7a6a50">18</text>
<text x="37" y="601.0" font-size="10" text-anchor="end" fill="#7a6a50">19</text>
<text x="37" y="629.0" font-size="10" text-anchor="end" fill="#7a6a50">20</text>
<path d="M760 262L620 150L424 150" fill="none" stroke="#ffffff" stroke-width="3.6" opacity="0.55" stroke-linejoin="round" stroke-linecap="round"/>
<path d="M760 262L620 150L424 150" fill="none" stroke="#d62828" stroke-width="2" stroke-dasharray="7 4" stroke-linejoin="round" stroke-linecap="round"/>
<circle cx="760" cy="262" r="3.4" fill="#d62828" stroke="#ffffff" stroke-width="1"/>
<path d="M424 150L430.06 146.5L430.06 153.5Z" fill="#d62828"/>
<circle cx="432.4" cy="113.6" r="7" fill="#1a140a" stroke="#ffffff" stroke-width="1.1"/>
<text x="432.4" y="117" font-size="9.5" font-weight="bold" text-anchor="middle" fill="#fff">1</text>
<circle cx="348.4" cy="113.6" r="7" fill="#1a140a" stroke="#ffffff" stroke-width="1.1"/>
<text x="348.4" y="117" font-size="9.5" font-weight="bold" text-anchor="middle" fill="#fff">2</text>
<circle cx="432.4" cy="393.6" r="7" fill="#1a140a" stroke="#ffffff" stroke-width="1.1"/>
<text x="432.4" y="397" font-size="9.5" font-weight="bold" text-anchor="middle" fill="#fff">3</text>
<circle cx="544.4" cy="421.6" r="7" fill="#1a140a" stroke="#ffffff" stroke-width="1.1"/>
<text x="544.4" y="425" font-size="9.5" font-weight="bold" text-anchor="middle" fill="#fff">4</text>
<circle cx="348.4" cy="393.6" r="7" fill="#1a140a" stroke="#ffffff" stroke-width="1.1"/>
<text x="348.4" y="397" font-size="9.5" font-weight="bold" text-anchor="middle" fill="#fff">5</text>
<circle cx="488.4" cy="393.6" r="7" fill="#1a140a" stroke="#ffffff" stroke-width="1.1"/>
<text x="488.4" y="397" font-size="9.5" font-weight="bold" text-anchor="middle" fill="#fff">6</text>
<circle cx="376.4" cy="197.6" r="7" fill="#1a140a" stroke="#ffffff" stroke-width="1.1"/>
<text x="376.4" y="201" font-size="9.5" font-weight="bold" text-anchor="middle" fill="#fff">7</text>
<circle cx="432.4" cy="197.6" r="7" fill="#1a140a" stroke="#ffffff" stroke-width="1.1"/>
<text x="432.4" y="201" font-size="9.5" font-weight="bold" text-anchor="middle" fill="#fff">8</text>
<g transform="translate(752,102) rotate(0)"><circle r="20" fill="#efe4c9" fill-opacity="0.82" stroke="#3b2e1e" stroke-width="1"/><path d="M0 -15L2.4 -2.4L15 0L2.4 2.4L0 15L-2.4 2.4L-15 0L-2.4 -2.4Z" fill="#7a6a50" opacity="0.5"/><path d="M0 -15L3.6 0L0 -3.3L-3.6 0Z" fill="#3b2e1e"/><text x="0" y="-21" font-size="11" font-weight="bold" text-anchor="middle" fill="#3b2e1e">N</text></g>
<rect x="46" y="659" width="28" height="7" fill="#3b2e1e" stroke="#3b2e1e" stroke-width="1"/>
<rect x="74" y="659" width="28" height="7" fill="#efe4c9" stroke="#3b2e1e" stroke-width="1"/>
<rect x="102" y="659" width="28" height="7" fill="#3b2e1e" stroke="#3b2e1e" stroke-width="1"/>
<rect x="130" y="659" width="28" height="7" fill="#efe4c9" stroke="#3b2e1e" stroke-width="1"/>
<rect x="158" y="659" width="28" height="7" fill="#3b2e1e" stroke="#3b2e1e" stroke-width="1"/>
<text x="196" y="667" font-size="11" fill="#3b2e1e">7,5 m (5 quadretti)</text>
<text x="46" y="694" font-size="12" font-weight="bold" fill="#3b2e1e" letter-spacing="2">INDICAZIONI</text>
<path d="M142 690H774" stroke="#7a6a50" stroke-width="0.7" opacity="0.7"/>
<circle cx="54" cy="707" r="7" fill="#1a140a" stroke="#fff" stroke-width="1"/>
<text x="54" y="710.4" font-size="9.5" font-weight="bold" text-anchor="middle" fill="#fff">1</text>
<text x="68" y="711" font-size="11" fill="#3b2e1e">N2 — I quattro, invisibili (Scena 6)</text>
<circle cx="54" cy="722" r="7" fill="#1a140a" stroke="#fff" stroke-width="1"/>
<text x="54" y="725.4" font-size="9.5" font-weight="bold" text-anchor="middle" fill="#fff">2</text>
<text x="68" y="726" font-size="11" fill="#3b2e1e">K2 — Durik</text>
<circle cx="54" cy="737" r="7" fill="#1a140a" stroke="#fff" stroke-width="1"/>
<text x="54" y="740.4" font-size="9.5" font-weight="bold" text-anchor="middle" fill="#fff">3</text>
<text x="68" y="741" font-size="11" fill="#3b2e1e">N12 — Zog'tar Deatheye (Grande) (GS 14)</text>
<circle cx="54" cy="752" r="7" fill="#1a140a" stroke="#fff" stroke-width="1"/>
<text x="54" y="755.4" font-size="9.5" font-weight="bold" text-anchor="middle" fill="#fff">4</text>
<text x="68" y="756" font-size="11" fill="#3b2e1e">R13 — Balvar Fuocospento, nell'angolo buio (GS 13)</text>
<circle cx="54" cy="767" r="7" fill="#1a140a" stroke="#fff" stroke-width="1"/>
<text x="54" y="770.4" font-size="9.5" font-weight="bold" text-anchor="middle" fill="#fff">5</text>
<text x="68" y="771" font-size="11" fill="#3b2e1e">K12 — Guardia hobgoblin (Guerriero 8)</text>
<circle cx="54" cy="782" r="7" fill="#1a140a" stroke="#fff" stroke-width="1"/>
<text x="54" y="785.4" font-size="9.5" font-weight="bold" text-anchor="middle" fill="#fff">6</text>
<text x="68" y="786" font-size="11" fill="#3b2e1e">P12 — Guardia hobgoblin (Guerriero 8)</text>
<circle cx="54" cy="797" r="7" fill="#1a140a" stroke="#fff" stroke-width="1"/>
<text x="54" y="800.4" font-size="9.5" font-weight="bold" text-anchor="middle" fill="#fff">7</text>
<text x="68" y="801" font-size="11" fill="#3b2e1e">L5 — Guardia hobgoblin (Guerriero 8)</text>
<circle cx="54" cy="812" r="7" fill="#1a140a" stroke="#fff" stroke-width="1"/>
<text x="54" y="815.4" font-size="9.5" font-weight="bold" text-anchor="middle" fill="#fff">8</text>
<text x="68" y="816" font-size="11" fill="#3b2e1e">N5 — Guardia hobgoblin (Guerriero 8)</text>
<line x1="46" y1="827" x2="62" y2="827" stroke="#d62828" stroke-width="2" stroke-dasharray="6 3"/>
<path d="M64 827L59.67 829.5L59.67 824.5Z" fill="#d62828"/>
<text x="70" y="831" font-size="11" fill="#3b2e1e">Il corridore hobgoblin (complicazione 6 della Scena 6): Z7 → U3 → N3</text>
<text x="46" y="865" font-size="12" font-weight="bold" fill="#3b2e1e" letter-spacing="2">LEGENDA</text>
<path d="M120 861H774" stroke="#7a6a50" stroke-width="0.7" opacity="0.7"/>
<rect x="46" y="871" width="19" height="15" fill="url(#t_grass)" stroke="#7a6a50" stroke-width="0.7"/>
<text x="73" y="883" font-size="11" fill="#3b2e1e">🟩 — Pianura / area aperta</text>
<rect x="46" y="893" width="19" height="15" fill="url(#t_pillar)" stroke="#7a6a50" stroke-width="0.7"/>
<text x="73" y="905" font-size="11" fill="#3b2e1e">🟪 — Pilastro / mithral</text>
<rect x="46" y="915" width="19" height="15" fill="url(#t_earth)" stroke="#7a6a50" stroke-width="0.7"/>
<text x="73" y="927" font-size="11" fill="#3b2e1e">🟫 — Terra battuta / sentiero</text>
<circle cx="55" cy="945" r="7.5" fill="url(#g_212529)" stroke="#241c10" stroke-width="1.2"/>
<text x="73" y="949" font-size="11" fill="#3b2e1e">⚫ — Boss / comandante</text>
<circle cx="55" cy="967" r="7.5" fill="url(#g_2b9348)" stroke="#241c10" stroke-width="1.2"/>
<text x="73" y="971" font-size="11" fill="#3b2e1e">🟢 — Creatura evocata / bestia</text>
<circle cx="55" cy="989" r="7.5" fill="url(#g_f4b400)" stroke="#241c10" stroke-width="1.2"/>
<text x="73" y="993" font-size="11" fill="#3b2e1e">🟡 — Incantatore nemico</text>
<circle cx="55" cy="1011" r="7.5" fill="url(#g_d62828)" stroke="#241c10" stroke-width="1.2"/>
<text x="73" y="1015" font-size="11" fill="#3b2e1e">🔴 — Nemico standard</text>
<circle cx="55" cy="1033" r="7.5" fill="url(#g_1d6fd8)" stroke="#241c10" stroke-width="1.2"/>
<text x="73" y="1037" font-size="11" fill="#3b2e1e">🔵 — PG / alleati</text>
<use href="#pr_brazier" x="46" y="1046" width="18" height="18"/>
<text x="73" y="1059" font-size="11" fill="#3b2e1e">🏮 — Braciere / fonte di luce</text>
<use href="#pr_fire" x="46" y="1068" width="18" height="18"/>
<text x="73" y="1081" font-size="11" fill="#3b2e1e">🔥 — Fuoco (1d6 fuoco/round)</text>
<use href="#pr_bones" x="46" y="1090" width="18" height="18"/>
<text x="73" y="1103" font-size="11" fill="#3b2e1e">🦴 — Ossa / resti</text>
<use href="#pr_door" x="46" y="1112" width="18" height="18"/>
<text x="73" y="1125" font-size="11" fill="#3b2e1e">🚪 — Porta / ingresso</text>
<use href="#pr_rack" x="46" y="1134" width="18" height="18"/>
<text x="73" y="1147" font-size="11" fill="#3b2e1e">🪓 — Rastrelliera / armi</text>
<use href="#pr_table" x="46" y="1156" width="18" height="18"/>
<text x="73" y="1169" font-size="11" fill="#3b2e1e">🪑 — Tavolo e sedie</text>
<use href="#pr_tent" x="46" y="1178" width="18" height="18"/>
<text x="73" y="1191" font-size="11" fill="#3b2e1e">⛺ — Tenda (telo teso: blocca la vista, si abbatte)</text>
<use href="#pr_crown" x="46" y="1200" width="18" height="18"/>
<text x="73" y="1213" font-size="11" fill="#3b2e1e">👑 — Trono / Corona</text>
<!-- fonte: ARC07-MAPPE-M7C-TENDA-DEL-COMANDO.md · SVG generato da scripts/render_map_svg.py (stile pergamena) · non modificare a mano -->
</svg>