<svg xmlns="http://www.w3.org/2000/svg" width="764" height="904" viewBox="0 0 764 904" font-family="Georgia, 'Palatino Linotype', 'Times New Roman', serif">
<defs>
<filter id="grain" x="0" y="0" width="100%" height="100%"><feTurbulence type="fractalNoise" baseFrequency="0.8" numOctaves="2" seed="11" stitchTiles="stitch"/><feColorMatrix type="matrix" values="0 0 0 0 0.36 0 0 0 0 0.28 0 0 0 0 0.16 0 0 0 0.18 0"/><feComposite operator="over" in2="SourceGraphic"/></filter>
<filter id="rough" x="-5%" y="-5%" width="110%" height="110%"><feTurbulence type="fractalNoise" baseFrequency="0.045" numOctaves="2" seed="7" result="n"/><feDisplacementMap in="SourceGraphic" in2="n" scale="2.6"/></filter>
<filter id="softblur" x="-20%" y="-20%" width="140%" height="140%"><feGaussianBlur stdDeviation="1.6"/></filter>
<filter id="aoblur" x="-30%" y="-30%" width="160%" height="160%"><feGaussianBlur stdDeviation="3.2"/></filter>
<filter id="mottle" x="0" y="0" width="100%" height="100%"><feTurbulence type="fractalNoise" baseFrequency="0.012" numOctaves="3" seed="4" stitchTiles="stitch"/><feColorMatrix type="matrix" values="0 0 0 0 0.24 0 0 0 0 0.18 0 0 0 0 0.10 0 0 0 0.5 0"/></filter>
<radialGradient id="vign" cx="0.5" cy="0.45" r="0.75"><stop offset="0.62" stop-color="#3b2e1e" stop-opacity="0"/><stop offset="1" stop-color="#3b2e1e" stop-opacity="0.16"/></radialGradient>
<clipPath id="clipgrid"><rect x="46" y="80" width="672" height="504"/></clipPath>
<clipPath id="clipheavy"><path d="M46 179.19L49.81 169.99L51.99 167.81L61.19 164L702.81 164L712.01 167.81L714.19 169.99L718 179.19L718 568.81L714.19 578.01L712.01 580.19L702.81 584L61.19 584L51.99 580.19L49.81 578.01L46 568.81ZM89.19 192L79.99 195.81L77.81 197.99L74 207.19L74 540.81L77.81 550.01L79.99 552.19L89.19 556L674.81 556L684.01 552.19L686.19 550.01L690 540.81L690 207.19L686.19 197.99L684.01 195.81L674.81 192ZM326 319.19L329.81 309.99L331.99 307.81L341.19 304L394.81 304L404.01 307.81L406.19 309.99L410 319.19L410 400.81L406.19 410.01L404.01 412.19L394.81 416L341.19 416L331.99 412.19L329.81 410.01L326 400.81Z" clip-rule="evenodd"/></clipPath>
<pattern id="t_earth" width="28" height="28" patternUnits="userSpaceOnUse"><rect width="28" height="28" fill="#b08d68"/><circle cx="6" cy="6" r="1.1" fill="#93714e"/><circle cx="18" cy="11" r="0.9" fill="#93714e"/><circle cx="24" cy="22" r="1.2" fill="#93714e"/><circle cx="9" cy="20" r="1" fill="#c8a87f"/><circle cx="22" cy="4" r="0.8" fill="#c8a87f"/><path d="M3 15q4-1.5 8 0" stroke="#a17d59" stroke-width="0.8" fill="none"/></pattern>
<pattern id="t_struct" width="28" height="28" patternUnits="userSpaceOnUse"><rect width="28" height="28" fill="#6b5b47"/><path d="M-2 6l8-8M-2 14l16-16M-2 22l24-24M6 30l24-24M14 30l16-16M22 30l8-8" stroke="#5a4b39" stroke-width="0.9"/><path d="M0 14.5h28" stroke="#7d6c56" stroke-width="0.8"/></pattern>
<pattern id="t_wall" width="28" height="28" patternUnits="userSpaceOnUse"><rect width="28" height="28" fill="#3f3931"/><path d="M-2 6l8-8M-2 14l16-16M-2 22l24-24M-2 30l32-32M6 30l24-24M14 30l16-16M22 30l8-8" stroke="#2b2620" stroke-width="1"/><circle cx="8" cy="18" r="1" fill="#554d42"/><circle cx="21" cy="7" r="0.9" fill="#554d42"/></pattern>
<symbol id="pr_crown" viewBox="0 0 28 28"><path d="M6 19v-9l4 3.4L14 7l4 6.4 4-3.4v9z" fill="#e8b73a" stroke="#7e5b14" stroke-width="1.1"/><rect x="6" y="19" width="16" height="3" fill="#d3a127" stroke="#7e5b14" stroke-width="1"/><circle cx="10" cy="20.5" r="0.9" fill="#a33434"/><circle cx="14" cy="20.5" r="0.9" fill="#3d6a9e"/><circle cx="18" cy="20.5" r="0.9" fill="#a33434"/></symbol>
<symbol id="pr_crystal" viewBox="0 0 28 28"><ellipse cx="14" cy="21.5" rx="6.5" ry="2" fill="#6f5a94" opacity="0.6"/><path d="M11 21L8 10l4-4 2 5z" fill="#9d7fd0" stroke="#4a3670" stroke-width="1"/><path d="M15 21l-1-9 4-5 3 7z" fill="#b79ae0" stroke="#4a3670" stroke-width="1"/><path d="M12 6.5l1.5 4M18 7l-1.5 4.5" stroke="#e2d4f4" stroke-width="0.8"/></symbol>
</defs>
<rect width="764" height="904" fill="#efe4c9" filter="url(#grain)"/>
<rect width="764" height="904" fill="url(#vign)"/>
<rect x="5" y="5" width="754" height="894" fill="none" stroke="#3b2e1e" stroke-width="0.8" opacity="0.8"/>
<rect x="9" y="9" width="746" height="886" fill="none" stroke="#3b2e1e" stroke-width="2" opacity="0.85"/>
<text x="46" y="34" font-size="19" font-weight="bold" fill="#3b2e1e" letter-spacing="0.5">CORTILE INTERNO — 36 m × 27 m (24 col × 18 righe · 1,5 m) · cielo aperto</text>
<text x="46" y="51" font-size="11" font-style="italic" fill="#7a6a50">24×18 quadretti · scala 1,5 m/quadretto</text>
<rect x="41" y="75" width="682" height="514" fill="#e6d9b8" stroke="#3b2e1e" stroke-width="1.6"/>
<g clip-path="url(#clipgrid)">
<path d="M74 207.19L77.81 197.99L79.99 195.81L89.19 192L674.81 192L684.01 195.81L686.19 197.99L690 207.19L690 540.81L686.19 550.01L684.01 552.19L674.81 556L89.19 556L79.99 552.19L77.81 550.01L74 540.81ZM341.19 304L331.99 307.81L329.81 309.99L326 319.19L326 400.81L329.81 410.01L331.99 412.19L341.19 416L394.81 416L404.01 412.19L406.19 410.01L410 400.81L410 319.19L406.19 309.99L404.01 307.81L394.81 304Z" fill="url(#t_earth)" fill-rule="evenodd" stroke="url(#t_earth)" stroke-width="2.4" stroke-linejoin="round"/>
<path d="M46 179.19L49.81 169.99L51.99 167.81L61.19 164L702.81 164L712.01 167.81L714.19 169.99L718 179.19L718 568.81L714.19 578.01L712.01 580.19L702.81 584L61.19 584L51.99 580.19L49.81 578.01L46 568.81ZM89.19 192L79.99 195.81L77.81 197.99L74 207.19L74 540.81L77.81 550.01L79.99 552.19L89.19 556L674.81 556L684.01 552.19L686.19 550.01L690 540.81L690 207.19L686.19 197.99L684.01 195.81L674.81 192ZM326 319.19L329.81 309.99L331.99 307.81L341.19 304L394.81 304L404.01 307.81L406.19 309.99L410 319.19L410 400.81L406.19 410.01L404.01 412.19L394.81 416L341.19 416L331.99 412.19L329.81 410.01L326 400.81Z" fill="none" stroke="#241c10" stroke-width="9" opacity="0.22" filter="url(#aoblur)"/>
<path d="M46 179.19L49.81 169.99L51.99 167.81L61.19 164L702.81 164L712.01 167.81L714.19 169.99L718 179.19L718 568.81L714.19 578.01L712.01 580.19L702.81 584L61.19 584L51.99 580.19L49.81 578.01L46 568.81ZM89.19 192L79.99 195.81L77.81 197.99L74 207.19L74 540.81L77.81 550.01L79.99 552.19L89.19 556L674.81 556L684.01 552.19L686.19 550.01L690 540.81L690 207.19L686.19 197.99L684.01 195.81L674.81 192ZM326 319.19L329.81 309.99L331.99 307.81L341.19 304L394.81 304L404.01 307.81L406.19 309.99L410 319.19L410 400.81L406.19 410.01L404.01 412.19L394.81 416L341.19 416L331.99 412.19L329.81 410.01L326 400.81Z" fill="#241c10" fill-rule="evenodd" opacity="0.28" filter="url(#softblur)" transform="translate(2.6,3.4)"/>
<path d="M326 319.19L329.81 309.99L331.99 307.81L341.19 304L394.81 304L404.01 307.81L406.19 309.99L410 319.19L410 400.81L406.19 410.01L404.01 412.19L394.81 416L341.19 416L331.99 412.19L329.81 410.01L326 400.81Z" fill="url(#t_struct)" fill-rule="evenodd" stroke="url(#t_struct)" stroke-width="2.4" stroke-linejoin="round"/>
<path d="M46 179.19L49.81 169.99L51.99 167.81L61.19 164L702.81 164L712.01 167.81L714.19 169.99L718 179.19L718 568.81L714.19 578.01L712.01 580.19L702.81 584L61.19 584L51.99 580.19L49.81 578.01L46 568.81ZM89.19 192L79.99 195.81L77.81 197.99L74 207.19L74 540.81L77.81 550.01L79.99 552.19L89.19 556L674.81 556L684.01 552.19L686.19 550.01L690 540.81L690 207.19L686.19 197.99L684.01 195.81L674.81 192Z" fill="url(#t_wall)" fill-rule="evenodd" stroke="url(#t_wall)" stroke-width="2.4" stroke-linejoin="round"/>
<rect x="46" y="80" width="672" height="504" filter="url(#mottle)" opacity="0.35"/>
<path d="M74 207.19L77.81 197.99L79.99 195.81L89.19 192L674.81 192L684.01 195.81L686.19 197.99L690 207.19L690 540.81L686.19 550.01L684.01 552.19L674.81 556L89.19 556L79.99 552.19L77.81 550.01L74 540.81ZM341.19 304L331.99 307.81L329.81 309.99L326 319.19L326 400.81L329.81 410.01L331.99 412.19L341.19 416L394.81 416L404.01 412.19L406.19 410.01L410 400.81L410 319.19L406.19 309.99L404.01 307.81L394.81 304Z" fill="none" stroke="#7a6a50" stroke-width="0.9" opacity="0.5" stroke-linejoin="round" filter="url(#rough)"/>
<path d="M326 319.19L329.81 309.99L331.99 307.81L341.19 304L394.81 304L404.01 307.81L406.19 309.99L410 319.19L410 400.81L406.19 410.01L404.01 412.19L394.81 416L341.19 416L331.99 412.19L329.81 410.01L326 400.81Z" fill="none" stroke="#241c10" stroke-width="1.8" opacity="0.9" stroke-linejoin="round" filter="url(#rough)"/>
<path d="M46 179.19L49.81 169.99L51.99 167.81L61.19 164L702.81 164L712.01 167.81L714.19 169.99L718 179.19L718 568.81L714.19 578.01L712.01 580.19L702.81 584L61.19 584L51.99 580.19L49.81 578.01L46 568.81ZM89.19 192L79.99 195.81L77.81 197.99L74 207.19L74 540.81L77.81 550.01L79.99 552.19L89.19 556L674.81 556L684.01 552.19L686.19 550.01L690 540.81L690 207.19L686.19 197.99L684.01 195.81L674.81 192Z" fill="none" stroke="#241c10" stroke-width="1.8" opacity="0.9" stroke-linejoin="round" filter="url(#rough)"/>
</g>
<path d="M74 80v504M102 80v504M130 80v504M158 80v504M214 80v504M242 80v504M270 80v504M298 80v504M354 80v504M382 80v504M410 80v504M438 80v504M494 80v504M522 80v504M550 80v504M578 80v504M634 80v504M662 80v504M690 80v504M718 80v504M46 108h672M46 136h672M46 164h672M46 192h672M46 248h672M46 276h672M46 304h672M46 332h672M46 388h672M46 416h672M46 444h672M46 472h672M46 528h672M46 556h672M46 584h672" stroke="#2e2313" stroke-width="0.6" opacity="0.3" fill="none"/>
<path d="M46 80v504M186 80v504M326 80v504M466 80v504M606 80v504M46 80h672M46 220h672M46 360h672M46 500h672" stroke="#2e2313" stroke-width="1.4" opacity="0.48" fill="none"/>
<g clip-path="url(#clipheavy)"><path d="M74 80v504M102 80v504M130 80v504M158 80v504M214 80v504M242 80v504M270 80v504M298 80v504M354 80v504M382 80v504M410 80v504M438 80v504M494 80v504M522 80v504M550 80v504M578 80v504M634 80v504M662 80v504M690 80v504M718 80v504M46 108h672M46 136h672M46 164h672M46 192h672M46 248h672M46 276h672M46 304h672M46 332h672M46 388h672M46 416h672M46 444h672M46 472h672M46 528h672M46 556h672M46 584h672" stroke="#efe4c9" stroke-width="0.6" opacity="0.16" fill="none"/><path d="M46 80v504M186 80v504M326 80v504M466 80v504M606 80v504M46 80h672M46 220h672M46 360h672M46 500h672" stroke="#efe4c9" stroke-width="1.4" opacity="0.26" fill="none"/></g>
<ellipse cx="60.0" cy="100.0" rx="7.5" ry="2.8" fill="#241c10" opacity="0.14"/>
<text x="60.0" y="100.0" font-size="17" text-anchor="middle">☁</text>
<ellipse cx="88.0" cy="100.0" rx="7.5" ry="2.8" fill="#241c10" opacity="0.14"/>
<text x="88.0" y="100.0" font-size="17" text-anchor="middle">☁</text>
<ellipse cx="116.0" cy="100.0" rx="7.5" ry="2.8" fill="#241c10" opacity="0.14"/>
<text x="116.0" y="100.0" font-size="17" text-anchor="middle">☁</text>
<ellipse cx="144.0" cy="100.0" rx="7.5" ry="2.8" fill="#241c10" opacity="0.14"/>
<text x="144.0" y="100.0" font-size="17" text-anchor="middle">☁</text>
<ellipse cx="172.0" cy="100.0" rx="7.5" ry="2.8" fill="#241c10" opacity="0.14"/>
<text x="172.0" y="100.0" font-size="17" text-anchor="middle">☁</text>
<ellipse cx="200.0" cy="100.0" rx="7.5" ry="2.8" fill="#241c10" opacity="0.14"/>
<text x="200.0" y="100.0" font-size="17" text-anchor="middle">☁</text>
<ellipse cx="228.0" cy="100.0" rx="7.5" ry="2.8" fill="#241c10" opacity="0.14"/>
<text x="228.0" y="100.0" font-size="17" text-anchor="middle">☁</text>
<ellipse cx="256.0" cy="100.0" rx="7.5" ry="2.8" fill="#241c10" opacity="0.14"/>
<text x="256.0" y="100.0" font-size="17" text-anchor="middle">☁</text>
<ellipse cx="284.0" cy="100.0" rx="7.5" ry="2.8" fill="#241c10" opacity="0.14"/>
<text x="284.0" y="100.0" font-size="17" text-anchor="middle">☁</text>
<ellipse cx="312.0" cy="100.0" rx="7.5" ry="2.8" fill="#241c10" opacity="0.14"/>
<text x="312.0" y="100.0" font-size="17" text-anchor="middle">☁</text>
<ellipse cx="340.0" cy="100.0" rx="7.5" ry="2.8" fill="#241c10" opacity="0.14"/>
<text x="340.0" y="100.0" font-size="17" text-anchor="middle">☁</text>
<ellipse cx="368.0" cy="100.0" rx="7.5" ry="2.8" fill="#241c10" opacity="0.14"/>
<text x="368.0" y="100.0" font-size="17" text-anchor="middle">☁</text>
<ellipse cx="396.0" cy="100.0" rx="7.5" ry="2.8" fill="#241c10" opacity="0.14"/>
<text x="396.0" y="100.0" font-size="17" text-anchor="middle">☁</text>
<ellipse cx="424.0" cy="100.0" rx="7.5" ry="2.8" fill="#241c10" opacity="0.14"/>
<text x="424.0" y="100.0" font-size="17" text-anchor="middle">☁</text>
<ellipse cx="452.0" cy="100.0" rx="7.5" ry="2.8" fill="#241c10" opacity="0.14"/>
<text x="452.0" y="100.0" font-size="17" text-anchor="middle">☁</text>
<ellipse cx="480.0" cy="100.0" rx="7.5" ry="2.8" fill="#241c10" opacity="0.14"/>
<text x="480.0" y="100.0" font-size="17" text-anchor="middle">☁</text>
<ellipse cx="508.0" cy="100.0" rx="7.5" ry="2.8" fill="#241c10" opacity="0.14"/>
<text x="508.0" y="100.0" font-size="17" text-anchor="middle">☁</text>
<ellipse cx="536.0" cy="100.0" rx="7.5" ry="2.8" fill="#241c10" opacity="0.14"/>
<text x="536.0" y="100.0" font-size="17" text-anchor="middle">☁</text>
<ellipse cx="564.0" cy="100.0" rx="7.5" ry="2.8" fill="#241c10" opacity="0.14"/>
<text x="564.0" y="100.0" font-size="17" text-anchor="middle">☁</text>
<ellipse cx="592.0" cy="100.0" rx="7.5" ry="2.8" fill="#241c10" opacity="0.14"/>
<text x="592.0" y="100.0" font-size="17" text-anchor="middle">☁</text>
<ellipse cx="620.0" cy="100.0" rx="7.5" ry="2.8" fill="#241c10" opacity="0.14"/>
<text x="620.0" y="100.0" font-size="17" text-anchor="middle">☁</text>
<ellipse cx="648.0" cy="100.0" rx="7.5" ry="2.8" fill="#241c10" opacity="0.14"/>
<text x="648.0" y="100.0" font-size="17" text-anchor="middle">🐉</text>
<ellipse cx="676.0" cy="100.0" rx="7.5" ry="2.8" fill="#241c10" opacity="0.14"/>
<text x="676.0" y="100.0" font-size="17" text-anchor="middle">☁</text>
<ellipse cx="704.0" cy="100.0" rx="7.5" ry="2.8" fill="#241c10" opacity="0.14"/>
<text x="704.0" y="100.0" font-size="17" text-anchor="middle">☁</text>
<ellipse cx="60.0" cy="128.0" rx="7.5" ry="2.8" fill="#241c10" opacity="0.14"/>
<text x="60.0" y="128.0" font-size="17" text-anchor="middle">☁</text>
<ellipse cx="88.0" cy="128.0" rx="7.5" ry="2.8" fill="#241c10" opacity="0.14"/>
<text x="88.0" y="128.0" font-size="17" text-anchor="middle">☁</text>
<ellipse cx="116.0" cy="128.0" rx="7.5" ry="2.8" fill="#241c10" opacity="0.14"/>
<text x="116.0" y="128.0" font-size="17" text-anchor="middle">☁</text>
<ellipse cx="144.0" cy="128.0" rx="7.5" ry="2.8" fill="#241c10" opacity="0.14"/>
<text x="144.0" y="128.0" font-size="17" text-anchor="middle">☁</text>
<ellipse cx="172.0" cy="128.0" rx="7.5" ry="2.8" fill="#241c10" opacity="0.14"/>
<text x="172.0" y="128.0" font-size="17" text-anchor="middle">☁</text>
<ellipse cx="200.0" cy="128.0" rx="7.5" ry="2.8" fill="#241c10" opacity="0.14"/>
<text x="200.0" y="128.0" font-size="17" text-anchor="middle">☁</text>
<ellipse cx="228.0" cy="128.0" rx="7.5" ry="2.8" fill="#241c10" opacity="0.14"/>
<text x="228.0" y="128.0" font-size="17" text-anchor="middle">☁</text>
<ellipse cx="256.0" cy="128.0" rx="7.5" ry="2.8" fill="#241c10" opacity="0.14"/>
<text x="256.0" y="128.0" font-size="17" text-anchor="middle">☁</text>
<ellipse cx="284.0" cy="128.0" rx="7.5" ry="2.8" fill="#241c10" opacity="0.14"/>
<text x="284.0" y="128.0" font-size="17" text-anchor="middle">☁</text>
<ellipse cx="312.0" cy="128.0" rx="7.5" ry="2.8" fill="#241c10" opacity="0.14"/>
<text x="312.0" y="128.0" font-size="17" text-anchor="middle">☁</text>
<ellipse cx="340.0" cy="128.0" rx="7.5" ry="2.8" fill="#241c10" opacity="0.14"/>
<text x="340.0" y="128.0" font-size="17" text-anchor="middle">☁</text>
<ellipse cx="368.0" cy="128.0" rx="7.5" ry="2.8" fill="#241c10" opacity="0.14"/>
<text x="368.0" y="128.0" font-size="17" text-anchor="middle">☁</text>
<ellipse cx="396.0" cy="128.0" rx="7.5" ry="2.8" fill="#241c10" opacity="0.14"/>
<text x="396.0" y="128.0" font-size="17" text-anchor="middle">☁</text>
<ellipse cx="424.0" cy="128.0" rx="7.5" ry="2.8" fill="#241c10" opacity="0.14"/>
<text x="424.0" y="128.0" font-size="17" text-anchor="middle">☁</text>
<ellipse cx="452.0" cy="128.0" rx="7.5" ry="2.8" fill="#241c10" opacity="0.14"/>
<text x="452.0" y="128.0" font-size="17" text-anchor="middle">☁</text>
<ellipse cx="480.0" cy="128.0" rx="7.5" ry="2.8" fill="#241c10" opacity="0.14"/>
<text x="480.0" y="128.0" font-size="17" text-anchor="middle">☁</text>
<ellipse cx="508.0" cy="128.0" rx="7.5" ry="2.8" fill="#241c10" opacity="0.14"/>
<text x="508.0" y="128.0" font-size="17" text-anchor="middle">☁</text>
<ellipse cx="536.0" cy="128.0" rx="7.5" ry="2.8" fill="#241c10" opacity="0.14"/>
<text x="536.0" y="128.0" font-size="17" text-anchor="middle">☁</text>
<ellipse cx="564.0" cy="128.0" rx="7.5" ry="2.8" fill="#241c10" opacity="0.14"/>
<text x="564.0" y="128.0" font-size="17" text-anchor="middle">☁</text>
<ellipse cx="592.0" cy="128.0" rx="7.5" ry="2.8" fill="#241c10" opacity="0.14"/>
<text x="592.0" y="128.0" font-size="17" text-anchor="middle">☁</text>
<ellipse cx="620.0" cy="128.0" rx="7.5" ry="2.8" fill="#241c10" opacity="0.14"/>
<text x="620.0" y="128.0" font-size="17" text-anchor="middle">☁</text>
<ellipse cx="648.0" cy="128.0" rx="7.5" ry="2.8" fill="#241c10" opacity="0.14"/>
<text x="648.0" y="128.0" font-size="17" text-anchor="middle">☁</text>
<ellipse cx="676.0" cy="128.0" rx="7.5" ry="2.8" fill="#241c10" opacity="0.14"/>
<text x="676.0" y="128.0" font-size="17" text-anchor="middle">☁</text>
<ellipse cx="704.0" cy="128.0" rx="7.5" ry="2.8" fill="#241c10" opacity="0.14"/>
<text x="704.0" y="128.0" font-size="17" text-anchor="middle">☁</text>
<ellipse cx="60.0" cy="156.0" rx="7.5" ry="2.8" fill="#241c10" opacity="0.14"/>
<text x="60.0" y="156.0" font-size="17" text-anchor="middle">☁</text>
<ellipse cx="88.0" cy="156.0" rx="7.5" ry="2.8" fill="#241c10" opacity="0.14"/>
<text x="88.0" y="156.0" font-size="17" text-anchor="middle">☁</text>
<ellipse cx="116.0" cy="156.0" rx="7.5" ry="2.8" fill="#241c10" opacity="0.14"/>
<text x="116.0" y="156.0" font-size="17" text-anchor="middle">☁</text>
<ellipse cx="144.0" cy="156.0" rx="7.5" ry="2.8" fill="#241c10" opacity="0.14"/>
<text x="144.0" y="156.0" font-size="17" text-anchor="middle">☁</text>
<ellipse cx="172.0" cy="156.0" rx="7.5" ry="2.8" fill="#241c10" opacity="0.14"/>
<text x="172.0" y="156.0" font-size="17" text-anchor="middle">☁</text>
<ellipse cx="200.0" cy="156.0" rx="7.5" ry="2.8" fill="#241c10" opacity="0.14"/>
<text x="200.0" y="156.0" font-size="17" text-anchor="middle">☁</text>
<ellipse cx="228.0" cy="156.0" rx="7.5" ry="2.8" fill="#241c10" opacity="0.14"/>
<text x="228.0" y="156.0" font-size="17" text-anchor="middle">☁</text>
<ellipse cx="256.0" cy="156.0" rx="7.5" ry="2.8" fill="#241c10" opacity="0.14"/>
<text x="256.0" y="156.0" font-size="17" text-anchor="middle">☁</text>
<ellipse cx="284.0" cy="156.0" rx="7.5" ry="2.8" fill="#241c10" opacity="0.14"/>
<text x="284.0" y="156.0" font-size="17" text-anchor="middle">☁</text>
<ellipse cx="312.0" cy="156.0" rx="7.5" ry="2.8" fill="#241c10" opacity="0.14"/>
<text x="312.0" y="156.0" font-size="17" text-anchor="middle">☁</text>
<ellipse cx="340.0" cy="156.0" rx="7.5" ry="2.8" fill="#241c10" opacity="0.14"/>
<text x="340.0" y="156.0" font-size="17" text-anchor="middle">☁</text>
<ellipse cx="368.0" cy="156.0" rx="7.5" ry="2.8" fill="#241c10" opacity="0.14"/>
<text x="368.0" y="156.0" font-size="17" text-anchor="middle">☁</text>
<ellipse cx="396.0" cy="156.0" rx="7.5" ry="2.8" fill="#241c10" opacity="0.14"/>
<text x="396.0" y="156.0" font-size="17" text-anchor="middle">☁</text>
<ellipse cx="424.0" cy="156.0" rx="7.5" ry="2.8" fill="#241c10" opacity="0.14"/>
<text x="424.0" y="156.0" font-size="17" text-anchor="middle">☁</text>
<ellipse cx="452.0" cy="156.0" rx="7.5" ry="2.8" fill="#241c10" opacity="0.14"/>
<text x="452.0" y="156.0" font-size="17" text-anchor="middle">☁</text>
<ellipse cx="480.0" cy="156.0" rx="7.5" ry="2.8" fill="#241c10" opacity="0.14"/>
<text x="480.0" y="156.0" font-size="17" text-anchor="middle">☁</text>
<ellipse cx="508.0" cy="156.0" rx="7.5" ry="2.8" fill="#241c10" opacity="0.14"/>
<text x="508.0" y="156.0" font-size="17" text-anchor="middle">☁</text>
<ellipse cx="536.0" cy="156.0" rx="7.5" ry="2.8" fill="#241c10" opacity="0.14"/>
<text x="536.0" y="156.0" font-size="17" text-anchor="middle">☁</text>
<ellipse cx="564.0" cy="156.0" rx="7.5" ry="2.8" fill="#241c10" opacity="0.14"/>
<text x="564.0" y="156.0" font-size="17" text-anchor="middle">☁</text>
<ellipse cx="592.0" cy="156.0" rx="7.5" ry="2.8" fill="#241c10" opacity="0.14"/>
<text x="592.0" y="156.0" font-size="17" text-anchor="middle">☁</text>
<ellipse cx="620.0" cy="156.0" rx="7.5" ry="2.8" fill="#241c10" opacity="0.14"/>
<text x="620.0" y="156.0" font-size="17" text-anchor="middle">☁</text>
<ellipse cx="648.0" cy="156.0" rx="7.5" ry="2.8" fill="#241c10" opacity="0.14"/>
<text x="648.0" y="156.0" font-size="17" text-anchor="middle">☁</text>
<ellipse cx="676.0" cy="156.0" rx="7.5" ry="2.8" fill="#241c10" opacity="0.14"/>
<text x="676.0" y="156.0" font-size="17" text-anchor="middle">☁</text>
<ellipse cx="704.0" cy="156.0" rx="7.5" ry="2.8" fill="#241c10" opacity="0.14"/>
<text x="704.0" y="156.0" font-size="17" text-anchor="middle">☁</text>
<ellipse cx="144.0" cy="520.0" rx="7.5" ry="2.8" fill="#241c10" opacity="0.14"/>
<text x="144.0" y="520.0" font-size="17" text-anchor="middle">🛡</text>
<ellipse cx="228.0" cy="520.0" rx="7.5" ry="2.8" fill="#241c10" opacity="0.14"/>
<text x="228.0" y="520.0" font-size="17" text-anchor="middle">🥋</text>
<ellipse cx="369.0" cy="517.0" rx="9" ry="4.5" fill="#241c10" opacity="0.2"/>
<use href="#pr_crown" x="354" y="500" width="28" height="28"/>
<ellipse cx="509.0" cy="517.0" rx="9" ry="4.5" fill="#241c10" opacity="0.2"/>
<use href="#pr_crystal" x="494" y="500" width="28" height="28"/>
<ellipse cx="592.0" cy="520.0" rx="7.5" ry="2.8" fill="#241c10" opacity="0.14"/>
<text x="592.0" y="520.0" font-size="17" text-anchor="middle">🌙</text>
<text x="60.0" y="72" font-size="10" text-anchor="middle" fill="#7a6a50">A</text>
<text x="88.0" y="72" font-size="10" text-anchor="middle" fill="#7a6a50">B</text>
<text x="116.0" y="72" font-size="10" text-anchor="middle" fill="#7a6a50">C</text>
<text x="144.0" y="72" font-size="10" text-anchor="middle" fill="#7a6a50">D</text>
<text x="172.0" y="72" font-size="10" text-anchor="middle" fill="#7a6a50">E</text>
<text x="200.0" y="72" font-size="10" text-anchor="middle" fill="#7a6a50">F</text>
<text x="228.0" y="72" font-size="10" text-anchor="middle" fill="#7a6a50">G</text>
<text x="256.0" y="72" font-size="10" text-anchor="middle" fill="#7a6a50">H</text>
<text x="284.0" y="72" font-size="10" text-anchor="middle" fill="#7a6a50">I</text>
<text x="312.0" y="72" font-size="10" text-anchor="middle" fill="#7a6a50">J</text>
<text x="340.0" y="72" font-size="10" text-anchor="middle" fill="#7a6a50">K</text>
<text x="368.0" y="72" font-size="10" text-anchor="middle" fill="#7a6a50">L</text>
<text x="396.0" y="72" font-size="10" text-anchor="middle" fill="#7a6a50">M</text>
<text x="424.0" y="72" font-size="10" text-anchor="middle" fill="#7a6a50">N</text>
<text x="452.0" y="72" font-size="10" text-anchor="middle" fill="#7a6a50">O</text>
<text x="480.0" y="72" font-size="10" text-anchor="middle" fill="#7a6a50">P</text>
<text x="508.0" y="72" font-size="10" text-anchor="middle" fill="#7a6a50">Q</text>
<text x="536.0" y="72" font-size="10" text-anchor="middle" fill="#7a6a50">R</text>
<text x="564.0" y="72" font-size="10" text-anchor="middle" fill="#7a6a50">S</text>
<text x="592.0" y="72" font-size="10" text-anchor="middle" fill="#7a6a50">T</text>
<text x="620.0" y="72" font-size="10" text-anchor="middle" fill="#7a6a50">U</text>
<text x="648.0" y="72" font-size="10" text-anchor="middle" fill="#7a6a50">V</text>
<text x="676.0" y="72" font-size="10" text-anchor="middle" fill="#7a6a50">W</text>
<text x="704.0" y="72" font-size="10" text-anchor="middle" fill="#7a6a50">X</text>
<text x="37" y="97.0" font-size="10" text-anchor="end" fill="#7a6a50">01</text>
<text x="37" y="125.0" font-size="10" text-anchor="end" fill="#7a6a50">02</text>
<text x="37" y="153.0" font-size="10" text-anchor="end" fill="#7a6a50">03</text>
<text x="37" y="181.0" font-size="10" text-anchor="end" fill="#7a6a50">04</text>
<text x="37" y="209.0" font-size="10" text-anchor="end" fill="#7a6a50">05</text>
<text x="37" y="237.0" font-size="10" text-anchor="end" fill="#b1a184">06</text>
<text x="37" y="265.0" font-size="10" text-anchor="end" fill="#7a6a50">07</text>
<text x="37" y="293.0" font-size="10" text-anchor="end" fill="#7a6a50">08</text>
<text x="37" y="321.0" font-size="10" text-anchor="end" fill="#7a6a50">09</text>
<text x="37" y="349.0" font-size="10" text-anchor="end" fill="#7a6a50">10</text>
<text x="37" y="377.0" font-size="10" text-anchor="end" fill="#7a6a50">11</text>
<text x="37" y="405.0" font-size="10" text-anchor="end" fill="#b1a184">12</text>
<text x="37" y="433.0" font-size="10" text-anchor="end" fill="#7a6a50">13</text>
<text x="37" y="461.0" font-size="10" text-anchor="end" fill="#7a6a50">14</text>
<text x="37" y="489.0" font-size="10" text-anchor="end" fill="#7a6a50">15</text>
<text x="37" y="517.0" font-size="10" text-anchor="end" fill="#7a6a50">16</text>
<text x="37" y="545.0" font-size="10" text-anchor="end" fill="#7a6a50">17</text>
<text x="37" y="573.0" font-size="10" text-anchor="end" fill="#7a6a50">18</text>
<g transform="translate(696,102) rotate(0)"><circle r="20" fill="#efe4c9" fill-opacity="0.82" stroke="#3b2e1e" stroke-width="1"/><path d="M0 -15L2.4 -2.4L15 0L2.4 2.4L0 15L-2.4 2.4L-15 0L-2.4 -2.4Z" fill="#7a6a50" opacity="0.5"/><path d="M0 -15L3.6 0L0 -3.3L-3.6 0Z" fill="#3b2e1e"/><text x="0" y="-21" font-size="11" font-weight="bold" text-anchor="middle" fill="#3b2e1e">N</text></g>
<rect x="46" y="603" width="28" height="7" fill="#3b2e1e" stroke="#3b2e1e" stroke-width="1"/>
<rect x="74" y="603" width="28" height="7" fill="#efe4c9" stroke="#3b2e1e" stroke-width="1"/>
<rect x="102" y="603" width="28" height="7" fill="#3b2e1e" stroke="#3b2e1e" stroke-width="1"/>
<rect x="130" y="603" width="28" height="7" fill="#efe4c9" stroke="#3b2e1e" stroke-width="1"/>
<rect x="158" y="603" width="28" height="7" fill="#3b2e1e" stroke="#3b2e1e" stroke-width="1"/>
<text x="196" y="611" font-size="11" fill="#3b2e1e">7,5 m (5 quadretti)</text>
<text x="46" y="640" font-size="12" font-weight="bold" fill="#3b2e1e" letter-spacing="2">LEGENDA</text>
<path d="M120 636H718" stroke="#7a6a50" stroke-width="0.7" opacity="0.7"/>
<rect x="46" y="646" width="19" height="15" fill="url(#t_wall)" stroke="#7a6a50" stroke-width="0.7"/>
<text x="73" y="658" font-size="11" fill="#3b2e1e">🏰 — Muro / roccia solida</text>
<rect x="46" y="668" width="19" height="15" fill="url(#t_struct)" stroke="#7a6a50" stroke-width="0.7"/>
<text x="73" y="680" font-size="11" fill="#3b2e1e">⬛ — Struttura (tenda, edificio, dais)</text>
<rect x="46" y="690" width="19" height="15" fill="url(#t_earth)" stroke="#7a6a50" stroke-width="0.7"/>
<text x="73" y="702" font-size="11" fill="#3b2e1e">🟫 — Terra battuta / sentiero</text>
<use href="#pr_crystal" x="46" y="711" width="18" height="18"/>
<text x="73" y="724" font-size="11" fill="#3b2e1e">🔮 — Cristalli / altare magico</text>
<use href="#pr_crown" x="46" y="733" width="18" height="18"/>
<text x="73" y="746" font-size="11" fill="#3b2e1e">👑 — Trono / Corona</text>
<text x="46" y="768" font-size="14">☁</text>
<text x="73" y="768" font-size="11" fill="#3b2e1e">☁ — zona aerea (serve volo o gittata)</text>
<text x="46" y="790" font-size="14">🌙</text>
<text x="73" y="790" font-size="11" fill="#3b2e1e">🌙 — (simbolo locale — vedi legenda del file sorgente)</text>
<text x="46" y="812" font-size="14">🐉</text>
<text x="73" y="812" font-size="11" fill="#3b2e1e">🐉 — Skullcrusher (quota)</text>
<text x="46" y="834" font-size="14">🛡</text>
<text x="73" y="834" font-size="11" fill="#3b2e1e">🛡 — (simbolo locale — vedi legenda del file sorgente)</text>
<text x="46" y="856" font-size="14">🥋</text>
<text x="73" y="856" font-size="11" fill="#3b2e1e">🥋 — (simbolo locale — vedi legenda del file sorgente)</text>
<text x="46" y="888" font-size="9" font-style="italic" fill="#7a6a50">fonte: ARC07-MAPPE-DEFINITIVO.md · SVG generato da scripts/render_map_svg.py (stile pergamena) — non modificare a mano</text>
</svg>