<svg xmlns="http://www.w3.org/2000/svg" width="568" height="704" viewBox="0 0 568 704" font-family="Georgia, 'Palatino Linotype', 'Times New Roman', serif">
<defs>
<filter id="grain" x="0" y="0" width="100%" height="100%"><feTurbulence type="fractalNoise" baseFrequency="0.8" numOctaves="2" seed="11" stitchTiles="stitch"/><feColorMatrix type="matrix" values="0 0 0 0 0.36 0 0 0 0 0.28 0 0 0 0 0.16 0 0 0 0.18 0"/><feComposite operator="over" in2="SourceGraphic"/></filter>
<filter id="rough" x="-5%" y="-5%" width="110%" height="110%"><feTurbulence type="fractalNoise" baseFrequency="0.045" numOctaves="2" seed="7" result="n"/><feDisplacementMap in="SourceGraphic" in2="n" scale="2.6"/></filter>
<filter id="softblur" x="-20%" y="-20%" width="140%" height="140%"><feGaussianBlur stdDeviation="1.6"/></filter>
<filter id="aoblur" x="-30%" y="-30%" width="160%" height="160%"><feGaussianBlur stdDeviation="3.2"/></filter>
<filter id="mottle" x="0" y="0" width="100%" height="100%"><feTurbulence type="fractalNoise" baseFrequency="0.012" numOctaves="3" seed="4" stitchTiles="stitch"/><feColorMatrix type="matrix" values="0 0 0 0 0.24 0 0 0 0 0.18 0 0 0 0 0.10 0 0 0 0.5 0"/></filter>
<radialGradient id="vign" cx="0.5" cy="0.45" r="0.75"><stop offset="0.62" stop-color="#3b2e1e" stop-opacity="0"/><stop offset="1" stop-color="#3b2e1e" stop-opacity="0.16"/></radialGradient>
<clipPath id="clipgrid"><rect x="46" y="80" width="476" height="392"/></clipPath>
<clipPath id="clipheavy"><path d="M46 95.19L49.81 85.99L51.99 83.81L61.19 80L506.81 80L516.01 83.81L518.19 85.99L522 95.19L522 456.81L518.19 466.01L516.01 468.19L506.81 472L61.19 472L51.99 468.19L49.81 466.01L46 456.81ZM87.58 164L79.99 167.81L77.81 169.99L74 179.19L74 372.81L77.81 382.01L79.99 384.19L87.58 388L88.42 388L96.01 391.81L98.19 393.99L102 401.58L102 402.42L105.81 410.01L107.99 412.19L115.58 416L116.42 416L124.01 419.81L126.19 421.99L130 429.58L130 430.42L133.81 438.01L135.99 440.19L145.19 444L422.81 444L432.01 440.19L434.19 438.01L438 430.42L438 429.58L441.81 421.99L443.99 419.81L451.58 416L452.42 416L460.01 412.19L462.19 410.01L466 402.42L466 401.58L469.81 393.99L471.99 391.81L479.58 388L480.42 388L488.01 384.19L490.19 382.01L494 372.81L494 179.19L490.19 169.99L488.01 167.81L480.42 164L479.58 164L471.99 160.19L469.81 158.01L466 150.42L466 149.58L462.19 141.99L460.01 139.81L452.42 136L451.58 136L443.99 132.19L441.81 130.01L438 122.42L438 121.58L434.19 113.99L432.01 111.81L422.81 108L145.19 108L135.99 111.81L133.81 113.99L130 121.58L130 122.42L126.19 130.01L124.01 132.19L116.42 136L115.58 136L107.99 139.81L105.81 141.99L102 149.58L102 150.42L98.19 158.01L96.01 160.19L88.42 164Z" clip-rule="evenodd"/></clipPath>
<pattern id="t_floor" width="28" height="28" patternUnits="userSpaceOnUse"><rect width="28" height="28" fill="#d8cdb4"/><path d="M0 0.5h28M0 14.5h28M7 0.5v14M21 14.5v14" stroke="#b4a789" stroke-width="1"/><circle cx="15" cy="8" r="2.4" fill="#cfc3a9" fill-opacity="0.6"/><circle cx="6" cy="22" r="2" fill="#cfc3a9" fill-opacity="0.5"/></pattern>
<pattern id="t_pillar" width="28" height="28" patternUnits="userSpaceOnUse"><rect width="28" height="28" fill="#8a67b5"/><path d="M9 0v28" stroke="#b697dd" stroke-width="3" stroke-opacity="0.7"/><path d="M20 0v28" stroke="#6d4c96" stroke-width="3" stroke-opacity="0.5"/></pattern>
<pattern id="t_wall" width="28" height="28" patternUnits="userSpaceOnUse"><rect width="28" height="28" fill="#3f3931"/><path d="M-2 6l8-8M-2 14l16-16M-2 22l24-24M-2 30l32-32M6 30l24-24M14 30l16-16M22 30l8-8" stroke="#2b2620" stroke-width="1"/><circle cx="8" cy="18" r="1" fill="#554d42"/><circle cx="21" cy="7" r="0.9" fill="#554d42"/></pattern>
<symbol id="pr_door" viewBox="0 0 28 28"><rect x="5" y="9.5" width="18" height="9" rx="1.4" fill="#8a6032" stroke="#2f2415" stroke-width="1.2"/><path d="M9.5 9.5v9M14 9.5v9M18.5 9.5v9" stroke="#6e4b26" stroke-width="1"/><circle cx="7.2" cy="14" r="0.9" fill="#2f2415"/><circle cx="20.8" cy="14" r="0.9" fill="#2f2415"/></symbol>
<radialGradient id="g_1d6fd8" cx="0.35" cy="0.3" r="0.8"><stop offset="0" stop-color="#83b0ea"/><stop offset="0.55" stop-color="#1d6fd8"/><stop offset="1" stop-color="#13488c"/></radialGradient>
<radialGradient id="g_212529" cx="0.35" cy="0.3" r="0.8"><stop offset="0" stop-color="#858789"/><stop offset="0.55" stop-color="#212529"/><stop offset="1" stop-color="#15181b"/></radialGradient>
</defs>
<rect width="568" height="704" fill="#efe4c9" filter="url(#grain)"/>
<rect width="568" height="704" fill="url(#vign)"/>
<rect x="5" y="5" width="558" height="694" fill="none" stroke="#3b2e1e" stroke-width="0.8" opacity="0.8"/>
<rect x="9" y="9" width="550" height="686" fill="none" stroke="#3b2e1e" stroke-width="2" opacity="0.85"/>
<text x="46" y="34" font-size="19" font-weight="bold" fill="#3b2e1e" letter-spacing="0.5">MAPPA PT-3: ARENA ESAGONALE - SENTINELLA DI MITHRAL (25,5m x 21m, Grid 17x14, Scala 1,5m/sq)</text>
<text x="46" y="51" font-size="11" font-style="italic" fill="#7a6a50">17×14 quadretti · scala 1,5 m/quadretto</text>
<rect x="41" y="75" width="486" height="402" fill="#e6d9b8" stroke="#3b2e1e" stroke-width="1.6"/>
<g clip-path="url(#clipgrid)">
<path d="M74 179.19L77.81 169.99L79.99 167.81L87.58 164L88.42 164L96.01 160.19L98.19 158.01L102 150.42L102 149.58L105.81 141.99L107.99 139.81L115.58 136L116.42 136L124.01 132.19L126.19 130.01L130 122.42L130 121.58L133.81 113.99L135.99 111.81L145.19 108L422.81 108L432.01 111.81L434.19 113.99L438 121.58L438 122.42L441.81 130.01L443.99 132.19L451.58 136L452.42 136L460.01 139.81L462.19 141.99L466 149.58L466 150.42L469.81 158.01L471.99 160.19L479.58 164L480.42 164L488.01 167.81L490.19 169.99L494 179.19L494 372.81L490.19 382.01L488.01 384.19L480.42 388L479.58 388L471.99 391.81L469.81 393.99L466 401.58L466 402.42L462.19 410.01L460.01 412.19L452.42 416L451.58 416L443.99 419.81L441.81 421.99L438 429.58L438 430.42L434.19 438.01L432.01 440.19L422.81 444L145.19 444L135.99 440.19L133.81 438.01L130 430.42L130 429.58L126.19 421.99L124.01 419.81L116.42 416L115.58 416L107.99 412.19L105.81 410.01L102 402.42L102 401.58L98.19 393.99L96.01 391.81L88.42 388L87.58 388L79.99 384.19L77.81 382.01L74 372.81Z" fill="url(#t_floor)" fill-rule="evenodd" stroke="url(#t_floor)" stroke-width="2.4" stroke-linejoin="round"/>
<path d="M46 95.19L49.81 85.99L51.99 83.81L61.19 80L506.81 80L516.01 83.81L518.19 85.99L522 95.19L522 456.81L518.19 466.01L516.01 468.19L506.81 472L61.19 472L51.99 468.19L49.81 466.01L46 456.81ZM87.58 164L79.99 167.81L77.81 169.99L74 179.19L74 372.81L77.81 382.01L79.99 384.19L87.58 388L88.42 388L96.01 391.81L98.19 393.99L102 401.58L102 402.42L105.81 410.01L107.99 412.19L115.58 416L116.42 416L124.01 419.81L126.19 421.99L130 429.58L130 430.42L133.81 438.01L135.99 440.19L145.19 444L422.81 444L432.01 440.19L434.19 438.01L438 430.42L438 429.58L441.81 421.99L443.99 419.81L451.58 416L452.42 416L460.01 412.19L462.19 410.01L466 402.42L466 401.58L469.81 393.99L471.99 391.81L479.58 388L480.42 388L488.01 384.19L490.19 382.01L494 372.81L494 179.19L490.19 169.99L488.01 167.81L480.42 164L479.58 164L471.99 160.19L469.81 158.01L466 150.42L466 149.58L462.19 141.99L460.01 139.81L452.42 136L451.58 136L443.99 132.19L441.81 130.01L438 122.42L438 121.58L434.19 113.99L432.01 111.81L422.81 108L145.19 108L135.99 111.81L133.81 113.99L130 121.58L130 122.42L126.19 130.01L124.01 132.19L116.42 136L115.58 136L107.99 139.81L105.81 141.99L102 149.58L102 150.42L98.19 158.01L96.01 160.19L88.42 164Z" fill="none" stroke="#241c10" stroke-width="9" opacity="0.22" filter="url(#aoblur)"/>
<path d="M46 95.19L49.81 85.99L51.99 83.81L61.19 80L506.81 80L516.01 83.81L518.19 85.99L522 95.19L522 456.81L518.19 466.01L516.01 468.19L506.81 472L61.19 472L51.99 468.19L49.81 466.01L46 456.81ZM87.58 164L79.99 167.81L77.81 169.99L74 179.19L74 372.81L77.81 382.01L79.99 384.19L87.58 388L88.42 388L96.01 391.81L98.19 393.99L102 401.58L102 402.42L105.81 410.01L107.99 412.19L115.58 416L116.42 416L124.01 419.81L126.19 421.99L130 429.58L130 430.42L133.81 438.01L135.99 440.19L145.19 444L422.81 444L432.01 440.19L434.19 438.01L438 430.42L438 429.58L441.81 421.99L443.99 419.81L451.58 416L452.42 416L460.01 412.19L462.19 410.01L466 402.42L466 401.58L469.81 393.99L471.99 391.81L479.58 388L480.42 388L488.01 384.19L490.19 382.01L494 372.81L494 179.19L490.19 169.99L488.01 167.81L480.42 164L479.58 164L471.99 160.19L469.81 158.01L466 150.42L466 149.58L462.19 141.99L460.01 139.81L452.42 136L451.58 136L443.99 132.19L441.81 130.01L438 122.42L438 121.58L434.19 113.99L432.01 111.81L422.81 108L145.19 108L135.99 111.81L133.81 113.99L130 121.58L130 122.42L126.19 130.01L124.01 132.19L116.42 136L115.58 136L107.99 139.81L105.81 141.99L102 149.58L102 150.42L98.19 158.01L96.01 160.19L88.42 164Z" fill="#241c10" fill-rule="evenodd" opacity="0.28" filter="url(#softblur)" transform="translate(2.6,3.4)"/>
<path d="M186 93.58L189.81 85.99L191.99 83.81L201.19 80L366.81 80L376.01 83.81L378.19 85.99L382 93.58L382 94.42L378.19 102.01L376.01 104.19L366.81 108L201.19 108L191.99 104.19L189.81 102.01L186 94.42Z" fill="url(#t_pillar)" fill-rule="evenodd" stroke="url(#t_pillar)" stroke-width="2.4" stroke-linejoin="round"/>
<path d="M46 95.19L49.81 85.99L51.99 83.81L61.19 80L170.81 80L180.01 83.81L182.19 85.99L186 93.58L186 94.42L182.19 102.01L180.01 104.19L170.81 108L145.19 108L135.99 111.81L133.81 113.99L130 121.58L130 122.42L126.19 130.01L124.01 132.19L116.42 136L115.58 136L107.99 139.81L105.81 141.99L102 149.58L102 150.42L98.19 158.01L96.01 160.19L88.42 164L87.58 164L79.99 167.81L77.81 169.99L74 179.19L74 372.81L77.81 382.01L79.99 384.19L87.58 388L88.42 388L96.01 391.81L98.19 393.99L102 401.58L102 402.42L105.81 410.01L107.99 412.19L115.58 416L116.42 416L124.01 419.81L126.19 421.99L130 429.58L130 430.42L133.81 438.01L135.99 440.19L145.19 444L422.81 444L432.01 440.19L434.19 438.01L438 430.42L438 429.58L441.81 421.99L443.99 419.81L451.58 416L452.42 416L460.01 412.19L462.19 410.01L466 402.42L466 401.58L469.81 393.99L471.99 391.81L479.58 388L480.42 388L488.01 384.19L490.19 382.01L494 372.81L494 179.19L490.19 169.99L488.01 167.81L480.42 164L479.58 164L471.99 160.19L469.81 158.01L466 150.42L466 149.58L462.19 141.99L460.01 139.81L452.42 136L451.58 136L443.99 132.19L441.81 130.01L438 122.42L438 121.58L434.19 113.99L432.01 111.81L422.81 108L397.19 108L387.99 104.19L385.81 102.01L382 94.42L382 93.58L385.81 85.99L387.99 83.81L397.19 80L506.81 80L516.01 83.81L518.19 85.99L522 95.19L522 456.81L518.19 466.01L516.01 468.19L506.81 472L61.19 472L51.99 468.19L49.81 466.01L46 456.81Z" fill="url(#t_wall)" fill-rule="evenodd" stroke="url(#t_wall)" stroke-width="2.4" stroke-linejoin="round"/>
<rect x="46" y="80" width="476" height="392" filter="url(#mottle)" opacity="0.35"/>
<path d="M74 179.19L77.81 169.99L79.99 167.81L87.58 164L88.42 164L96.01 160.19L98.19 158.01L102 150.42L102 149.58L105.81 141.99L107.99 139.81L115.58 136L116.42 136L124.01 132.19L126.19 130.01L130 122.42L130 121.58L133.81 113.99L135.99 111.81L145.19 108L422.81 108L432.01 111.81L434.19 113.99L438 121.58L438 122.42L441.81 130.01L443.99 132.19L451.58 136L452.42 136L460.01 139.81L462.19 141.99L466 149.58L466 150.42L469.81 158.01L471.99 160.19L479.58 164L480.42 164L488.01 167.81L490.19 169.99L494 179.19L494 372.81L490.19 382.01L488.01 384.19L480.42 388L479.58 388L471.99 391.81L469.81 393.99L466 401.58L466 402.42L462.19 410.01L460.01 412.19L452.42 416L451.58 416L443.99 419.81L441.81 421.99L438 429.58L438 430.42L434.19 438.01L432.01 440.19L422.81 444L145.19 444L135.99 440.19L133.81 438.01L130 430.42L130 429.58L126.19 421.99L124.01 419.81L116.42 416L115.58 416L107.99 412.19L105.81 410.01L102 402.42L102 401.58L98.19 393.99L96.01 391.81L88.42 388L87.58 388L79.99 384.19L77.81 382.01L74 372.81Z" fill="none" stroke="#7a6a50" stroke-width="0.9" opacity="0.5" stroke-linejoin="round" filter="url(#rough)"/>
<path d="M186 93.58L189.81 85.99L191.99 83.81L201.19 80L366.81 80L376.01 83.81L378.19 85.99L382 93.58L382 94.42L378.19 102.01L376.01 104.19L366.81 108L201.19 108L191.99 104.19L189.81 102.01L186 94.42Z" fill="none" stroke="#241c10" stroke-width="1.8" opacity="0.9" stroke-linejoin="round" filter="url(#rough)"/>
<path d="M46 95.19L49.81 85.99L51.99 83.81L61.19 80L170.81 80L180.01 83.81L182.19 85.99L186 93.58L186 94.42L182.19 102.01L180.01 104.19L170.81 108L145.19 108L135.99 111.81L133.81 113.99L130 121.58L130 122.42L126.19 130.01L124.01 132.19L116.42 136L115.58 136L107.99 139.81L105.81 141.99L102 149.58L102 150.42L98.19 158.01L96.01 160.19L88.42 164L87.58 164L79.99 167.81L77.81 169.99L74 179.19L74 372.81L77.81 382.01L79.99 384.19L87.58 388L88.42 388L96.01 391.81L98.19 393.99L102 401.58L102 402.42L105.81 410.01L107.99 412.19L115.58 416L116.42 416L124.01 419.81L126.19 421.99L130 429.58L130 430.42L133.81 438.01L135.99 440.19L145.19 444L422.81 444L432.01 440.19L434.19 438.01L438 430.42L438 429.58L441.81 421.99L443.99 419.81L451.58 416L452.42 416L460.01 412.19L462.19 410.01L466 402.42L466 401.58L469.81 393.99L471.99 391.81L479.58 388L480.42 388L488.01 384.19L490.19 382.01L494 372.81L494 179.19L490.19 169.99L488.01 167.81L480.42 164L479.58 164L471.99 160.19L469.81 158.01L466 150.42L466 149.58L462.19 141.99L460.01 139.81L452.42 136L451.58 136L443.99 132.19L441.81 130.01L438 122.42L438 121.58L434.19 113.99L432.01 111.81L422.81 108L397.19 108L387.99 104.19L385.81 102.01L382 94.42L382 93.58L385.81 85.99L387.99 83.81L397.19 80L506.81 80L516.01 83.81L518.19 85.99L522 95.19L522 456.81L518.19 466.01L516.01 468.19L506.81 472L61.19 472L51.99 468.19L49.81 466.01L46 456.81Z" fill="none" stroke="#241c10" stroke-width="1.8" opacity="0.9" stroke-linejoin="round" filter="url(#rough)"/>
</g>
<path d="M74 80v392M102 80v392M130 80v392M158 80v392M214 80v392M242 80v392M270 80v392M298 80v392M354 80v392M382 80v392M410 80v392M438 80v392M494 80v392M522 80v392M46 108h476M46 136h476M46 164h476M46 192h476M46 248h476M46 276h476M46 304h476M46 332h476M46 388h476M46 416h476M46 444h476M46 472h476" stroke="#2e2313" stroke-width="0.6" opacity="0.3" fill="none"/>
<path d="M46 80v392M186 80v392M326 80v392M466 80v392M46 80h476M46 220h476M46 360h476" stroke="#2e2313" stroke-width="1.4" opacity="0.48" fill="none"/>
<g clip-path="url(#clipheavy)"><path d="M74 80v392M102 80v392M130 80v392M158 80v392M214 80v392M242 80v392M270 80v392M298 80v392M354 80v392M382 80v392M410 80v392M438 80v392M494 80v392M522 80v392M46 108h476M46 136h476M46 164h476M46 192h476M46 248h476M46 276h476M46 304h476M46 332h476M46 388h476M46 416h476M46 444h476M46 472h476" stroke="#efe4c9" stroke-width="0.6" opacity="0.16" fill="none"/><path d="M46 80v392M186 80v392M326 80v392M466 80v392M46 80h476M46 220h476M46 360h476" stroke="#efe4c9" stroke-width="1.4" opacity="0.26" fill="none"/></g>
<ellipse cx="285.4" cy="124.2" rx="10.36" ry="8.495199999999999" fill="#241c10" opacity="0.3"/>
<circle cx="284.0" cy="122.0" r="10.36" fill="url(#g_1d6fd8)" stroke="#241c10" stroke-width="1.6"/>
<circle cx="284.0" cy="122.0" r="7.959999999999999" fill="none" stroke="#ffffff" stroke-width="0.9" opacity="0.55"/>
<ellipse cx="257.4" cy="264.2" rx="10.36" ry="8.495199999999999" fill="#241c10" opacity="0.3"/>
<circle cx="256.0" cy="262.0" r="10.36" fill="url(#g_212529)" stroke="#241c10" stroke-width="1.6"/>
<circle cx="256.0" cy="262.0" r="7.959999999999999" fill="none" stroke="#ffffff" stroke-width="0.9" opacity="0.55"/>
<ellipse cx="285.4" cy="264.2" rx="10.36" ry="8.495199999999999" fill="#241c10" opacity="0.3"/>
<circle cx="284.0" cy="262.0" r="10.36" fill="url(#g_212529)" stroke="#241c10" stroke-width="1.6"/>
<circle cx="284.0" cy="262.0" r="7.959999999999999" fill="none" stroke="#ffffff" stroke-width="0.9" opacity="0.55"/>
<ellipse cx="257.4" cy="292.2" rx="10.36" ry="8.495199999999999" fill="#241c10" opacity="0.3"/>
<circle cx="256.0" cy="290.0" r="10.36" fill="url(#g_212529)" stroke="#241c10" stroke-width="1.6"/>
<circle cx="256.0" cy="290.0" r="7.959999999999999" fill="none" stroke="#ffffff" stroke-width="0.9" opacity="0.55"/>
<ellipse cx="285.4" cy="292.2" rx="10.36" ry="8.495199999999999" fill="#241c10" opacity="0.3"/>
<circle cx="284.0" cy="290.0" r="10.36" fill="url(#g_212529)" stroke="#241c10" stroke-width="1.6"/>
<circle cx="284.0" cy="290.0" r="7.959999999999999" fill="none" stroke="#ffffff" stroke-width="0.9" opacity="0.55"/>
<ellipse cx="285.4" cy="348.2" rx="10.36" ry="8.495199999999999" fill="#241c10" opacity="0.3"/>
<circle cx="284.0" cy="346.0" r="10.36" fill="url(#g_1d6fd8)" stroke="#241c10" stroke-width="1.6"/>
<circle cx="284.0" cy="346.0" r="7.959999999999999" fill="none" stroke="#ffffff" stroke-width="0.9" opacity="0.55"/>
<ellipse cx="285.4" cy="432.2" rx="10.36" ry="8.495199999999999" fill="#241c10" opacity="0.3"/>
<circle cx="284.0" cy="430.0" r="10.36" fill="url(#g_1d6fd8)" stroke="#241c10" stroke-width="1.6"/>
<circle cx="284.0" cy="430.0" r="7.959999999999999" fill="none" stroke="#ffffff" stroke-width="0.9" opacity="0.55"/>
<ellipse cx="285.0" cy="461.0" rx="9" ry="4.5" fill="#241c10" opacity="0.2"/>
<use href="#pr_door" x="270" y="444" width="28" height="28"/>
<text x="60.0" y="72" font-size="10" text-anchor="middle" fill="#7a6a50">A</text>
<text x="88.0" y="72" font-size="10" text-anchor="middle" fill="#7a6a50">B</text>
<text x="116.0" y="72" font-size="10" text-anchor="middle" fill="#7a6a50">C</text>
<text x="144.0" y="72" font-size="10" text-anchor="middle" fill="#7a6a50">D</text>
<text x="172.0" y="72" font-size="10" text-anchor="middle" fill="#7a6a50">E</text>
<text x="200.0" y="72" font-size="10" text-anchor="middle" fill="#7a6a50">F</text>
<text x="228.0" y="72" font-size="10" text-anchor="middle" fill="#7a6a50">G</text>
<text x="256.0" y="72" font-size="10" text-anchor="middle" fill="#7a6a50">H</text>
<text x="284.0" y="72" font-size="10" text-anchor="middle" fill="#7a6a50">I</text>
<text x="312.0" y="72" font-size="10" text-anchor="middle" fill="#7a6a50">J</text>
<text x="340.0" y="72" font-size="10" text-anchor="middle" fill="#7a6a50">K</text>
<text x="368.0" y="72" font-size="10" text-anchor="middle" fill="#7a6a50">L</text>
<text x="396.0" y="72" font-size="10" text-anchor="middle" fill="#7a6a50">M</text>
<text x="424.0" y="72" font-size="10" text-anchor="middle" fill="#7a6a50">N</text>
<text x="452.0" y="72" font-size="10" text-anchor="middle" fill="#7a6a50">O</text>
<text x="480.0" y="72" font-size="10" text-anchor="middle" fill="#7a6a50">P</text>
<text x="508.0" y="72" font-size="10" text-anchor="middle" fill="#7a6a50">Q</text>
<text x="37" y="97.0" font-size="10" text-anchor="end" fill="#7a6a50">01</text>
<text x="37" y="125.0" font-size="10" text-anchor="end" fill="#7a6a50">02</text>
<text x="37" y="153.0" font-size="10" text-anchor="end" fill="#7a6a50">03</text>
<text x="37" y="181.0" font-size="10" text-anchor="end" fill="#7a6a50">04</text>
<text x="37" y="209.0" font-size="10" text-anchor="end" fill="#7a6a50">05</text>
<text x="37" y="237.0" font-size="10" text-anchor="end" fill="#7a6a50">06</text>
<text x="37" y="265.0" font-size="10" text-anchor="end" fill="#7a6a50">07</text>
<text x="37" y="293.0" font-size="10" text-anchor="end" fill="#7a6a50">08</text>
<text x="37" y="321.0" font-size="10" text-anchor="end" fill="#7a6a50">09</text>
<text x="37" y="349.0" font-size="10" text-anchor="end" fill="#7a6a50">10</text>
<text x="37" y="377.0" font-size="10" text-anchor="end" fill="#7a6a50">11</text>
<text x="37" y="405.0" font-size="10" text-anchor="end" fill="#7a6a50">12</text>
<text x="37" y="433.0" font-size="10" text-anchor="end" fill="#7a6a50">13</text>
<text x="37" y="461.0" font-size="10" text-anchor="end" fill="#7a6a50">14</text>
<rect x="46" y="491" width="28" height="7" fill="#3b2e1e" stroke="#3b2e1e" stroke-width="1"/>
<rect x="74" y="491" width="28" height="7" fill="#efe4c9" stroke="#3b2e1e" stroke-width="1"/>
<rect x="102" y="491" width="28" height="7" fill="#3b2e1e" stroke="#3b2e1e" stroke-width="1"/>
<rect x="130" y="491" width="28" height="7" fill="#efe4c9" stroke="#3b2e1e" stroke-width="1"/>
<rect x="158" y="491" width="28" height="7" fill="#3b2e1e" stroke="#3b2e1e" stroke-width="1"/>
<text x="196" y="499" font-size="11" fill="#3b2e1e">7,5 m (5 quadretti)</text>
<text x="46" y="528" font-size="12" font-weight="bold" fill="#3b2e1e" letter-spacing="2">LEGENDA</text>
<path d="M120 524H522" stroke="#7a6a50" stroke-width="0.7" opacity="0.7"/>
<rect x="46" y="534" width="19" height="15" fill="url(#t_wall)" stroke="#7a6a50" stroke-width="0.7"/>
<text x="73" y="546" font-size="11" fill="#3b2e1e">🏰 — Muro / roccia solida</text>
<rect x="46" y="556" width="19" height="15" fill="url(#t_floor)" stroke="#7a6a50" stroke-width="0.7"/>
<text x="73" y="568" font-size="11" fill="#3b2e1e">⬜ — Pavimento lavorato</text>
<rect x="46" y="578" width="19" height="15" fill="url(#t_pillar)" stroke="#7a6a50" stroke-width="0.7"/>
<text x="73" y="590" font-size="11" fill="#3b2e1e">🟪 — Pilastro / mithral</text>
<circle cx="55" cy="608" r="7.5" fill="url(#g_212529)" stroke="#241c10" stroke-width="1.2"/>
<text x="73" y="612" font-size="11" fill="#3b2e1e">⚫ — Boss / comandante</text>
<circle cx="55" cy="630" r="7.5" fill="url(#g_1d6fd8)" stroke="#241c10" stroke-width="1.2"/>
<text x="73" y="634" font-size="11" fill="#3b2e1e">🔵 — PG / alleati</text>
<use href="#pr_door" x="46" y="643" width="18" height="18"/>
<text x="73" y="656" font-size="11" fill="#3b2e1e">🚪 — Porta / ingresso</text>
<text x="46" y="688" font-size="9" font-style="italic" fill="#7a6a50">fonte: Portale-Forgia-L3-REVISED-UltraClear.md · SVG generato da scripts/render_map_svg.py (stile pergamena) — non modificare a mano</text>
</svg>