<svg xmlns="http://www.w3.org/2000/svg" width="1576" height="1476" viewBox="0 0 1576 1476" font-family="Georgia, 'Palatino Linotype', 'Times New Roman', serif">
<defs>
<filter id="grain" x="0" y="0" width="100%" height="100%"><feTurbulence type="fractalNoise" baseFrequency="0.8" numOctaves="2" seed="11" stitchTiles="stitch"/><feColorMatrix type="matrix" values="0 0 0 0 0.36 0 0 0 0 0.28 0 0 0 0 0.16 0 0 0 0.18 0"/><feComposite operator="over" in2="SourceGraphic"/></filter>
<filter id="rough" x="-5%" y="-5%" width="110%" height="110%"><feTurbulence type="fractalNoise" baseFrequency="0.045" numOctaves="2" seed="7" result="n"/><feDisplacementMap in="SourceGraphic" in2="n" scale="2.6"/></filter>
<filter id="softblur" x="-20%" y="-20%" width="140%" height="140%"><feGaussianBlur stdDeviation="1.6"/></filter>
<filter id="aoblur" x="-30%" y="-30%" width="160%" height="160%"><feGaussianBlur stdDeviation="3.2"/></filter>
<filter id="mottle" x="0" y="0" width="100%" height="100%"><feTurbulence type="fractalNoise" baseFrequency="0.012" numOctaves="3" seed="4" stitchTiles="stitch"/><feColorMatrix type="matrix" values="0 0 0 0 0.24 0 0 0 0 0.18 0 0 0 0 0.10 0 0 0 0.5 0"/></filter>
<radialGradient id="vign" cx="0.5" cy="0.45" r="0.75"><stop offset="0.62" stop-color="#3b2e1e" stop-opacity="0"/><stop offset="1" stop-color="#3b2e1e" stop-opacity="0.16"/></radialGradient>
<clipPath id="clipgrid"><rect x="46" y="80" width="1484" height="1120"/></clipPath>
<clipPath id="clipheavy"><path d="M242 403.19L245.81 393.99L247.99 391.81L255.58 388L256.42 388L264.01 384.19L266.19 382.01L270 372.81L270 347.19L273.81 337.99L275.99 335.81L283.58 332L284.42 332L292.01 328.19L294.19 326.01L298 316.81L298 291.19L301.81 281.99L303.99 279.81L313.19 276L954.81 276L964.01 279.81L966.19 281.99L970 291.19L970 316.81L973.81 326.01L975.99 328.19L983.58 332L984.42 332L992.01 335.81L994.19 337.99L998 347.19L998 372.81L994.19 382.01L992.01 384.19L984.42 388L983.58 388L975.99 391.81L973.81 393.99L970 403.19L970 456.81L966.19 466.01L964.01 468.19L954.81 472L817.19 472L807.99 475.81L805.81 477.99L802 487.19L802 540.81L805.81 550.01L807.99 552.19L815.58 556L816.42 556L824.01 559.81L826.19 561.99L830 571.19L830 596.81L826.19 606.01L824.01 608.19L816.42 612L815.58 612L807.99 615.81L805.81 617.99L802 627.19L802 652.81L798.19 662.01L796.01 664.19L788.42 668L787.58 668L779.99 671.81L777.81 673.99L774 683.19L774 960.81L770.19 970.01L768.01 972.19L758.81 976L257.19 976L247.99 972.19L245.81 970.01L242 960.81Z" clip-rule="evenodd"/></clipPath>
<pattern id="t_forest" width="42" height="42" patternUnits="userSpaceOnUse"><rect width="42" height="42" fill="#55754d"/><circle cx="10" cy="12" r="9" fill="#435f3c"/><circle cx="7.4799999999999995" cy="9.3" r="5.58" fill="#5d7f53"/><circle cx="6.4" cy="7.95" r="2.34" fill="#6f9163"/><circle cx="30" cy="28" r="10" fill="#435f3c"/><circle cx="27.2" cy="25.0" r="6.2" fill="#5d7f53"/><circle cx="26.0" cy="23.5" r="2.6" fill="#6f9163"/><circle cx="34" cy="6" r="7" fill="#435f3c"/><circle cx="32.04" cy="3.9" r="4.34" fill="#5d7f53"/><circle cx="31.2" cy="2.85" r="1.82" fill="#6f9163"/><circle cx="6" cy="34" r="7.5" fill="#435f3c"/><circle cx="3.9" cy="31.75" r="4.65" fill="#5d7f53"/><circle cx="3.0" cy="30.625" r="1.9500000000000002" fill="#6f9163"/></pattern>
<pattern id="t_grass" width="28" height="28" patternUnits="userSpaceOnUse"><rect width="28" height="28" fill="#b3c489"/><path d="M5 21q1.5-4 3-5M8 21q0-3 2-5M20 8q1.5-2.5 3-3.5" stroke="#94a76a" stroke-width="0.9" stroke-opacity="0.6" fill="none" stroke-linecap="round"/><circle cx="14" cy="16" r="0.9" fill="#c5d29b"/><circle cx="24" cy="24" r="0.8" fill="#c5d29b"/><circle cx="4" cy="7" r="0.8" fill="#a3b573"/><circle cx="25" cy="13" r="0.7" fill="#a3b573"/></pattern>
<pattern id="t_struct" width="28" height="28" patternUnits="userSpaceOnUse"><rect width="28" height="28" fill="#6b5b47"/><path d="M-2 6l8-8M-2 14l16-16M-2 22l24-24M6 30l24-24M14 30l16-16M22 30l8-8" stroke="#5a4b39" stroke-width="0.9"/><path d="M0 14.5h28" stroke="#7d6c56" stroke-width="0.8"/></pattern>
<symbol id="pr_fire" viewBox="0 0 28 28"><path d="M14 4c4 5 7 8 7 13a7 7 0 0 1-14 0c0-5 3-8 7-13z" fill="#e2762d" stroke="#8a3c14" stroke-width="1"/><path d="M14 9c2.5 3.5 4.5 5.5 4.5 8.5a4.5 4.5 0 0 1-9 0c0-3 2-5 4.5-8.5z" fill="#f2a93b"/><path d="M14 14c1.3 1.8 2.3 2.8 2.3 4.4a2.3 2.3 0 0 1-4.6 0c0-1.6 1-2.6 2.3-4.4z" fill="#f8d778"/></symbol>
<symbol id="pr_urn" viewBox="0 0 28 28"><path d="M11 6h6l-.8 2.6c2.6 1.2 4 3.2 4 6 0 4.2-2.6 7-6.2 7s-6.2-2.8-6.2-7c0-2.8 1.4-4.8 4-6z" fill="#b0703f" stroke="#5c3517" stroke-width="1.1"/><path d="M11.5 8.4h5" stroke="#5c3517" stroke-width="0.8"/><path d="M8.6 11.5q-2.4.6-1.6 2.6M19.4 11.5q2.4.6 1.6 2.6" stroke="#5c3517" stroke-width="1" fill="none"/><path d="M11 11q-1.4 2.4 0 5.4" stroke="#d09a6a" stroke-width="0.9" fill="none"/></symbol>
<radialGradient id="g_212529" cx="0.35" cy="0.3" r="0.8"><stop offset="0" stop-color="#858789"/><stop offset="0.55" stop-color="#212529"/><stop offset="1" stop-color="#15181b"/></radialGradient>
<radialGradient id="g_d62828" cx="0.35" cy="0.3" r="0.8"><stop offset="0" stop-color="#e88989"/><stop offset="0.55" stop-color="#d62828"/><stop offset="1" stop-color="#8b1a1a"/></radialGradient>
<radialGradient id="g_f4b400" cx="0.35" cy="0.3" r="0.8"><stop offset="0" stop-color="#f9d673"/><stop offset="0.55" stop-color="#f4b400"/><stop offset="1" stop-color="#9f7500"/></radialGradient>
</defs>
<rect width="1576" height="1476" fill="#efe4c9" filter="url(#grain)"/>
<rect width="1576" height="1476" fill="url(#vign)"/>
<rect x="5" y="5" width="1566" height="1466" fill="none" stroke="#3b2e1e" stroke-width="0.8" opacity="0.8"/>
<rect x="9" y="9" width="1558" height="1458" fill="none" stroke="#3b2e1e" stroke-width="2" opacity="0.85"/>
<text x="46" y="34" font-size="19" font-weight="bold" fill="#3b2e1e" letter-spacing="0.5">CAMPO DROW 1 - BURNING OPERATIONS BASE (80m × 60m, Grid 53×40, Scala 1.5m/sq)</text>
<text x="46" y="51" font-size="11" font-style="italic" fill="#7a6a50">53×40 quadretti · scala 1,5 m/quadretto</text>
<rect x="41" y="75" width="1494" height="1130" fill="#e6d9b8" stroke="#3b2e1e" stroke-width="1.6"/>
<g clip-path="url(#clipgrid)">
<path d="M74 627.19L77.81 617.99L79.99 615.81L87.58 612L88.42 612L96.01 608.19L98.19 606.01L102 596.81L102 235.19L105.81 225.99L107.99 223.81L115.58 220L116.42 220L124.01 216.19L126.19 214.01L130 206.42L130 205.58L133.81 197.99L135.99 195.81L143.58 192L144.42 192L152.01 188.19L154.19 186.01L158 178.42L158 177.58L161.81 169.99L163.99 167.81L173.19 164L1290.81 164L1300.01 167.81L1302.19 169.99L1306 177.58L1306 178.42L1309.81 186.01L1311.99 188.19L1321.19 192L1346.81 192L1356.01 195.81L1358.19 197.99L1362 207.19L1362 260.81L1358.19 270.01L1356.01 272.19L1346.81 276L1321.19 276L1311.99 279.81L1309.81 281.99L1306 291.19L1306 372.81L1302.19 382.01L1300.01 384.19L1292.42 388L1291.58 388L1283.99 391.81L1281.81 393.99L1278 403.19L1278 596.81L1274.19 606.01L1272.01 608.19L1264.42 612L1263.58 612L1255.99 615.81L1253.81 617.99L1250 627.19L1250 960.81L1253.81 970.01L1255.99 972.19L1265.19 976L1290.81 976L1300.01 979.81L1302.19 981.99L1306 991.19L1306 1128.81L1302.19 1138.01L1300.01 1140.19L1290.81 1144L145.19 1144L135.99 1140.19L133.81 1138.01L130 1130.42L130 1129.58L126.19 1121.99L124.01 1119.81L116.42 1116L115.58 1116L107.99 1112.19L105.81 1110.01L102 1100.81L102 991.19L98.19 981.99L96.01 979.81L88.42 976L87.58 976L79.99 972.19L77.81 970.01L74 960.81ZM255.58 388L247.99 391.81L245.81 393.99L242 403.19L242 960.81L245.81 970.01L247.99 972.19L257.19 976L758.81 976L768.01 972.19L770.19 970.01L774 960.81L774 683.19L777.81 673.99L779.99 671.81L787.58 668L788.42 668L796.01 664.19L798.19 662.01L802 652.81L802 627.19L805.81 617.99L807.99 615.81L815.58 612L816.42 612L824.01 608.19L826.19 606.01L830 596.81L830 571.19L826.19 561.99L824.01 559.81L816.42 556L815.58 556L807.99 552.19L805.81 550.01L802 540.81L802 487.19L805.81 477.99L807.99 475.81L817.19 472L954.81 472L964.01 468.19L966.19 466.01L970 456.81L970 403.19L973.81 393.99L975.99 391.81L983.58 388L984.42 388L992.01 384.19L994.19 382.01L998 372.81L998 347.19L994.19 337.99L992.01 335.81L984.42 332L983.58 332L975.99 328.19L973.81 326.01L970 316.81L970 291.19L966.19 281.99L964.01 279.81L954.81 276L313.19 276L303.99 279.81L301.81 281.99L298 291.19L298 316.81L294.19 326.01L292.01 328.19L284.42 332L283.58 332L275.99 335.81L273.81 337.99L270 347.19L270 372.81L266.19 382.01L264.01 384.19L256.42 388Z" fill="url(#t_grass)" fill-rule="evenodd" stroke="url(#t_grass)" stroke-width="2.4" stroke-linejoin="round"/>
<path d="M46 95.19L49.81 85.99L51.99 83.81L61.19 80L1514.81 80L1524.01 83.81L1526.19 85.99L1530 95.19L1530 176.81L1526.19 186.01L1524.01 188.19L1516.42 192L1515.58 192L1507.99 195.81L1505.81 197.99L1502 207.19L1502 372.81L1498.19 382.01L1496.01 384.19L1488.42 388L1487.58 388L1479.99 391.81L1477.81 393.99L1474 403.19L1474 596.81L1470.19 606.01L1468.01 608.19L1460.42 612L1459.58 612L1451.99 615.81L1449.81 617.99L1446 627.19L1446 960.81L1449.81 970.01L1451.99 972.19L1461.19 976L1486.81 976L1496.01 979.81L1498.19 981.99L1502 991.19L1502 1128.81L1505.81 1138.01L1507.99 1140.19L1515.58 1144L1516.42 1144L1524.01 1147.81L1526.19 1149.99L1530 1159.19L1530 1184.81L1526.19 1194.01L1524.01 1196.19L1514.81 1200L61.19 1200L51.99 1196.19L49.81 1194.01L46 1184.81ZM87.58 612L79.99 615.81L77.81 617.99L74 627.19L74 960.81L77.81 970.01L79.99 972.19L87.58 976L88.42 976L96.01 979.81L98.19 981.99L102 991.19L102 1100.81L105.81 1110.01L107.99 1112.19L115.58 1116L116.42 1116L124.01 1119.81L126.19 1121.99L130 1129.58L130 1130.42L133.81 1138.01L135.99 1140.19L145.19 1144L1290.81 1144L1300.01 1140.19L1302.19 1138.01L1306 1128.81L1306 991.19L1302.19 981.99L1300.01 979.81L1290.81 976L1265.19 976L1255.99 972.19L1253.81 970.01L1250 960.81L1250 627.19L1253.81 617.99L1255.99 615.81L1263.58 612L1264.42 612L1272.01 608.19L1274.19 606.01L1278 596.81L1278 403.19L1281.81 393.99L1283.99 391.81L1291.58 388L1292.42 388L1300.01 384.19L1302.19 382.01L1306 372.81L1306 291.19L1309.81 281.99L1311.99 279.81L1321.19 276L1346.81 276L1356.01 272.19L1358.19 270.01L1362 260.81L1362 207.19L1358.19 197.99L1356.01 195.81L1346.81 192L1321.19 192L1311.99 188.19L1309.81 186.01L1306 178.42L1306 177.58L1302.19 169.99L1300.01 167.81L1290.81 164L173.19 164L163.99 167.81L161.81 169.99L158 177.58L158 178.42L154.19 186.01L152.01 188.19L144.42 192L143.58 192L135.99 195.81L133.81 197.99L130 205.58L130 206.42L126.19 214.01L124.01 216.19L116.42 220L115.58 220L107.99 223.81L105.81 225.99L102 235.19L102 596.81L98.19 606.01L96.01 608.19L88.42 612Z" fill="url(#t_forest)" fill-rule="evenodd" stroke="url(#t_forest)" stroke-width="2.4" stroke-linejoin="round"/>
<path d="M242 403.19L245.81 393.99L247.99 391.81L255.58 388L256.42 388L264.01 384.19L266.19 382.01L270 372.81L270 347.19L273.81 337.99L275.99 335.81L283.58 332L284.42 332L292.01 328.19L294.19 326.01L298 316.81L298 291.19L301.81 281.99L303.99 279.81L313.19 276L954.81 276L964.01 279.81L966.19 281.99L970 291.19L970 316.81L973.81 326.01L975.99 328.19L983.58 332L984.42 332L992.01 335.81L994.19 337.99L998 347.19L998 372.81L994.19 382.01L992.01 384.19L984.42 388L983.58 388L975.99 391.81L973.81 393.99L970 403.19L970 456.81L966.19 466.01L964.01 468.19L954.81 472L817.19 472L807.99 475.81L805.81 477.99L802 487.19L802 540.81L805.81 550.01L807.99 552.19L815.58 556L816.42 556L824.01 559.81L826.19 561.99L830 571.19L830 596.81L826.19 606.01L824.01 608.19L816.42 612L815.58 612L807.99 615.81L805.81 617.99L802 627.19L802 652.81L798.19 662.01L796.01 664.19L788.42 668L787.58 668L779.99 671.81L777.81 673.99L774 683.19L774 960.81L770.19 970.01L768.01 972.19L758.81 976L257.19 976L247.99 972.19L245.81 970.01L242 960.81Z" fill="none" stroke="#241c10" stroke-width="9" opacity="0.22" filter="url(#aoblur)"/>
<path d="M242 403.19L245.81 393.99L247.99 391.81L255.58 388L256.42 388L264.01 384.19L266.19 382.01L270 372.81L270 347.19L273.81 337.99L275.99 335.81L283.58 332L284.42 332L292.01 328.19L294.19 326.01L298 316.81L298 291.19L301.81 281.99L303.99 279.81L313.19 276L954.81 276L964.01 279.81L966.19 281.99L970 291.19L970 316.81L973.81 326.01L975.99 328.19L983.58 332L984.42 332L992.01 335.81L994.19 337.99L998 347.19L998 372.81L994.19 382.01L992.01 384.19L984.42 388L983.58 388L975.99 391.81L973.81 393.99L970 403.19L970 456.81L966.19 466.01L964.01 468.19L954.81 472L817.19 472L807.99 475.81L805.81 477.99L802 487.19L802 540.81L805.81 550.01L807.99 552.19L815.58 556L816.42 556L824.01 559.81L826.19 561.99L830 571.19L830 596.81L826.19 606.01L824.01 608.19L816.42 612L815.58 612L807.99 615.81L805.81 617.99L802 627.19L802 652.81L798.19 662.01L796.01 664.19L788.42 668L787.58 668L779.99 671.81L777.81 673.99L774 683.19L774 960.81L770.19 970.01L768.01 972.19L758.81 976L257.19 976L247.99 972.19L245.81 970.01L242 960.81Z" fill="#241c10" fill-rule="evenodd" opacity="0.28" filter="url(#softblur)" transform="translate(2.6,3.4)"/>
<path d="M242 403.19L245.81 393.99L247.99 391.81L255.58 388L256.42 388L264.01 384.19L266.19 382.01L270 372.81L270 347.19L273.81 337.99L275.99 335.81L283.58 332L284.42 332L292.01 328.19L294.19 326.01L298 316.81L298 291.19L301.81 281.99L303.99 279.81L313.19 276L954.81 276L964.01 279.81L966.19 281.99L970 291.19L970 316.81L973.81 326.01L975.99 328.19L983.58 332L984.42 332L992.01 335.81L994.19 337.99L998 347.19L998 372.81L994.19 382.01L992.01 384.19L984.42 388L983.58 388L975.99 391.81L973.81 393.99L970 403.19L970 456.81L966.19 466.01L964.01 468.19L954.81 472L817.19 472L807.99 475.81L805.81 477.99L802 487.19L802 540.81L805.81 550.01L807.99 552.19L815.58 556L816.42 556L824.01 559.81L826.19 561.99L830 571.19L830 596.81L826.19 606.01L824.01 608.19L816.42 612L815.58 612L807.99 615.81L805.81 617.99L802 627.19L802 652.81L798.19 662.01L796.01 664.19L788.42 668L787.58 668L779.99 671.81L777.81 673.99L774 683.19L774 960.81L770.19 970.01L768.01 972.19L758.81 976L257.19 976L247.99 972.19L245.81 970.01L242 960.81Z" fill="url(#t_struct)" fill-rule="evenodd" stroke="url(#t_struct)" stroke-width="2.4" stroke-linejoin="round"/>
<rect x="46" y="80" width="1484" height="1120" filter="url(#mottle)" opacity="0.35"/>
<path d="M74 627.19L77.81 617.99L79.99 615.81L87.58 612L88.42 612L96.01 608.19L98.19 606.01L102 596.81L102 235.19L105.81 225.99L107.99 223.81L115.58 220L116.42 220L124.01 216.19L126.19 214.01L130 206.42L130 205.58L133.81 197.99L135.99 195.81L143.58 192L144.42 192L152.01 188.19L154.19 186.01L158 178.42L158 177.58L161.81 169.99L163.99 167.81L173.19 164L1290.81 164L1300.01 167.81L1302.19 169.99L1306 177.58L1306 178.42L1309.81 186.01L1311.99 188.19L1321.19 192L1346.81 192L1356.01 195.81L1358.19 197.99L1362 207.19L1362 260.81L1358.19 270.01L1356.01 272.19L1346.81 276L1321.19 276L1311.99 279.81L1309.81 281.99L1306 291.19L1306 372.81L1302.19 382.01L1300.01 384.19L1292.42 388L1291.58 388L1283.99 391.81L1281.81 393.99L1278 403.19L1278 596.81L1274.19 606.01L1272.01 608.19L1264.42 612L1263.58 612L1255.99 615.81L1253.81 617.99L1250 627.19L1250 960.81L1253.81 970.01L1255.99 972.19L1265.19 976L1290.81 976L1300.01 979.81L1302.19 981.99L1306 991.19L1306 1128.81L1302.19 1138.01L1300.01 1140.19L1290.81 1144L145.19 1144L135.99 1140.19L133.81 1138.01L130 1130.42L130 1129.58L126.19 1121.99L124.01 1119.81L116.42 1116L115.58 1116L107.99 1112.19L105.81 1110.01L102 1100.81L102 991.19L98.19 981.99L96.01 979.81L88.42 976L87.58 976L79.99 972.19L77.81 970.01L74 960.81ZM255.58 388L247.99 391.81L245.81 393.99L242 403.19L242 960.81L245.81 970.01L247.99 972.19L257.19 976L758.81 976L768.01 972.19L770.19 970.01L774 960.81L774 683.19L777.81 673.99L779.99 671.81L787.58 668L788.42 668L796.01 664.19L798.19 662.01L802 652.81L802 627.19L805.81 617.99L807.99 615.81L815.58 612L816.42 612L824.01 608.19L826.19 606.01L830 596.81L830 571.19L826.19 561.99L824.01 559.81L816.42 556L815.58 556L807.99 552.19L805.81 550.01L802 540.81L802 487.19L805.81 477.99L807.99 475.81L817.19 472L954.81 472L964.01 468.19L966.19 466.01L970 456.81L970 403.19L973.81 393.99L975.99 391.81L983.58 388L984.42 388L992.01 384.19L994.19 382.01L998 372.81L998 347.19L994.19 337.99L992.01 335.81L984.42 332L983.58 332L975.99 328.19L973.81 326.01L970 316.81L970 291.19L966.19 281.99L964.01 279.81L954.81 276L313.19 276L303.99 279.81L301.81 281.99L298 291.19L298 316.81L294.19 326.01L292.01 328.19L284.42 332L283.58 332L275.99 335.81L273.81 337.99L270 347.19L270 372.81L266.19 382.01L264.01 384.19L256.42 388Z" fill="none" stroke="#7a6a50" stroke-width="0.9" opacity="0.5" stroke-linejoin="round" filter="url(#rough)"/>
<path d="M46 95.19L49.81 85.99L51.99 83.81L61.19 80L1514.81 80L1524.01 83.81L1526.19 85.99L1530 95.19L1530 176.81L1526.19 186.01L1524.01 188.19L1516.42 192L1515.58 192L1507.99 195.81L1505.81 197.99L1502 207.19L1502 372.81L1498.19 382.01L1496.01 384.19L1488.42 388L1487.58 388L1479.99 391.81L1477.81 393.99L1474 403.19L1474 596.81L1470.19 606.01L1468.01 608.19L1460.42 612L1459.58 612L1451.99 615.81L1449.81 617.99L1446 627.19L1446 960.81L1449.81 970.01L1451.99 972.19L1461.19 976L1486.81 976L1496.01 979.81L1498.19 981.99L1502 991.19L1502 1128.81L1505.81 1138.01L1507.99 1140.19L1515.58 1144L1516.42 1144L1524.01 1147.81L1526.19 1149.99L1530 1159.19L1530 1184.81L1526.19 1194.01L1524.01 1196.19L1514.81 1200L61.19 1200L51.99 1196.19L49.81 1194.01L46 1184.81ZM87.58 612L79.99 615.81L77.81 617.99L74 627.19L74 960.81L77.81 970.01L79.99 972.19L87.58 976L88.42 976L96.01 979.81L98.19 981.99L102 991.19L102 1100.81L105.81 1110.01L107.99 1112.19L115.58 1116L116.42 1116L124.01 1119.81L126.19 1121.99L130 1129.58L130 1130.42L133.81 1138.01L135.99 1140.19L145.19 1144L1290.81 1144L1300.01 1140.19L1302.19 1138.01L1306 1128.81L1306 991.19L1302.19 981.99L1300.01 979.81L1290.81 976L1265.19 976L1255.99 972.19L1253.81 970.01L1250 960.81L1250 627.19L1253.81 617.99L1255.99 615.81L1263.58 612L1264.42 612L1272.01 608.19L1274.19 606.01L1278 596.81L1278 403.19L1281.81 393.99L1283.99 391.81L1291.58 388L1292.42 388L1300.01 384.19L1302.19 382.01L1306 372.81L1306 291.19L1309.81 281.99L1311.99 279.81L1321.19 276L1346.81 276L1356.01 272.19L1358.19 270.01L1362 260.81L1362 207.19L1358.19 197.99L1356.01 195.81L1346.81 192L1321.19 192L1311.99 188.19L1309.81 186.01L1306 178.42L1306 177.58L1302.19 169.99L1300.01 167.81L1290.81 164L173.19 164L163.99 167.81L161.81 169.99L158 177.58L158 178.42L154.19 186.01L152.01 188.19L144.42 192L143.58 192L135.99 195.81L133.81 197.99L130 205.58L130 206.42L126.19 214.01L124.01 216.19L116.42 220L115.58 220L107.99 223.81L105.81 225.99L102 235.19L102 596.81L98.19 606.01L96.01 608.19L88.42 612Z" fill="none" stroke="#7a6a50" stroke-width="0.9" opacity="0.5" stroke-linejoin="round" filter="url(#rough)"/>
<path d="M242 403.19L245.81 393.99L247.99 391.81L255.58 388L256.42 388L264.01 384.19L266.19 382.01L270 372.81L270 347.19L273.81 337.99L275.99 335.81L283.58 332L284.42 332L292.01 328.19L294.19 326.01L298 316.81L298 291.19L301.81 281.99L303.99 279.81L313.19 276L954.81 276L964.01 279.81L966.19 281.99L970 291.19L970 316.81L973.81 326.01L975.99 328.19L983.58 332L984.42 332L992.01 335.81L994.19 337.99L998 347.19L998 372.81L994.19 382.01L992.01 384.19L984.42 388L983.58 388L975.99 391.81L973.81 393.99L970 403.19L970 456.81L966.19 466.01L964.01 468.19L954.81 472L817.19 472L807.99 475.81L805.81 477.99L802 487.19L802 540.81L805.81 550.01L807.99 552.19L815.58 556L816.42 556L824.01 559.81L826.19 561.99L830 571.19L830 596.81L826.19 606.01L824.01 608.19L816.42 612L815.58 612L807.99 615.81L805.81 617.99L802 627.19L802 652.81L798.19 662.01L796.01 664.19L788.42 668L787.58 668L779.99 671.81L777.81 673.99L774 683.19L774 960.81L770.19 970.01L768.01 972.19L758.81 976L257.19 976L247.99 972.19L245.81 970.01L242 960.81Z" fill="none" stroke="#241c10" stroke-width="1.8" opacity="0.9" stroke-linejoin="round" filter="url(#rough)"/>
</g>
<path d="M74 80v1120M102 80v1120M130 80v1120M158 80v1120M214 80v1120M242 80v1120M270 80v1120M298 80v1120M354 80v1120M382 80v1120M410 80v1120M438 80v1120M494 80v1120M522 80v1120M550 80v1120M578 80v1120M634 80v1120M662 80v1120M690 80v1120M718 80v1120M774 80v1120M802 80v1120M830 80v1120M858 80v1120M914 80v1120M942 80v1120M970 80v1120M998 80v1120M1054 80v1120M1082 80v1120M1110 80v1120M1138 80v1120M1194 80v1120M1222 80v1120M1250 80v1120M1278 80v1120M1334 80v1120M1362 80v1120M1390 80v1120M1418 80v1120M1474 80v1120M1502 80v1120M1530 80v1120M46 108h1484M46 136h1484M46 164h1484M46 192h1484M46 248h1484M46 276h1484M46 304h1484M46 332h1484M46 388h1484M46 416h1484M46 444h1484M46 472h1484M46 528h1484M46 556h1484M46 584h1484M46 612h1484M46 668h1484M46 696h1484M46 724h1484M46 752h1484M46 808h1484M46 836h1484M46 864h1484M46 892h1484M46 948h1484M46 976h1484M46 1004h1484M46 1032h1484M46 1088h1484M46 1116h1484M46 1144h1484M46 1172h1484" stroke="#2e2313" stroke-width="0.6" opacity="0.3" fill="none"/>
<path d="M46 80v1120M186 80v1120M326 80v1120M466 80v1120M606 80v1120M746 80v1120M886 80v1120M1026 80v1120M1166 80v1120M1306 80v1120M1446 80v1120M46 80h1484M46 220h1484M46 360h1484M46 500h1484M46 640h1484M46 780h1484M46 920h1484M46 1060h1484M46 1200h1484" stroke="#2e2313" stroke-width="1.4" opacity="0.48" fill="none"/>
<g clip-path="url(#clipheavy)"><path d="M74 80v1120M102 80v1120M130 80v1120M158 80v1120M214 80v1120M242 80v1120M270 80v1120M298 80v1120M354 80v1120M382 80v1120M410 80v1120M438 80v1120M494 80v1120M522 80v1120M550 80v1120M578 80v1120M634 80v1120M662 80v1120M690 80v1120M718 80v1120M774 80v1120M802 80v1120M830 80v1120M858 80v1120M914 80v1120M942 80v1120M970 80v1120M998 80v1120M1054 80v1120M1082 80v1120M1110 80v1120M1138 80v1120M1194 80v1120M1222 80v1120M1250 80v1120M1278 80v1120M1334 80v1120M1362 80v1120M1390 80v1120M1418 80v1120M1474 80v1120M1502 80v1120M1530 80v1120M46 108h1484M46 136h1484M46 164h1484M46 192h1484M46 248h1484M46 276h1484M46 304h1484M46 332h1484M46 388h1484M46 416h1484M46 444h1484M46 472h1484M46 528h1484M46 556h1484M46 584h1484M46 612h1484M46 668h1484M46 696h1484M46 724h1484M46 752h1484M46 808h1484M46 836h1484M46 864h1484M46 892h1484M46 948h1484M46 976h1484M46 1004h1484M46 1032h1484M46 1088h1484M46 1116h1484M46 1144h1484M46 1172h1484" stroke="#efe4c9" stroke-width="0.6" opacity="0.16" fill="none"/><path d="M46 80v1120M186 80v1120M326 80v1120M466 80v1120M606 80v1120M746 80v1120M886 80v1120M1026 80v1120M1166 80v1120M1306 80v1120M1446 80v1120M46 80h1484M46 220h1484M46 360h1484M46 500h1484M46 640h1484M46 780h1484M46 920h1484M46 1060h1484M46 1200h1484" stroke="#efe4c9" stroke-width="1.4" opacity="0.26" fill="none"/></g>
<ellipse cx="425.4" cy="236.2" rx="10.36" ry="8.495199999999999" fill="#241c10" opacity="0.3"/>
<circle cx="424.0" cy="234.0" r="10.36" fill="url(#g_d62828)" stroke="#241c10" stroke-width="1.6"/>
<circle cx="424.0" cy="234.0" r="7.959999999999999" fill="none" stroke="#ffffff" stroke-width="0.9" opacity="0.55"/>
<ellipse cx="1041.4" cy="236.2" rx="10.36" ry="8.495199999999999" fill="#241c10" opacity="0.3"/>
<circle cx="1040.0" cy="234.0" r="10.36" fill="url(#g_d62828)" stroke="#241c10" stroke-width="1.6"/>
<circle cx="1040.0" cy="234.0" r="7.959999999999999" fill="none" stroke="#ffffff" stroke-width="0.9" opacity="0.55"/>
<ellipse cx="425.4" cy="264.2" rx="10.36" ry="8.495199999999999" fill="#241c10" opacity="0.3"/>
<circle cx="424.0" cy="262.0" r="10.36" fill="url(#g_d62828)" stroke="#241c10" stroke-width="1.6"/>
<circle cx="424.0" cy="262.0" r="7.959999999999999" fill="none" stroke="#ffffff" stroke-width="0.9" opacity="0.55"/>
<ellipse cx="1041.4" cy="264.2" rx="10.36" ry="8.495199999999999" fill="#241c10" opacity="0.3"/>
<circle cx="1040.0" cy="262.0" r="10.36" fill="url(#g_d62828)" stroke="#241c10" stroke-width="1.6"/>
<circle cx="1040.0" cy="262.0" r="7.959999999999999" fill="none" stroke="#ffffff" stroke-width="0.9" opacity="0.55"/>
<ellipse cx="369.4" cy="404.2" rx="10.36" ry="8.495199999999999" fill="#241c10" opacity="0.3"/>
<circle cx="368.0" cy="402.0" r="10.36" fill="url(#g_d62828)" stroke="#241c10" stroke-width="1.6"/>
<circle cx="368.0" cy="402.0" r="7.959999999999999" fill="none" stroke="#ffffff" stroke-width="0.9" opacity="0.55"/>
<ellipse cx="481.4" cy="404.2" rx="10.36" ry="8.495199999999999" fill="#241c10" opacity="0.3"/>
<circle cx="480.0" cy="402.0" r="10.36" fill="url(#g_f4b400)" stroke="#241c10" stroke-width="1.6"/>
<circle cx="480.0" cy="402.0" r="7.959999999999999" fill="none" stroke="#ffffff" stroke-width="0.9" opacity="0.55"/>
<ellipse cx="593.4" cy="404.2" rx="10.36" ry="8.495199999999999" fill="#241c10" opacity="0.3"/>
<circle cx="592.0" cy="402.0" r="10.36" fill="url(#g_d62828)" stroke="#241c10" stroke-width="1.6"/>
<circle cx="592.0" cy="402.0" r="7.959999999999999" fill="none" stroke="#ffffff" stroke-width="0.9" opacity="0.55"/>
<ellipse cx="705.4" cy="404.2" rx="10.36" ry="8.495199999999999" fill="#241c10" opacity="0.3"/>
<circle cx="704.0" cy="402.0" r="10.36" fill="url(#g_f4b400)" stroke="#241c10" stroke-width="1.6"/>
<circle cx="704.0" cy="402.0" r="7.959999999999999" fill="none" stroke="#ffffff" stroke-width="0.9" opacity="0.55"/>
<ellipse cx="817.4" cy="404.2" rx="10.36" ry="8.495199999999999" fill="#241c10" opacity="0.3"/>
<circle cx="816.0" cy="402.0" r="10.36" fill="url(#g_d62828)" stroke="#241c10" stroke-width="1.6"/>
<circle cx="816.0" cy="402.0" r="7.959999999999999" fill="none" stroke="#ffffff" stroke-width="0.9" opacity="0.55"/>
<ellipse cx="369.4" cy="432.2" rx="10.36" ry="8.495199999999999" fill="#241c10" opacity="0.3"/>
<circle cx="368.0" cy="430.0" r="10.36" fill="url(#g_d62828)" stroke="#241c10" stroke-width="1.6"/>
<circle cx="368.0" cy="430.0" r="7.959999999999999" fill="none" stroke="#ffffff" stroke-width="0.9" opacity="0.55"/>
<ellipse cx="481.4" cy="432.2" rx="10.36" ry="8.495199999999999" fill="#241c10" opacity="0.3"/>
<circle cx="480.0" cy="430.0" r="10.36" fill="url(#g_f4b400)" stroke="#241c10" stroke-width="1.6"/>
<circle cx="480.0" cy="430.0" r="7.959999999999999" fill="none" stroke="#ffffff" stroke-width="0.9" opacity="0.55"/>
<ellipse cx="593.4" cy="432.2" rx="10.36" ry="8.495199999999999" fill="#241c10" opacity="0.3"/>
<circle cx="592.0" cy="430.0" r="10.36" fill="url(#g_d62828)" stroke="#241c10" stroke-width="1.6"/>
<circle cx="592.0" cy="430.0" r="7.959999999999999" fill="none" stroke="#ffffff" stroke-width="0.9" opacity="0.55"/>
<ellipse cx="705.4" cy="432.2" rx="10.36" ry="8.495199999999999" fill="#241c10" opacity="0.3"/>
<circle cx="704.0" cy="430.0" r="10.36" fill="url(#g_f4b400)" stroke="#241c10" stroke-width="1.6"/>
<circle cx="704.0" cy="430.0" r="7.959999999999999" fill="none" stroke="#ffffff" stroke-width="0.9" opacity="0.55"/>
<ellipse cx="817.4" cy="432.2" rx="10.36" ry="8.495199999999999" fill="#241c10" opacity="0.3"/>
<circle cx="816.0" cy="430.0" r="10.36" fill="url(#g_d62828)" stroke="#241c10" stroke-width="1.6"/>
<circle cx="816.0" cy="430.0" r="7.959999999999999" fill="none" stroke="#ffffff" stroke-width="0.9" opacity="0.55"/>
<ellipse cx="369.4" cy="460.2" rx="10.36" ry="8.495199999999999" fill="#241c10" opacity="0.3"/>
<circle cx="368.0" cy="458.0" r="10.36" fill="url(#g_d62828)" stroke="#241c10" stroke-width="1.6"/>
<circle cx="368.0" cy="458.0" r="7.959999999999999" fill="none" stroke="#ffffff" stroke-width="0.9" opacity="0.55"/>
<ellipse cx="481.4" cy="460.2" rx="10.36" ry="8.495199999999999" fill="#241c10" opacity="0.3"/>
<circle cx="480.0" cy="458.0" r="10.36" fill="url(#g_f4b400)" stroke="#241c10" stroke-width="1.6"/>
<circle cx="480.0" cy="458.0" r="7.959999999999999" fill="none" stroke="#ffffff" stroke-width="0.9" opacity="0.55"/>
<ellipse cx="593.4" cy="460.2" rx="10.36" ry="8.495199999999999" fill="#241c10" opacity="0.3"/>
<circle cx="592.0" cy="458.0" r="10.36" fill="url(#g_d62828)" stroke="#241c10" stroke-width="1.6"/>
<circle cx="592.0" cy="458.0" r="7.959999999999999" fill="none" stroke="#ffffff" stroke-width="0.9" opacity="0.55"/>
<ellipse cx="705.4" cy="460.2" rx="10.36" ry="8.495199999999999" fill="#241c10" opacity="0.3"/>
<circle cx="704.0" cy="458.0" r="10.36" fill="url(#g_f4b400)" stroke="#241c10" stroke-width="1.6"/>
<circle cx="704.0" cy="458.0" r="7.959999999999999" fill="none" stroke="#ffffff" stroke-width="0.9" opacity="0.55"/>
<ellipse cx="817.4" cy="460.2" rx="10.36" ry="8.495199999999999" fill="#241c10" opacity="0.3"/>
<circle cx="816.0" cy="458.0" r="10.36" fill="url(#g_d62828)" stroke="#241c10" stroke-width="1.6"/>
<circle cx="816.0" cy="458.0" r="7.959999999999999" fill="none" stroke="#ffffff" stroke-width="0.9" opacity="0.55"/>
<ellipse cx="313.4" cy="488.2" rx="10.36" ry="8.495199999999999" fill="#241c10" opacity="0.3"/>
<circle cx="312.0" cy="486.0" r="10.36" fill="url(#g_d62828)" stroke="#241c10" stroke-width="1.6"/>
<circle cx="312.0" cy="486.0" r="7.959999999999999" fill="none" stroke="#ffffff" stroke-width="0.9" opacity="0.55"/>
<ellipse cx="397.4" cy="488.2" rx="10.36" ry="8.495199999999999" fill="#241c10" opacity="0.3"/>
<circle cx="396.0" cy="486.0" r="10.36" fill="url(#g_d62828)" stroke="#241c10" stroke-width="1.6"/>
<circle cx="396.0" cy="486.0" r="7.959999999999999" fill="none" stroke="#ffffff" stroke-width="0.9" opacity="0.55"/>
<ellipse cx="537.4" cy="488.2" rx="10.36" ry="8.495199999999999" fill="#241c10" opacity="0.3"/>
<circle cx="536.0" cy="486.0" r="10.36" fill="url(#g_d62828)" stroke="#241c10" stroke-width="1.6"/>
<circle cx="536.0" cy="486.0" r="7.959999999999999" fill="none" stroke="#ffffff" stroke-width="0.9" opacity="0.55"/>
<ellipse cx="621.4" cy="488.2" rx="10.36" ry="8.495199999999999" fill="#241c10" opacity="0.3"/>
<circle cx="620.0" cy="486.0" r="10.36" fill="url(#g_d62828)" stroke="#241c10" stroke-width="1.6"/>
<circle cx="620.0" cy="486.0" r="7.959999999999999" fill="none" stroke="#ffffff" stroke-width="0.9" opacity="0.55"/>
<ellipse cx="705.4" cy="488.2" rx="10.36" ry="8.495199999999999" fill="#241c10" opacity="0.3"/>
<circle cx="704.0" cy="486.0" r="10.36" fill="url(#g_d62828)" stroke="#241c10" stroke-width="1.6"/>
<circle cx="704.0" cy="486.0" r="7.959999999999999" fill="none" stroke="#ffffff" stroke-width="0.9" opacity="0.55"/>
<ellipse cx="313.4" cy="516.2" rx="10.36" ry="8.495199999999999" fill="#241c10" opacity="0.3"/>
<circle cx="312.0" cy="514.0" r="10.36" fill="url(#g_d62828)" stroke="#241c10" stroke-width="1.6"/>
<circle cx="312.0" cy="514.0" r="7.959999999999999" fill="none" stroke="#ffffff" stroke-width="0.9" opacity="0.55"/>
<ellipse cx="397.4" cy="516.2" rx="10.36" ry="8.495199999999999" fill="#241c10" opacity="0.3"/>
<circle cx="396.0" cy="514.0" r="10.36" fill="url(#g_d62828)" stroke="#241c10" stroke-width="1.6"/>
<circle cx="396.0" cy="514.0" r="7.959999999999999" fill="none" stroke="#ffffff" stroke-width="0.9" opacity="0.55"/>
<ellipse cx="537.4" cy="516.2" rx="10.36" ry="8.495199999999999" fill="#241c10" opacity="0.3"/>
<circle cx="536.0" cy="514.0" r="10.36" fill="url(#g_d62828)" stroke="#241c10" stroke-width="1.6"/>
<circle cx="536.0" cy="514.0" r="7.959999999999999" fill="none" stroke="#ffffff" stroke-width="0.9" opacity="0.55"/>
<ellipse cx="621.4" cy="516.2" rx="10.36" ry="8.495199999999999" fill="#241c10" opacity="0.3"/>
<circle cx="620.0" cy="514.0" r="10.36" fill="url(#g_d62828)" stroke="#241c10" stroke-width="1.6"/>
<circle cx="620.0" cy="514.0" r="7.959999999999999" fill="none" stroke="#ffffff" stroke-width="0.9" opacity="0.55"/>
<ellipse cx="705.4" cy="516.2" rx="10.36" ry="8.495199999999999" fill="#241c10" opacity="0.3"/>
<circle cx="704.0" cy="514.0" r="10.36" fill="url(#g_d62828)" stroke="#241c10" stroke-width="1.6"/>
<circle cx="704.0" cy="514.0" r="7.959999999999999" fill="none" stroke="#ffffff" stroke-width="0.9" opacity="0.55"/>
<ellipse cx="313.4" cy="544.2" rx="10.36" ry="8.495199999999999" fill="#241c10" opacity="0.3"/>
<circle cx="312.0" cy="542.0" r="10.36" fill="url(#g_d62828)" stroke="#241c10" stroke-width="1.6"/>
<circle cx="312.0" cy="542.0" r="7.959999999999999" fill="none" stroke="#ffffff" stroke-width="0.9" opacity="0.55"/>
<ellipse cx="397.4" cy="544.2" rx="10.36" ry="8.495199999999999" fill="#241c10" opacity="0.3"/>
<circle cx="396.0" cy="542.0" r="10.36" fill="url(#g_d62828)" stroke="#241c10" stroke-width="1.6"/>
<circle cx="396.0" cy="542.0" r="7.959999999999999" fill="none" stroke="#ffffff" stroke-width="0.9" opacity="0.55"/>
<ellipse cx="537.4" cy="544.2" rx="10.36" ry="8.495199999999999" fill="#241c10" opacity="0.3"/>
<circle cx="536.0" cy="542.0" r="10.36" fill="url(#g_d62828)" stroke="#241c10" stroke-width="1.6"/>
<circle cx="536.0" cy="542.0" r="7.959999999999999" fill="none" stroke="#ffffff" stroke-width="0.9" opacity="0.55"/>
<ellipse cx="621.4" cy="544.2" rx="10.36" ry="8.495199999999999" fill="#241c10" opacity="0.3"/>
<circle cx="620.0" cy="542.0" r="10.36" fill="url(#g_d62828)" stroke="#241c10" stroke-width="1.6"/>
<circle cx="620.0" cy="542.0" r="7.959999999999999" fill="none" stroke="#ffffff" stroke-width="0.9" opacity="0.55"/>
<ellipse cx="705.4" cy="544.2" rx="10.36" ry="8.495199999999999" fill="#241c10" opacity="0.3"/>
<circle cx="704.0" cy="542.0" r="10.36" fill="url(#g_d62828)" stroke="#241c10" stroke-width="1.6"/>
<circle cx="704.0" cy="542.0" r="7.959999999999999" fill="none" stroke="#ffffff" stroke-width="0.9" opacity="0.55"/>
<ellipse cx="425.0" cy="629.0" rx="9" ry="4.5" fill="#241c10" opacity="0.2"/>
<use href="#pr_fire" x="410" y="612" width="28" height="28"/>
<ellipse cx="453.0" cy="629.0" rx="9" ry="4.5" fill="#241c10" opacity="0.2"/>
<use href="#pr_fire" x="438" y="612" width="28" height="28"/>
<ellipse cx="481.0" cy="629.0" rx="9" ry="4.5" fill="#241c10" opacity="0.2"/>
<use href="#pr_fire" x="466" y="612" width="28" height="28"/>
<ellipse cx="509.0" cy="629.0" rx="9" ry="4.5" fill="#241c10" opacity="0.2"/>
<use href="#pr_fire" x="494" y="612" width="28" height="28"/>
<ellipse cx="537.0" cy="629.0" rx="9" ry="4.5" fill="#241c10" opacity="0.2"/>
<use href="#pr_fire" x="522" y="612" width="28" height="28"/>
<ellipse cx="565.0" cy="629.0" rx="9" ry="4.5" fill="#241c10" opacity="0.2"/>
<use href="#pr_fire" x="550" y="612" width="28" height="28"/>
<ellipse cx="593.0" cy="629.0" rx="9" ry="4.5" fill="#241c10" opacity="0.2"/>
<use href="#pr_fire" x="578" y="612" width="28" height="28"/>
<ellipse cx="397.0" cy="657.0" rx="9" ry="4.5" fill="#241c10" opacity="0.2"/>
<use href="#pr_fire" x="382" y="640" width="28" height="28"/>
<ellipse cx="425.0" cy="657.0" rx="9" ry="4.5" fill="#241c10" opacity="0.2"/>
<use href="#pr_fire" x="410" y="640" width="28" height="28"/>
<ellipse cx="453.0" cy="657.0" rx="9" ry="4.5" fill="#241c10" opacity="0.2"/>
<use href="#pr_fire" x="438" y="640" width="28" height="28"/>
<ellipse cx="481.0" cy="657.0" rx="9" ry="4.5" fill="#241c10" opacity="0.2"/>
<use href="#pr_fire" x="466" y="640" width="28" height="28"/>
<ellipse cx="509.0" cy="657.0" rx="9" ry="4.5" fill="#241c10" opacity="0.2"/>
<use href="#pr_fire" x="494" y="640" width="28" height="28"/>
<ellipse cx="537.0" cy="657.0" rx="9" ry="4.5" fill="#241c10" opacity="0.2"/>
<use href="#pr_fire" x="522" y="640" width="28" height="28"/>
<ellipse cx="565.0" cy="657.0" rx="9" ry="4.5" fill="#241c10" opacity="0.2"/>
<use href="#pr_fire" x="550" y="640" width="28" height="28"/>
<ellipse cx="593.0" cy="657.0" rx="9" ry="4.5" fill="#241c10" opacity="0.2"/>
<use href="#pr_fire" x="578" y="640" width="28" height="28"/>
<ellipse cx="621.0" cy="657.0" rx="9" ry="4.5" fill="#241c10" opacity="0.2"/>
<use href="#pr_fire" x="606" y="640" width="28" height="28"/>
<ellipse cx="425.0" cy="685.0" rx="9" ry="4.5" fill="#241c10" opacity="0.2"/>
<use href="#pr_fire" x="410" y="668" width="28" height="28"/>
<ellipse cx="453.0" cy="685.0" rx="9" ry="4.5" fill="#241c10" opacity="0.2"/>
<use href="#pr_fire" x="438" y="668" width="28" height="28"/>
<ellipse cx="481.0" cy="685.0" rx="9" ry="4.5" fill="#241c10" opacity="0.2"/>
<use href="#pr_fire" x="466" y="668" width="28" height="28"/>
<ellipse cx="509.0" cy="685.0" rx="9" ry="4.5" fill="#241c10" opacity="0.2"/>
<use href="#pr_fire" x="494" y="668" width="28" height="28"/>
<ellipse cx="537.0" cy="685.0" rx="9" ry="4.5" fill="#241c10" opacity="0.2"/>
<use href="#pr_fire" x="522" y="668" width="28" height="28"/>
<ellipse cx="565.0" cy="685.0" rx="9" ry="4.5" fill="#241c10" opacity="0.2"/>
<use href="#pr_fire" x="550" y="668" width="28" height="28"/>
<ellipse cx="593.0" cy="685.0" rx="9" ry="4.5" fill="#241c10" opacity="0.2"/>
<use href="#pr_fire" x="578" y="668" width="28" height="28"/>
<ellipse cx="425.0" cy="713.0" rx="9" ry="4.5" fill="#241c10" opacity="0.2"/>
<use href="#pr_fire" x="410" y="696" width="28" height="28"/>
<ellipse cx="453.0" cy="713.0" rx="9" ry="4.5" fill="#241c10" opacity="0.2"/>
<use href="#pr_fire" x="438" y="696" width="28" height="28"/>
<ellipse cx="481.0" cy="713.0" rx="9" ry="4.5" fill="#241c10" opacity="0.2"/>
<use href="#pr_fire" x="466" y="696" width="28" height="28"/>
<ellipse cx="509.0" cy="713.0" rx="9" ry="4.5" fill="#241c10" opacity="0.2"/>
<use href="#pr_fire" x="494" y="696" width="28" height="28"/>
<ellipse cx="537.0" cy="713.0" rx="9" ry="4.5" fill="#241c10" opacity="0.2"/>
<use href="#pr_fire" x="522" y="696" width="28" height="28"/>
<ellipse cx="565.0" cy="713.0" rx="9" ry="4.5" fill="#241c10" opacity="0.2"/>
<use href="#pr_fire" x="550" y="696" width="28" height="28"/>
<ellipse cx="593.0" cy="713.0" rx="9" ry="4.5" fill="#241c10" opacity="0.2"/>
<use href="#pr_fire" x="578" y="696" width="28" height="28"/>
<ellipse cx="313.4" cy="768.2" rx="10.36" ry="8.495199999999999" fill="#241c10" opacity="0.3"/>
<circle cx="312.0" cy="766.0" r="10.36" fill="url(#g_212529)" stroke="#241c10" stroke-width="1.6"/>
<circle cx="312.0" cy="766.0" r="7.959999999999999" fill="none" stroke="#ffffff" stroke-width="0.9" opacity="0.55"/>
<ellipse cx="481.0" cy="769.0" rx="9" ry="4.5" fill="#241c10" opacity="0.2"/>
<use href="#pr_urn" x="466" y="752" width="28" height="28"/>
<ellipse cx="509.0" cy="769.0" rx="9" ry="4.5" fill="#241c10" opacity="0.2"/>
<use href="#pr_urn" x="494" y="752" width="28" height="28"/>
<ellipse cx="537.0" cy="769.0" rx="9" ry="4.5" fill="#241c10" opacity="0.2"/>
<use href="#pr_urn" x="522" y="752" width="28" height="28"/>
<ellipse cx="649.4" cy="768.2" rx="10.36" ry="8.495199999999999" fill="#241c10" opacity="0.3"/>
<circle cx="648.0" cy="766.0" r="10.36" fill="url(#g_f4b400)" stroke="#241c10" stroke-width="1.6"/>
<circle cx="648.0" cy="766.0" r="7.959999999999999" fill="none" stroke="#ffffff" stroke-width="0.9" opacity="0.55"/>
<ellipse cx="313.4" cy="824.2" rx="10.36" ry="8.495199999999999" fill="#241c10" opacity="0.3"/>
<circle cx="312.0" cy="822.0" r="10.36" fill="url(#g_212529)" stroke="#241c10" stroke-width="1.6"/>
<circle cx="312.0" cy="822.0" r="7.959999999999999" fill="none" stroke="#ffffff" stroke-width="0.9" opacity="0.55"/>
<ellipse cx="649.4" cy="824.2" rx="10.36" ry="8.495199999999999" fill="#241c10" opacity="0.3"/>
<circle cx="648.0" cy="822.0" r="10.36" fill="url(#g_f4b400)" stroke="#241c10" stroke-width="1.6"/>
<circle cx="648.0" cy="822.0" r="7.959999999999999" fill="none" stroke="#ffffff" stroke-width="0.9" opacity="0.55"/>
<ellipse cx="313.4" cy="852.2" rx="10.36" ry="8.495199999999999" fill="#241c10" opacity="0.3"/>
<circle cx="312.0" cy="850.0" r="10.36" fill="url(#g_212529)" stroke="#241c10" stroke-width="1.6"/>
<circle cx="312.0" cy="850.0" r="7.959999999999999" fill="none" stroke="#ffffff" stroke-width="0.9" opacity="0.55"/>
<ellipse cx="649.4" cy="852.2" rx="10.36" ry="8.495199999999999" fill="#241c10" opacity="0.3"/>
<circle cx="648.0" cy="850.0" r="10.36" fill="url(#g_f4b400)" stroke="#241c10" stroke-width="1.6"/>
<circle cx="648.0" cy="850.0" r="7.959999999999999" fill="none" stroke="#ffffff" stroke-width="0.9" opacity="0.55"/>
<ellipse cx="313.4" cy="908.2" rx="10.36" ry="8.495199999999999" fill="#241c10" opacity="0.3"/>
<circle cx="312.0" cy="906.0" r="10.36" fill="url(#g_d62828)" stroke="#241c10" stroke-width="1.6"/>
<circle cx="312.0" cy="906.0" r="7.959999999999999" fill="none" stroke="#ffffff" stroke-width="0.9" opacity="0.55"/>
<ellipse cx="397.4" cy="908.2" rx="10.36" ry="8.495199999999999" fill="#241c10" opacity="0.3"/>
<circle cx="396.0" cy="906.0" r="10.36" fill="url(#g_f4b400)" stroke="#241c10" stroke-width="1.6"/>
<circle cx="396.0" cy="906.0" r="7.959999999999999" fill="none" stroke="#ffffff" stroke-width="0.9" opacity="0.55"/>
<ellipse cx="481.0" cy="909.0" rx="9" ry="4.5" fill="#241c10" opacity="0.2"/>
<use href="#pr_urn" x="466" y="892" width="28" height="28"/>
<ellipse cx="509.0" cy="909.0" rx="9" ry="4.5" fill="#241c10" opacity="0.2"/>
<use href="#pr_urn" x="494" y="892" width="28" height="28"/>
<ellipse cx="537.0" cy="909.0" rx="9" ry="4.5" fill="#241c10" opacity="0.2"/>
<use href="#pr_urn" x="522" y="892" width="28" height="28"/>
<ellipse cx="649.4" cy="908.2" rx="10.36" ry="8.495199999999999" fill="#241c10" opacity="0.3"/>
<circle cx="648.0" cy="906.0" r="10.36" fill="url(#g_d62828)" stroke="#241c10" stroke-width="1.6"/>
<circle cx="648.0" cy="906.0" r="7.959999999999999" fill="none" stroke="#ffffff" stroke-width="0.9" opacity="0.55"/>
<ellipse cx="313.4" cy="936.2" rx="10.36" ry="8.495199999999999" fill="#241c10" opacity="0.3"/>
<circle cx="312.0" cy="934.0" r="10.36" fill="url(#g_d62828)" stroke="#241c10" stroke-width="1.6"/>
<circle cx="312.0" cy="934.0" r="7.959999999999999" fill="none" stroke="#ffffff" stroke-width="0.9" opacity="0.55"/>
<ellipse cx="397.4" cy="936.2" rx="10.36" ry="8.495199999999999" fill="#241c10" opacity="0.3"/>
<circle cx="396.0" cy="934.0" r="10.36" fill="url(#g_f4b400)" stroke="#241c10" stroke-width="1.6"/>
<circle cx="396.0" cy="934.0" r="7.959999999999999" fill="none" stroke="#ffffff" stroke-width="0.9" opacity="0.55"/>
<ellipse cx="481.0" cy="937.0" rx="9" ry="4.5" fill="#241c10" opacity="0.2"/>
<use href="#pr_urn" x="466" y="920" width="28" height="28"/>
<ellipse cx="509.0" cy="937.0" rx="9" ry="4.5" fill="#241c10" opacity="0.2"/>
<use href="#pr_urn" x="494" y="920" width="28" height="28"/>
<ellipse cx="537.0" cy="937.0" rx="9" ry="4.5" fill="#241c10" opacity="0.2"/>
<use href="#pr_urn" x="522" y="920" width="28" height="28"/>
<ellipse cx="649.4" cy="936.2" rx="10.36" ry="8.495199999999999" fill="#241c10" opacity="0.3"/>
<circle cx="648.0" cy="934.0" r="10.36" fill="url(#g_d62828)" stroke="#241c10" stroke-width="1.6"/>
<circle cx="648.0" cy="934.0" r="7.959999999999999" fill="none" stroke="#ffffff" stroke-width="0.9" opacity="0.55"/>
<ellipse cx="313.4" cy="964.2" rx="10.36" ry="8.495199999999999" fill="#241c10" opacity="0.3"/>
<circle cx="312.0" cy="962.0" r="10.36" fill="url(#g_d62828)" stroke="#241c10" stroke-width="1.6"/>
<circle cx="312.0" cy="962.0" r="7.959999999999999" fill="none" stroke="#ffffff" stroke-width="0.9" opacity="0.55"/>
<ellipse cx="397.4" cy="964.2" rx="10.36" ry="8.495199999999999" fill="#241c10" opacity="0.3"/>
<circle cx="396.0" cy="962.0" r="10.36" fill="url(#g_f4b400)" stroke="#241c10" stroke-width="1.6"/>
<circle cx="396.0" cy="962.0" r="7.959999999999999" fill="none" stroke="#ffffff" stroke-width="0.9" opacity="0.55"/>
<ellipse cx="481.0" cy="965.0" rx="9" ry="4.5" fill="#241c10" opacity="0.2"/>
<use href="#pr_urn" x="466" y="948" width="28" height="28"/>
<ellipse cx="509.0" cy="965.0" rx="9" ry="4.5" fill="#241c10" opacity="0.2"/>
<use href="#pr_urn" x="494" y="948" width="28" height="28"/>
<ellipse cx="537.0" cy="965.0" rx="9" ry="4.5" fill="#241c10" opacity="0.2"/>
<use href="#pr_urn" x="522" y="948" width="28" height="28"/>
<ellipse cx="649.4" cy="964.2" rx="10.36" ry="8.495199999999999" fill="#241c10" opacity="0.3"/>
<circle cx="648.0" cy="962.0" r="10.36" fill="url(#g_d62828)" stroke="#241c10" stroke-width="1.6"/>
<circle cx="648.0" cy="962.0" r="7.959999999999999" fill="none" stroke="#ffffff" stroke-width="0.9" opacity="0.55"/>
<ellipse cx="481.4" cy="992.2" rx="10.36" ry="8.495199999999999" fill="#241c10" opacity="0.3"/>
<circle cx="480.0" cy="990.0" r="10.36" fill="url(#g_d62828)" stroke="#241c10" stroke-width="1.6"/>
<circle cx="480.0" cy="990.0" r="7.959999999999999" fill="none" stroke="#ffffff" stroke-width="0.9" opacity="0.55"/>
<ellipse cx="789.4" cy="992.2" rx="10.36" ry="8.495199999999999" fill="#241c10" opacity="0.3"/>
<circle cx="788.0" cy="990.0" r="10.36" fill="url(#g_d62828)" stroke="#241c10" stroke-width="1.6"/>
<circle cx="788.0" cy="990.0" r="7.959999999999999" fill="none" stroke="#ffffff" stroke-width="0.9" opacity="0.55"/>
<ellipse cx="481.4" cy="1020.2" rx="10.36" ry="8.495199999999999" fill="#241c10" opacity="0.3"/>
<circle cx="480.0" cy="1018.0" r="10.36" fill="url(#g_d62828)" stroke="#241c10" stroke-width="1.6"/>
<circle cx="480.0" cy="1018.0" r="7.959999999999999" fill="none" stroke="#ffffff" stroke-width="0.9" opacity="0.55"/>
<ellipse cx="789.4" cy="1020.2" rx="10.36" ry="8.495199999999999" fill="#241c10" opacity="0.3"/>
<circle cx="788.0" cy="1018.0" r="10.36" fill="url(#g_d62828)" stroke="#241c10" stroke-width="1.6"/>
<circle cx="788.0" cy="1018.0" r="7.959999999999999" fill="none" stroke="#ffffff" stroke-width="0.9" opacity="0.55"/>
<ellipse cx="649.4" cy="1048.2" rx="10.36" ry="8.495199999999999" fill="#241c10" opacity="0.3"/>
<circle cx="648.0" cy="1046.0" r="10.36" fill="url(#g_d62828)" stroke="#241c10" stroke-width="1.6"/>
<circle cx="648.0" cy="1046.0" r="7.959999999999999" fill="none" stroke="#ffffff" stroke-width="0.9" opacity="0.55"/>
<ellipse cx="649.4" cy="1076.2" rx="10.36" ry="8.495199999999999" fill="#241c10" opacity="0.3"/>
<circle cx="648.0" cy="1074.0" r="10.36" fill="url(#g_d62828)" stroke="#241c10" stroke-width="1.6"/>
<circle cx="648.0" cy="1074.0" r="7.959999999999999" fill="none" stroke="#ffffff" stroke-width="0.9" opacity="0.55"/>
<ellipse cx="649.4" cy="1104.2" rx="10.36" ry="8.495199999999999" fill="#241c10" opacity="0.3"/>
<circle cx="648.0" cy="1102.0" r="10.36" fill="url(#g_d62828)" stroke="#241c10" stroke-width="1.6"/>
<circle cx="648.0" cy="1102.0" r="7.959999999999999" fill="none" stroke="#ffffff" stroke-width="0.9" opacity="0.55"/>
<text x="60.0" y="72" font-size="10" text-anchor="middle" fill="#7a6a50">A</text>
<text x="88.0" y="72" font-size="10" text-anchor="middle" fill="#7a6a50">B</text>
<text x="116.0" y="72" font-size="10" text-anchor="middle" fill="#7a6a50">C</text>
<text x="144.0" y="72" font-size="10" text-anchor="middle" fill="#7a6a50">D</text>
<text x="172.0" y="72" font-size="10" text-anchor="middle" fill="#7a6a50">E</text>
<text x="200.0" y="72" font-size="10" text-anchor="middle" fill="#7a6a50">F</text>
<text x="228.0" y="72" font-size="10" text-anchor="middle" fill="#7a6a50">G</text>
<text x="256.0" y="72" font-size="10" text-anchor="middle" fill="#7a6a50">H</text>
<text x="284.0" y="72" font-size="10" text-anchor="middle" fill="#7a6a50">I</text>
<text x="312.0" y="72" font-size="10" text-anchor="middle" fill="#7a6a50">J</text>
<text x="340.0" y="72" font-size="10" text-anchor="middle" fill="#7a6a50">K</text>
<text x="368.0" y="72" font-size="10" text-anchor="middle" fill="#7a6a50">L</text>
<text x="396.0" y="72" font-size="10" text-anchor="middle" fill="#7a6a50">M</text>
<text x="424.0" y="72" font-size="10" text-anchor="middle" fill="#7a6a50">N</text>
<text x="452.0" y="72" font-size="10" text-anchor="middle" fill="#7a6a50">O</text>
<text x="480.0" y="72" font-size="10" text-anchor="middle" fill="#7a6a50">P</text>
<text x="508.0" y="72" font-size="10" text-anchor="middle" fill="#7a6a50">Q</text>
<text x="536.0" y="72" font-size="10" text-anchor="middle" fill="#7a6a50">R</text>
<text x="564.0" y="72" font-size="10" text-anchor="middle" fill="#7a6a50">S</text>
<text x="592.0" y="72" font-size="10" text-anchor="middle" fill="#7a6a50">T</text>
<text x="620.0" y="72" font-size="10" text-anchor="middle" fill="#7a6a50">U</text>
<text x="648.0" y="72" font-size="10" text-anchor="middle" fill="#7a6a50">V</text>
<text x="676.0" y="72" font-size="10" text-anchor="middle" fill="#7a6a50">W</text>
<text x="704.0" y="72" font-size="10" text-anchor="middle" fill="#7a6a50">X</text>
<text x="732.0" y="72" font-size="10" text-anchor="middle" fill="#7a6a50">Y</text>
<text x="760.0" y="72" font-size="10" text-anchor="middle" fill="#7a6a50">Z</text>
<text x="788.0" y="72" font-size="10" text-anchor="middle" fill="#7a6a50">AA</text>
<text x="816.0" y="72" font-size="10" text-anchor="middle" fill="#7a6a50">AB</text>
<text x="844.0" y="72" font-size="10" text-anchor="middle" fill="#7a6a50">AC</text>
<text x="872.0" y="72" font-size="10" text-anchor="middle" fill="#7a6a50">AD</text>
<text x="900.0" y="72" font-size="10" text-anchor="middle" fill="#7a6a50">AE</text>
<text x="928.0" y="72" font-size="10" text-anchor="middle" fill="#7a6a50">AF</text>
<text x="956.0" y="72" font-size="10" text-anchor="middle" fill="#7a6a50">AG</text>
<text x="984.0" y="72" font-size="10" text-anchor="middle" fill="#7a6a50">AH</text>
<text x="1012.0" y="72" font-size="10" text-anchor="middle" fill="#7a6a50">AI</text>
<text x="1040.0" y="72" font-size="10" text-anchor="middle" fill="#7a6a50">AJ</text>
<text x="1068.0" y="72" font-size="10" text-anchor="middle" fill="#7a6a50">AK</text>
<text x="1096.0" y="72" font-size="10" text-anchor="middle" fill="#7a6a50">AL</text>
<text x="1124.0" y="72" font-size="10" text-anchor="middle" fill="#7a6a50">AM</text>
<text x="1152.0" y="72" font-size="10" text-anchor="middle" fill="#7a6a50">AN</text>
<text x="1180.0" y="72" font-size="10" text-anchor="middle" fill="#7a6a50">AO</text>
<text x="1208.0" y="72" font-size="10" text-anchor="middle" fill="#7a6a50">AP</text>
<text x="1236.0" y="72" font-size="10" text-anchor="middle" fill="#7a6a50">AQ</text>
<text x="1264.0" y="72" font-size="10" text-anchor="middle" fill="#7a6a50">AR</text>
<text x="1292.0" y="72" font-size="10" text-anchor="middle" fill="#7a6a50">AS</text>
<text x="1320.0" y="72" font-size="10" text-anchor="middle" fill="#7a6a50">AT</text>
<text x="1348.0" y="72" font-size="10" text-anchor="middle" fill="#7a6a50">AU</text>
<text x="1376.0" y="72" font-size="10" text-anchor="middle" fill="#7a6a50">AV</text>
<text x="1404.0" y="72" font-size="10" text-anchor="middle" fill="#7a6a50">AW</text>
<text x="1432.0" y="72" font-size="10" text-anchor="middle" fill="#7a6a50">AX</text>
<text x="1460.0" y="72" font-size="10" text-anchor="middle" fill="#7a6a50">AY</text>
<text x="1488.0" y="72" font-size="10" text-anchor="middle" fill="#7a6a50">AZ</text>
<text x="1516.0" y="72" font-size="10" text-anchor="middle" fill="#7a6a50">BA</text>
<text x="37" y="97.0" font-size="10" text-anchor="end" fill="#7a6a50">01</text>
<text x="37" y="125.0" font-size="10" text-anchor="end" fill="#7a6a50">02</text>
<text x="37" y="153.0" font-size="10" text-anchor="end" fill="#7a6a50">03</text>
<text x="37" y="181.0" font-size="10" text-anchor="end" fill="#7a6a50">04</text>
<text x="37" y="209.0" font-size="10" text-anchor="end" fill="#7a6a50">05</text>
<text x="37" y="237.0" font-size="10" text-anchor="end" fill="#7a6a50">06</text>
<text x="37" y="265.0" font-size="10" text-anchor="end" fill="#b1a184">07</text>
<text x="37" y="293.0" font-size="10" text-anchor="end" fill="#7a6a50">08</text>
<text x="37" y="321.0" font-size="10" text-anchor="end" fill="#b1a184">09</text>
<text x="37" y="349.0" font-size="10" text-anchor="end" fill="#7a6a50">10</text>
<text x="37" y="377.0" font-size="10" text-anchor="end" fill="#b1a184">11</text>
<text x="37" y="405.0" font-size="10" text-anchor="end" fill="#7a6a50">12</text>
<text x="37" y="433.0" font-size="10" text-anchor="end" fill="#b1a184">13</text>
<text x="37" y="461.0" font-size="10" text-anchor="end" fill="#b1a184">14</text>
<text x="37" y="489.0" font-size="10" text-anchor="end" fill="#7a6a50">15</text>
<text x="37" y="517.0" font-size="10" text-anchor="end" fill="#b1a184">16</text>
<text x="37" y="545.0" font-size="10" text-anchor="end" fill="#b1a184">17</text>
<text x="37" y="573.0" font-size="10" text-anchor="end" fill="#7a6a50">18</text>
<text x="37" y="601.0" font-size="10" text-anchor="end" fill="#b1a184">19</text>
<text x="37" y="629.0" font-size="10" text-anchor="end" fill="#7a6a50">20</text>
<text x="37" y="657.0" font-size="10" text-anchor="end" fill="#7a6a50">21</text>
<text x="37" y="685.0" font-size="10" text-anchor="end" fill="#7a6a50">22</text>
<text x="37" y="713.0" font-size="10" text-anchor="end" fill="#b1a184">23</text>
<text x="37" y="741.0" font-size="10" text-anchor="end" fill="#7a6a50">24</text>
<text x="37" y="769.0" font-size="10" text-anchor="end" fill="#7a6a50">25</text>
<text x="37" y="797.0" font-size="10" text-anchor="end" fill="#7a6a50">26</text>
<text x="37" y="825.0" font-size="10" text-anchor="end" fill="#7a6a50">27</text>
<text x="37" y="853.0" font-size="10" text-anchor="end" fill="#b1a184">28</text>
<text x="37" y="881.0" font-size="10" text-anchor="end" fill="#7a6a50">29</text>
<text x="37" y="909.0" font-size="10" text-anchor="end" fill="#7a6a50">30</text>
<text x="37" y="937.0" font-size="10" text-anchor="end" fill="#b1a184">31</text>
<text x="37" y="965.0" font-size="10" text-anchor="end" fill="#b1a184">32</text>
<text x="37" y="993.0" font-size="10" text-anchor="end" fill="#7a6a50">33</text>
<text x="37" y="1021.0" font-size="10" text-anchor="end" fill="#b1a184">34</text>
<text x="37" y="1049.0" font-size="10" text-anchor="end" fill="#7a6a50">35</text>
<text x="37" y="1077.0" font-size="10" text-anchor="end" fill="#b1a184">36</text>
<text x="37" y="1105.0" font-size="10" text-anchor="end" fill="#b1a184">37</text>
<text x="37" y="1133.0" font-size="10" text-anchor="end" fill="#7a6a50">38</text>
<text x="37" y="1161.0" font-size="10" text-anchor="end" fill="#7a6a50">39</text>
<text x="37" y="1189.0" font-size="10" text-anchor="end" fill="#7a6a50">40</text>
<g transform="translate(1508,102) rotate(0)"><circle r="20" fill="#efe4c9" fill-opacity="0.82" stroke="#3b2e1e" stroke-width="1"/><path d="M0 -15L2.4 -2.4L15 0L2.4 2.4L0 15L-2.4 2.4L-15 0L-2.4 -2.4Z" fill="#7a6a50" opacity="0.5"/><path d="M0 -15L3.6 0L0 -3.3L-3.6 0Z" fill="#3b2e1e"/><text x="0" y="-21" font-size="11" font-weight="bold" text-anchor="middle" fill="#3b2e1e">N</text></g>
<rect x="46" y="1219" width="28" height="7" fill="#3b2e1e" stroke="#3b2e1e" stroke-width="1"/>
<rect x="74" y="1219" width="28" height="7" fill="#efe4c9" stroke="#3b2e1e" stroke-width="1"/>
<rect x="102" y="1219" width="28" height="7" fill="#3b2e1e" stroke="#3b2e1e" stroke-width="1"/>
<rect x="130" y="1219" width="28" height="7" fill="#efe4c9" stroke="#3b2e1e" stroke-width="1"/>
<rect x="158" y="1219" width="28" height="7" fill="#3b2e1e" stroke="#3b2e1e" stroke-width="1"/>
<text x="196" y="1227" font-size="11" fill="#3b2e1e">7,5 m (5 quadretti)</text>
<text x="46" y="1256" font-size="12" font-weight="bold" fill="#3b2e1e" letter-spacing="2">LEGENDA</text>
<path d="M120 1252H1530" stroke="#7a6a50" stroke-width="0.7" opacity="0.7"/>
<rect x="46" y="1262" width="19" height="15" fill="url(#t_struct)" stroke="#7a6a50" stroke-width="0.7"/>
<text x="73" y="1274" font-size="11" fill="#3b2e1e">⬛ — Edificio / corpo di fabbrica (muratura piena: blocca vista e movimento)</text>
<rect x="46" y="1284" width="19" height="15" fill="url(#t_forest)" stroke="#7a6a50" stroke-width="0.7"/>
<text x="73" y="1296" font-size="11" fill="#3b2e1e">🌲 — Foresta densa (Furtività +5, copertura)</text>
<rect x="46" y="1306" width="19" height="15" fill="url(#t_grass)" stroke="#7a6a50" stroke-width="0.7"/>
<text x="73" y="1318" font-size="11" fill="#3b2e1e">🟩 — Pianura / area aperta</text>
<circle cx="55" cy="1336" r="7.5" fill="url(#g_212529)" stroke="#241c10" stroke-width="1.2"/>
<text x="73" y="1340" font-size="11" fill="#3b2e1e">⚫ — Boss / comandante</text>
<circle cx="55" cy="1358" r="7.5" fill="url(#g_f4b400)" stroke="#241c10" stroke-width="1.2"/>
<text x="73" y="1362" font-size="11" fill="#3b2e1e">🟡 — Incantatore nemico</text>
<circle cx="55" cy="1380" r="7.5" fill="url(#g_d62828)" stroke="#241c10" stroke-width="1.2"/>
<text x="73" y="1384" font-size="11" fill="#3b2e1e">🔴 — Nemico standard</text>
<use href="#pr_urn" x="46" y="1393" width="18" height="18"/>
<text x="73" y="1406" font-size="11" fill="#3b2e1e">🏺 — Contenitore / bottino</text>
<use href="#pr_fire" x="46" y="1415" width="18" height="18"/>
<text x="73" y="1428" font-size="11" fill="#3b2e1e">🔥 — Fuoco (1d6 fuoco/round)</text>
<text x="46" y="1460" font-size="9" font-style="italic" fill="#7a6a50">fonte: SUPPLEMENTO-P1C-MAPPE-CAMPI-DROW-COMPLETO.md · SVG generato da scripts/render_map_svg.py (stile pergamena) — non modificare a mano</text>
</svg>